<svg width="65" height="52" viewBox="0 0 65 52" fill="none" xmlns="http://www.w3.org/2000/svg">
<path d="M64.2034 4.97444V46.0964C64.2034 47.4644 63.7175 48.6353 62.7456 49.6092C61.7731 50.5837 60.6044 51.0709 59.2392 51.0709H45.505C45.1768 51.0709 44.9018 50.9592 44.6801 50.7359C44.4578 50.5132 44.3467 50.2368 44.3467 49.9069C44.3467 49.5774 44.4578 49.3022 44.6801 49.0811C44.9018 48.86 45.1768 48.7495 45.505 48.7495H59.2392C60.0114 48.7495 60.6457 48.5008 61.1421 48.0033C61.6386 47.5059 61.8868 46.8702 61.8868 46.0964V4.97444C61.8868 4.20063 61.6386 3.56501 61.1421 3.06757C60.6457 2.57013 60.0114 2.3214 59.2392 2.3214H32.1017C31.3295 2.3214 30.6952 2.57013 30.1988 3.06757C29.7023 3.56501 29.4541 4.20063 29.4541 4.97444V9.53434C29.4541 9.8632 29.3427 10.1387 29.1199 10.3609C28.8976 10.5837 28.6218 10.695 28.2925 10.695C27.9638 10.695 27.6891 10.5837 27.4685 10.3609C27.2478 10.1387 27.1375 9.8632 27.1375 9.53434V4.97444C27.1375 3.61365 27.6254 2.44438 28.6011 1.46663C29.5769 0.488877 30.7437 0 32.1017 0H59.2392C60.6044 0 61.7731 0.486942 62.7456 1.46083C63.7175 2.43526 64.2034 3.60647 64.2034 4.97444ZM0 26.9449C0 26.1711 0.179262 25.4111 0.537786 24.6649C0.89631 23.9187 1.40652 23.3246 2.06841 22.8824L15.9681 13.0164C16.4281 12.692 16.8989 12.459 17.3804 12.3175C17.8614 12.1755 18.3531 12.1045 18.8556 12.1045C19.3575 12.1045 19.8509 12.1755 20.3358 12.3175C20.8211 12.459 21.2958 12.692 21.7597 13.0164L35.6594 22.8824C36.3212 23.3246 36.8315 23.9187 37.19 24.6649C37.5485 25.4111 37.7278 26.1711 37.7278 26.9449V46.0964C37.7278 47.4644 37.2418 48.6353 36.27 49.6092C35.2975 50.5837 34.1287 51.0709 32.7636 51.0709H28.2958C26.9307 51.0709 25.7622 50.5837 24.7903 49.6092C23.8179 48.6353 23.3316 47.4644 23.3316 46.0964V36.645H14.3961V46.0964C14.3961 47.4644 13.9102 48.6353 12.9383 49.6092C11.9659 50.5837 10.7971 51.0709 9.43194 51.0709H4.96418C3.59903 51.0709 2.43052 50.5837 1.45864 49.6092C0.486214 48.6353 0 47.4644 0 46.0964V26.9449ZM2.31662 26.9449V46.0964C2.31662 46.8702 2.56483 47.5059 3.06124 48.0033C3.55766 48.5008 4.19197 48.7495 4.96418 48.7495H9.43194C10.2041 48.7495 10.8385 48.5008 11.3349 48.0033C11.8313 47.5059 12.0795 46.8702 12.0795 46.0964V36.8108C12.0795 36.0923 12.3139 35.4981 12.7828 35.0283C13.2516 34.5585 13.8445 34.3236 14.5616 34.3236H23.1662C23.8832 34.3236 24.4762 34.5585 24.945 35.0283C25.4138 35.4981 25.6483 36.0923 25.6483 36.8108V46.0964C25.6483 46.8702 25.8965 47.5059 26.3929 48.0033C26.8893 48.5008 27.5236 48.7495 28.2958 48.7495H32.7636C33.5358 48.7495 34.1701 48.5008 34.6665 48.0033C35.1629 47.5059 35.4111 46.8702 35.4111 46.0964V26.9449C35.4111 26.5027 35.3146 26.0882 35.1216 25.7013C34.9285 25.3144 34.6389 24.9827 34.2528 24.7064L20.3531 15.0062C19.9119 14.6746 19.4155 14.5088 18.8639 14.5088C18.3123 14.5088 17.8159 14.6746 17.3746 15.0062L3.47493 24.7064C3.08882 24.9827 2.79925 25.3144 2.60619 25.7013C2.41314 26.0882 2.31662 26.5027 2.31662 26.9449ZM50.8828 14.5917H53.034C53.3649 14.5917 53.6545 14.4673 53.9027 14.2186C54.1509 13.9699 54.275 13.6797 54.275 13.3481V11.1925C54.275 10.8609 54.1509 10.5707 53.9027 10.322C53.6545 10.0732 53.3649 9.94887 53.034 9.94887H50.8828C50.5519 9.94887 50.2623 10.0732 50.0141 10.322C49.7659 10.5707 49.6418 10.8609 49.6418 11.1925V13.3481C49.6418 13.6797 49.7659 13.9699 50.0141 14.2186C50.2623 14.4673 50.5519 14.5917 50.8828 14.5917ZM50.8828 27.8568H53.034C53.3649 27.8568 53.6545 27.7325 53.9027 27.4838C54.1509 27.235 54.275 26.9449 54.275 26.6132V24.4576C54.275 24.126 54.1509 23.8358 53.9027 23.5871C53.6545 23.3384 53.3649 23.214 53.034 23.214H50.8828C50.5519 23.214 50.2623 23.3384 50.0141 23.5871C49.7659 23.8358 49.6418 24.126 49.6418 24.4576V26.6132C49.6418 26.9449 49.7659 27.235 50.0141 27.4838C50.2623 27.7325 50.5519 27.8568 50.8828 27.8568ZM50.8828 41.122H53.034C53.3649 41.122 53.6545 40.9976 53.9027 40.7489C54.1509 40.5002 54.275 40.21 54.275 39.8784V37.7228C54.275 37.3912 54.1509 37.101 53.9027 36.8523C53.6545 36.6036 53.3649 36.4792 53.034 36.4792H50.8828C50.5519 36.4792 50.2623 36.6036 50.0141 36.8523C49.7659 37.101 49.6418 37.3912 49.6418 37.7228V39.8784C49.6418 40.21 49.7659 40.5002 50.0141 40.7489C50.2623 40.9976 50.5519 41.122 50.8828 41.122Z" fill="#0D0400"/>
</svg>
