<svg width="62" height="59" viewBox="0 0 62 59" fill="none" xmlns="http://www.w3.org/2000/svg">
<path d="M52.4277 13.1035C53.0992 13.1035 53.6694 12.8751 54.1382 12.4182C54.6069 11.9618 54.8413 11.3962 54.8413 10.7212C54.8413 10.0463 54.6021 9.47444 54.1238 9.00566C53.6448 8.53688 53.0696 8.30249 52.398 8.30249C51.7265 8.30249 51.1563 8.54196 50.6875 9.02091C50.2188 9.49929 49.9844 10.0759 49.9844 10.7509C49.9844 11.4258 50.2238 11.9866 50.7028 12.4334C51.1812 12.8802 51.7561 13.1035 52.4277 13.1035ZM38.6422 13.1035C39.3171 13.1035 39.8889 12.8751 40.3577 12.4182C40.8265 11.9618 41.0609 11.3962 41.0609 10.7212C41.0609 10.0463 40.8214 9.47444 40.3425 9.00566C39.8641 8.53688 39.2874 8.30249 38.6125 8.30249C37.9376 8.30249 37.3767 8.54196 36.93 9.02091C36.4832 9.49929 36.2598 10.0759 36.2598 10.7509C36.2598 11.4258 36.488 11.9866 36.9444 12.4334C37.4013 12.8802 37.9672 13.1035 38.6422 13.1035ZM45.49 20.1632C44.2689 20.1632 43.0702 20.3419 41.8937 20.6995C40.7172 21.0575 39.7336 21.7167 38.9429 22.6768C38.5662 23.1004 38.5332 23.5593 38.8438 24.0535C39.1544 24.5477 39.6531 24.7948 40.3399 24.7948H50.6706C51.3241 24.7948 51.7965 24.5452 52.088 24.0459C52.38 23.5472 52.3565 23.0908 52.0176 22.6768C51.1891 21.7539 50.1993 21.1044 49.0482 20.7283C47.8966 20.3515 46.7105 20.1632 45.49 20.1632ZM15.8628 58.9646C11.4439 58.9646 7.69533 57.4303 4.6172 54.3618C1.53907 51.2927 0 47.5368 0 43.0942V28.7478C0 27.4725 0.471887 26.3629 1.41566 25.4192C2.35943 24.4754 3.46897 24.0035 4.74428 24.0035H26.884C28.1886 24.0035 29.3055 24.4754 30.2346 25.4192C31.1637 26.3629 31.6282 27.4725 31.6282 28.7478V43.0942C31.6282 47.5368 30.1053 51.2927 27.0593 54.3618C24.0134 57.4303 20.2812 58.9646 15.8628 58.9646ZM15.8281 56.9314C19.6218 56.9314 22.8649 55.5832 25.5573 52.8869C28.2491 50.1905 29.595 46.9263 29.595 43.0942V28.7478C29.595 27.9949 29.3408 27.355 28.8325 26.8281C28.3242 26.3005 27.6747 26.0368 26.884 26.0368H4.74428C3.95357 26.0368 3.30405 26.3005 2.79574 26.8281C2.28742 27.355 2.03326 27.9949 2.03326 28.7478V43.0942C2.03326 46.9263 3.38397 50.1905 6.08539 52.8869C8.7868 55.5832 12.0344 56.9314 15.8281 56.9314ZM61.3368 4.74428V19.2592C61.3368 23.7544 59.6989 27.4999 56.423 30.4956C53.1472 33.4912 49.2877 34.9891 44.8445 34.9891C43.7708 34.9891 42.7118 34.8809 41.6675 34.6646C40.6226 34.4477 39.6108 34.0947 38.632 33.6056C38.331 33.4362 38.1708 33.1862 38.1516 32.8558C38.133 32.5254 38.2366 32.2106 38.4626 31.9112C38.6506 31.6475 38.8957 31.5108 39.1979 31.5012C39.5001 31.4921 39.7726 31.5723 40.0155 31.7418C40.8819 32.1744 41.8033 32.4709 42.7799 32.6313C43.7569 32.7912 44.6993 32.8711 45.6069 32.8711C49.3724 32.8711 52.5966 31.5438 55.2793 28.8893C57.9621 26.2347 59.3035 23.0338 59.3035 19.2863V4.74428C59.3035 3.95357 59.0493 3.30405 58.541 2.79574C58.0327 2.28742 57.3832 2.03326 56.5925 2.03326H34.396C33.6053 2.03326 32.9558 2.28742 32.4475 2.79574C31.9392 3.30405 31.685 3.95357 31.685 4.74428V18.1299C31.685 18.418 31.5862 18.6594 31.3885 18.8543C31.1914 19.0491 30.9468 19.1466 30.6548 19.1466C30.3628 19.1466 30.1225 19.0491 29.9339 18.8543C29.7458 18.6594 29.6517 18.418 29.6517 18.1299V4.74428C29.6517 3.46897 30.1163 2.35943 31.0454 1.41566C31.9745 0.471888 33.0913 0 34.396 0H56.5925C57.8678 0 58.9773 0.471888 59.9211 1.41566C60.8649 2.35943 61.3368 3.46897 61.3368 4.74428ZM8.99973 36.9944C9.67466 36.9944 10.2355 36.7659 10.6823 36.309C11.129 35.8526 11.3524 35.287 11.3524 34.6121C11.3524 33.9371 11.1242 33.3653 10.6679 32.8965C10.2109 32.4277 9.64501 32.1933 8.97008 32.1933C8.29515 32.1933 7.72329 32.4328 7.25451 32.9117C6.78573 33.3901 6.55134 33.9668 6.55134 34.6417C6.55134 35.3166 6.79081 35.8775 7.26976 36.3242C7.74814 36.771 8.3248 36.9944 8.99973 36.9944ZM22.781 36.9944C23.4559 36.9944 24.0168 36.7659 24.4635 36.309C24.9103 35.8526 25.1337 35.287 25.1337 34.6121C25.1337 33.9371 24.9052 33.3653 24.4483 32.8965C23.9919 32.4277 23.4263 32.1933 22.7514 32.1933C22.0764 32.1933 21.5046 32.4328 21.0358 32.9117C20.567 33.3901 20.3326 33.9668 20.3326 34.6417C20.3326 35.3166 20.5721 35.8775 21.051 36.3242C21.5294 36.771 22.1061 36.9944 22.781 36.9944ZM15.8798 48.8551C17.1325 48.8551 18.3431 48.6667 19.5117 48.29C20.6803 47.9133 21.6828 47.2519 22.5192 46.3059C22.8502 45.8777 22.8553 45.4237 22.5345 44.9436C22.2142 44.4635 21.7062 44.2235 21.0104 44.2235H10.7314C10.0565 44.2235 9.55351 44.4635 9.22254 44.9436C8.89157 45.4237 8.89157 45.8777 9.22254 46.3059C10.0743 47.2931 11.0835 47.9647 12.2504 48.3205C13.4173 48.6769 14.6271 48.8551 15.8798 48.8551Z" fill="#0D0400"/>
</svg>
