<svg width="184" height="184" viewBox="0 0 184 184" fill="none" xmlns="http://www.w3.org/2000/svg">
<path d="M139.302 78.8301C141.262 78.7101 142.943 79.0805 144.453 79.9805C145.793 80.7905 147.383 82.3107 147.813 84.1807C148.393 86.7218 147.682 112.739 147.142 115.91C146.742 118.21 145.953 120.541 145.193 122.791C144.893 123.661 144.602 124.52 144.342 125.36C143.962 126.57 143.593 127.781 143.233 129.001C142.323 132.011 141.392 135.12 140.262 138.08C139.722 139.47 139.163 140.64 138.533 141.65C137.703 142.99 136.593 144.31 135.133 145.69C132.393 148.29 129.322 150.701 126.352 153.041C125.062 154.061 123.762 155.071 122.503 156.101C121.493 156.92 120.493 157.79 119.483 158.66C117.553 160.34 115.543 162.071 113.453 163.511C112.513 164.161 111.543 164.601 110.563 164.811C109.963 164.941 109.393 165.011 108.833 165.011C106.863 165.011 105.143 164.211 103.293 163.041L102.472 162.541C100.682 161.461 98.6528 160.23 97.1628 158.78C94.4828 156.13 92.9828 152.59 92.9528 148.82C92.9229 147.03 93.2629 145.28 93.9528 143.62C95.0934 140.809 102.602 128.831 104.753 126.671C105.433 125.991 106.273 125.331 107.383 124.601C109.713 123.061 112.203 121.661 114.613 120.301C115.783 119.641 116.953 118.98 118.092 118.311C118.812 117.891 119.543 117.431 120.283 116.971C122.063 115.851 123.893 114.701 125.793 113.931C127.013 113.441 128.113 113.3 129.333 113.28C129.623 111.14 129.843 108.96 130.063 106.851C130.383 103.801 130.703 100.63 131.243 97.5205C131.463 96.0306 131.603 94.4307 131.743 92.8809C132.043 89.4209 132.363 85.8404 133.633 82.6504C134.273 81.0304 136.143 79.7506 139.193 78.8506L139.302 78.8301ZM41.7829 78.8105C44.3328 78.7006 46.103 79.2407 47.863 80.6807C48.4232 81.121 50.0326 83.021 50.1726 83.8809C50.9025 88.2707 51.4223 92.7605 51.9323 97.1104C52.2123 99.5103 52.4924 101.921 52.8024 104.311C53.2124 107.39 53.5629 110.2 53.8229 113.28C55.5328 113.32 56.9931 113.551 58.4431 114.411C60.8629 115.841 63.303 117.261 65.7429 118.681C69.0628 120.611 72.493 122.61 75.8229 124.61C79.0629 126.56 81.0431 129.87 82.9431 133.07C83.233 133.56 83.5223 134.051 83.8122 134.521C84.3422 135.391 84.9131 136.25 85.4831 137.11C88.3231 141.42 91.2726 145.891 89.9226 151.461C88.6125 157.161 85.7623 159.331 81.2224 162.23L80.7624 162.521C79.5125 163.31 78.2226 164.121 76.8327 164.601C76.1727 164.851 75.1627 165.001 74.1228 165.001C72.9328 165.001 71.7224 164.801 71.0124 164.301C67.2925 161.711 63.7529 158.731 60.3229 155.851C58.013 153.911 55.6127 151.901 53.2028 150.041C51.2729 148.551 48.5031 146.341 46.6931 144.341C45.4831 143.031 44.4723 141.55 43.6823 139.94C42.0225 136.501 40.733 131.951 39.4831 127.541C38.5631 124.271 37.6823 121.191 36.6823 118.551C35.8223 116.301 35.6527 108.92 35.5427 104.03C35.5127 102.86 35.4926 101.871 35.4626 101.181L35.0729 90.4805C34.853 85.1106 34.6828 80.871 41.6726 78.8311L41.7829 78.8105ZM42.3825 81.8105C40.4225 82.2906 38.1122 83.4412 38.0622 86.2012C38.0122 88.861 38.1424 91.6109 38.2624 94.2607C38.3324 95.6207 38.4031 96.9811 38.4431 98.3311L38.7829 110.32C38.8129 112 38.8827 115.48 39.1726 116.32C40.0726 118.94 40.9227 121.841 41.8327 124.911C43.2927 129.851 44.8027 134.961 46.5427 139.001C47.9529 142.281 54.4623 147.351 58.7722 150.711C59.7021 151.441 60.5424 152.101 61.2224 152.641C63.3523 154.371 65.5123 156.151 67.6423 157.961C67.9623 158.231 68.2928 158.521 68.6228 158.811C71.2228 161.091 73.6824 163.24 77.0124 161.24C77.4624 160.97 77.9225 160.71 78.3825 160.44C81.1425 158.83 83.993 157.17 85.653 154.4C87.1328 151.89 87.5522 148.931 86.8522 146.091C86.2322 143.681 84.3528 140.85 82.7028 138.36C82.0429 137.37 81.4223 136.431 80.8923 135.561C79.1525 132.641 77.873 130.671 77.113 129.721C76.313 128.791 75.7026 128.171 74.7927 127.591C71.5927 125.561 68.2524 123.631 65.0124 121.751C62.8825 120.521 60.7529 119.29 58.653 118.021C56.113 116.491 53.923 115.171 51.403 117.331C50.383 118.201 49.763 119.411 49.653 120.751C49.4831 123.071 50.853 124.481 52.0329 125.251C54.0528 126.581 56.1129 127.871 58.1628 129.171C61.8327 131.481 65.6229 133.871 69.2028 136.421C69.7326 136.801 69.8628 137.331 69.9128 137.751L69.9323 137.891L69.8728 138.021C69.6028 138.631 69.4628 138.751 68.9128 139.081L68.7829 139.141H68.6423C67.9516 139.12 65.0515 137.31 57.2429 132.19C54.4432 130.361 52.0334 128.781 51.2331 128.351C48.3831 126.791 46.663 124.14 46.613 121.28C46.5631 118.4 48.1831 115.741 51.0729 113.931L48.3229 92.4707C48.213 91.6608 48.1527 90.8109 48.0827 89.9609C47.7427 85.6709 47.4525 81.9505 42.3825 81.8105ZM140.142 81.8105C137.343 82.2706 136.093 83.4009 135.693 85.8408C135.003 90.0408 134.523 94.341 134.063 98.501L133.842 100.461C133.673 101.931 133.463 103.49 133.243 105.08C132.813 108.13 132.383 111.28 132.273 114.11C133.683 114.92 135.053 115.941 135.783 117.761C138.523 124.601 133.203 127.761 128.503 130.541C127.443 131.171 126.443 131.761 125.533 132.391C123.163 134.021 115.362 139.341 114.222 139.091L114.083 139.07L113.743 138.771C113.463 138.541 113.402 138.461 113.302 138.091L113.182 137.711L113.262 137.421C113.292 137.271 113.333 137.1 113.403 136.95C113.804 136.13 116.344 134.56 121.173 131.631C125.892 128.781 131.753 125.231 132.863 123.541C133.693 122.281 133.703 120.15 132.903 118.69C132.343 117.661 131.133 116.69 130.023 116.37C129.663 116.27 129.312 116.221 128.972 116.221C127.642 116.221 126.422 116.92 125.142 117.65L124.913 117.78C122.143 119.37 119.342 121.02 116.633 122.62L113.943 124.2C113.403 124.52 112.843 124.84 112.283 125.16C110.663 126.07 108.992 127.011 107.602 128.131C106.652 128.891 105.913 129.871 105.293 130.73C104.763 131.58 104.043 132.68 103.243 133.9C100.623 137.87 97.0424 143.311 96.2224 146.211C95.7925 147.731 95.7523 149.291 96.1022 150.851C97.2222 155.751 100.483 157.781 104.623 160.351C106.333 161.421 108.033 162.35 109.873 161.9C110.573 161.72 111.303 161.371 112.033 160.841C114.053 159.391 116.002 157.7 117.892 156.061C118.992 155.101 120.123 154.12 121.253 153.2C122.533 152.16 123.843 151.131 125.163 150.101C127.863 148.001 130.653 145.821 133.133 143.471C134.402 142.261 135.433 141.001 136.173 139.721C137.873 136.821 138.883 133.271 139.863 129.851C140.203 128.651 140.532 127.471 140.892 126.341C141.202 125.381 141.533 124.401 141.863 123.421C142.743 120.841 143.653 118.18 144.123 115.58C144.643 112.658 145.423 87.0404 144.833 84.8105C144.513 83.6206 143.372 82.8307 142.722 82.4707C142.002 82.0708 141.232 81.8705 140.142 81.8105ZM88.9528 28.6797C96.5527 27.9997 104.013 30.2495 109.963 35.0293C121.733 44.4493 124.543 61.2997 116.503 74.2197C115.693 75.5296 114.743 76.7901 113.843 78C112.784 79.4099 111.693 80.8695 110.803 82.3994C110.413 83.0893 109.933 83.7593 109.473 84.4092C108.853 85.2691 108.223 86.1692 107.783 87.0791C107.053 88.8991 106.733 90.4998 106.413 92.0498C105.893 94.6397 105.393 97.0799 103.033 100.05C103.033 100.58 103.043 101.38 103.063 102.34C103.173 108.129 103.183 113.409 102.073 114.579C100.993 115.709 99.1931 115.669 97.7331 115.649H97.6032C97.4832 117.499 97.003 119.21 94.403 119.42C93.6432 119.43 92.9833 119.46 92.3034 119.5C91.7035 119.54 91.0832 119.569 90.4733 119.569C88.0734 119.569 85.8527 119.02 85.4626 115.63C83.8725 115.64 80.7725 115.389 80.2126 112.239C79.8327 110.149 79.9329 107.819 80.0329 105.569C80.1229 103.569 80.2128 101.499 79.9528 99.6895C77.663 96.7396 77.1928 94.4797 76.7028 92.0898C76.3828 90.5798 76.0631 89.0294 75.2731 87.1094C74.9031 86.1993 73.5826 84.1795 72.7927 82.9795L72.4333 82.4199C71.5234 81.0301 70.6132 79.7198 69.7233 78.46C66.0133 73.15 62.8026 68.5596 62.2126 61.1396C60.8826 44.1596 71.8633 30.8097 88.9333 28.6797H88.9528ZM94.6726 115.729C93.9719 115.52 91.0722 115.519 88.5427 115.649C88.5327 115.859 88.5626 115.97 88.6726 116.21C89.4125 116.83 92.8126 116.77 94.5427 116.47C94.6227 116.19 94.6826 115.959 94.6726 115.729ZM97.5729 108.55C93.043 108.51 87.9029 108.449 83.4929 108.569L83.3532 108.59C83.2734 108.61 83.1039 108.629 83.0534 108.649C82.9534 108.949 83.0426 111.12 83.1726 111.6C83.2525 111.91 83.4526 112.22 83.6325 112.34C84.1125 112.61 87.1329 112.869 98.7829 112.579L99.6628 112.529C99.7226 112.509 99.8026 112.47 99.8229 112.46C100.033 111.43 99.9928 109.929 99.9528 108.729V108.579L97.5729 108.55ZM96.863 101.55C92.3031 101.52 87.5931 101.49 83.1032 101.56L83.113 105.52H99.9431V101.569L96.863 101.55ZM108.973 38.1191C103.783 33.5691 97.1329 31.2599 90.2429 31.6299C90.1531 31.6299 90.0931 31.6393 90.0134 31.6592H89.9528C81.7129 32.4792 75.723 35.4796 71.113 41.0996C66.6431 46.5195 64.4734 53.6293 65.1833 60.6191C65.9033 67.8091 68.7432 71.8695 72.3532 77.0195C73.3132 78.3795 74.303 79.7995 75.3229 81.3594L75.5827 81.7598C77.4227 84.6097 78.7627 86.6596 79.3327 90.2295H79.3435C79.8535 93.3995 80.8533 95.8692 82.6833 98.4492C84.4131 98.5392 86.043 98.5491 87.7429 98.5391L86.7634 78.9893C86.7134 78.0194 86.6833 76.9595 86.6433 75.8896C86.6033 74.2496 86.5428 72.5491 86.4128 71.1191C85.4929 69.9292 84.6431 68.609 83.8132 67.3291L83.6228 67.0293C83.5328 66.8894 83.4231 66.7392 83.3132 66.5693C82.5132 65.4194 81.1929 63.5095 82.3327 62.2695L82.4333 62.1592L82.5827 62.1299C83.7427 61.8399 84.3535 62.6097 84.8435 63.2197V63.2393C87.623 60.9797 88.143 60.9598 90.1228 62.5596C90.5028 62.8696 90.9634 63.2499 91.5534 63.6699L92.4431 63.0195C94.923 60.9396 95.5729 61.0196 97.0329 62.2695C97.3729 62.5495 97.7732 62.89 98.3132 63.25C98.7632 62.77 99.3231 62.1991 99.9431 62.0391L100.053 62.0098L100.353 62.0596C100.693 62.1196 100.803 62.1698 101.023 62.4297L101.273 62.71L101.303 62.8291C101.713 64.2591 100.293 66.2299 98.9128 68.1299C98.093 69.2596 97.2429 70.4392 97.0827 71.1592C96.6627 72.9592 96.6132 74.9997 96.5632 76.9697C96.5332 78.1796 96.5025 79.4393 96.3825 80.6191C96.3225 81.8691 96.2426 83.1397 96.1726 84.4297C95.9126 89.0896 95.6433 93.8994 95.6433 98.5293H95.9226C97.4324 98.5393 98.9927 98.5499 100.503 98.4199C102.683 95.8799 103.103 93.6493 103.583 91.0693C103.893 89.4094 104.213 87.6894 105.043 85.7695C105.283 85.2095 106.063 84.0696 107.063 82.6396C107.393 82.1798 107.673 81.77 107.853 81.5C108.843 80 109.803 78.6191 110.723 77.2891C115.423 70.5393 118.823 65.6591 118.073 55.8594C117.573 49.2194 114.253 42.7591 108.973 38.1191ZM87.9431 64.6592C87.4231 65.0592 86.9626 65.4098 86.4226 65.7598C87.9826 68.0298 89.033 69.6796 89.113 70.3496L89.1032 70.3594C89.7632 76.3494 90.0231 82.5395 90.2731 88.5195C90.3731 90.9395 90.4735 93.35 90.5935 95.75C90.6434 96.7296 90.6733 97.6693 90.6833 98.5391H92.7429C92.8128 97.1393 92.863 95.7296 92.863 94.3398C93.013 88.9099 93.2229 83.4197 93.4929 78.0098C93.5129 77.6398 93.5334 77.2195 93.5534 76.7695C93.6234 74.6796 93.7233 72.0797 94.1433 70.4697C94.3433 69.6597 95.0326 68.6093 95.7526 67.4893C96.1226 66.9093 96.5031 66.3196 96.7731 65.8096C96.2833 65.4697 95.7533 65.0996 95.3034 64.7197C94.3034 65.3297 93.3227 66.1092 92.3728 66.8691L91.4929 67.5693L90.9626 67.1094C89.1528 65.5596 88.323 64.9092 87.9431 64.6592ZM124.532 55.21C127.912 54.98 130.083 55.0798 131.173 55.5098C131.752 55.7398 131.862 56.2603 131.932 56.5703L131.963 56.7002L131.932 56.8701C131.732 57.5101 131.622 57.6303 131.152 58.0303L131.022 58.1504H130.842C130.602 58.1604 130.292 58.19 129.942 58.21C129.212 58.26 128.362 58.3203 127.512 58.3203C125.802 58.3203 124.132 58.0702 123.652 56.9902L123.602 56.8701V56.75C123.652 56.1201 123.802 55.9 124.102 55.5L124.302 55.2305L124.532 55.21ZM52.8728 55.1602C55.8128 54.9402 58.5232 54.8599 59.3132 56.1299L59.3825 56.3398C59.4425 56.9598 59.3433 57.24 59.1833 57.6699L59.0124 58.1299H58.6833C58.4633 58.1399 58.1629 58.1595 57.8229 58.1895C56.833 58.2595 55.8729 58.3096 54.9929 58.3096C53.323 58.3096 51.9831 58.0998 51.4431 57.3799L51.3728 57.2598C51.1628 56.6898 51.3131 56.1995 51.4431 55.7695L51.5925 55.2197H51.9528C52.1928 55.2097 52.5128 55.1802 52.8728 55.1602ZM53.6823 35.8506C54.8523 35.9606 62.872 39.4301 63.5925 40.6602L63.6628 40.7705V40.9004C63.6728 41.5503 63.4123 41.8805 63.1423 42.2305L62.862 42.6104L62.5729 42.5703C61.3529 42.4303 53.3323 39.15 52.6423 37.79L52.5925 37.6602V37.5303C52.6425 36.8803 52.842 36.6 53.112 36.21L53.3923 35.8203L53.6823 35.8506ZM129.163 35.8994C129.703 36.0694 129.833 36.16 130.233 36.5L130.342 36.5898L130.453 36.8398C130.543 37.0899 130.713 37.5398 130.373 37.9297C129.102 39.3697 122.833 41.98 121.443 42.46L121.283 42.4795C121.153 42.4795 121.053 42.4892 120.983 42.4893C120.923 42.4993 120.883 42.5 120.833 42.5C120.523 42.5 120.403 42.4195 120.063 42.1797L119.953 42.0996L119.883 41.9697C119.623 41.3799 119.603 41.2297 119.703 40.5801V40.4492L119.783 40.3398C120.523 39.3898 128.013 36.1992 128.853 35.9092L129.013 35.8496L129.163 35.8994ZM113.323 23.5195L113.043 23.9297L113.383 23.5596C113.802 23.8395 114.192 24.1195 114.342 24.4795C115.082 26.3394 111.623 30.4484 110.493 31.0391L110.262 31.1592L109.892 30.959C109.432 30.7191 109.212 30.599 108.772 30.1191L108.633 29.9795V29.7793C108.653 28.6094 112.242 24.0704 112.673 23.5996L112.963 23.2793L113.323 23.5195ZM69.6726 23.5791C71.4325 23.7995 73.9319 28.0792 74.2819 29.4092C74.4519 30.0492 73.9818 30.4993 73.7019 30.7793L73.402 31.0791L73.1423 31.0391C72.5924 30.9591 72.0222 30.8293 71.6022 30.2295C71.3522 29.8795 71.0719 29.5091 70.7819 29.1191C69.912 27.9692 68.9123 26.6687 68.4724 25.4287L68.4421 25.2695C68.4321 24.6496 68.7825 24.2494 69.0925 23.8994L69.4118 23.5391L69.6726 23.5791ZM91.3728 19C91.7427 19.01 92.0726 19.0499 92.4226 19.0898L92.6921 19.1201L92.8825 19.2598C93.1925 19.4598 93.5625 19.7204 93.5925 20.4004L93.6228 20.9102C93.7427 23.0301 93.8024 25.1905 93.0524 26.2305L92.903 26.4404H92.5329C92.0929 26.4404 91.8724 26.3795 91.5124 26.2695L91.2126 26.1396C90.023 25.1295 90.3024 20.2516 90.9421 19.2305L91.0925 19H91.3728Z" fill="white"/>
</svg>
