<svg width="54" height="45" viewBox="0 0 54 45" fill="none" xmlns="http://www.w3.org/2000/svg">
<path d="M8.55665 35.921C7.76593 35.4691 7.13054 34.8513 6.65046 34.0673C6.17039 33.2839 5.93035 32.4051 5.93035 31.4309V19.2313L1.35551 16.6897C0.903672 16.4073 0.564795 16.0817 0.338877 15.7129C0.112959 15.3446 0 14.9352 0 14.4845C0 14.0343 0.112959 13.6257 0.338877 13.2586C0.564795 12.8915 0.903672 12.5667 1.35551 12.2843L22.8115 0.572703C23.1922 0.36034 23.5861 0.211798 23.9933 0.127079C24.4 0.0423596 24.8177 0 25.2463 0C25.675 0 26.0927 0.0423596 26.4993 0.127079C26.9066 0.211798 27.3016 0.359491 27.6846 0.570159L52.0176 13.7245C52.4695 14.0069 52.8083 14.3449 53.0343 14.7386C53.2602 15.1317 53.3731 15.5562 53.3731 16.0119V33.2947C53.3731 33.6307 53.2591 33.9126 53.0309 34.1402C52.8033 34.3672 52.5209 34.4807 52.1837 34.4807C51.8471 34.4807 51.5658 34.3672 51.3399 34.1402C51.114 33.9126 51.001 33.6307 51.001 33.2947V15.8425L44.5623 19.2313V31.4309C44.5623 32.4051 44.3223 33.2839 43.8422 34.0673C43.3622 34.8513 42.7268 35.4691 41.936 35.921L27.7032 43.6304C27.3078 43.8564 26.9066 44.0117 26.4993 44.0964C26.0927 44.1811 25.675 44.2235 25.2463 44.2235C24.8177 44.2235 24.4 44.1811 23.9933 44.0964C23.5861 44.0117 23.1848 43.8564 22.7895 43.6304L8.55665 35.921ZM24.2297 26.5171C24.6251 26.7431 24.9781 26.856 25.2887 26.856C25.5993 26.856 25.9523 26.7431 26.3477 26.5171L48.3747 14.487L26.3477 2.54158C25.9523 2.31566 25.5993 2.2027 25.2887 2.2027C24.9781 2.2027 24.6251 2.31566 24.2297 2.54158L2.11798 14.487L24.2297 26.5171ZM24.145 41.6819C24.5404 41.9078 24.9075 42.0208 25.2463 42.0208C25.5852 42.0208 25.9523 41.9078 26.3477 41.6819L40.9194 33.803C41.3712 33.5206 41.696 33.1958 41.8937 32.8287C42.0914 32.4616 42.1902 31.9957 42.1902 31.4309V20.5868L27.7032 28.4657C27.3078 28.6916 26.9125 28.8469 26.5171 28.9316C26.1218 29.0164 25.6982 29.0587 25.2463 29.0587C24.7945 29.0587 24.3709 29.0164 23.9756 28.9316C23.5802 28.8469 23.1848 28.6916 22.7895 28.4657L8.30249 20.5868V31.4309C8.30249 31.8827 8.40133 32.3204 8.59901 32.744C8.79669 33.1676 9.12144 33.5206 9.57328 33.803L24.145 41.6819Z" fill="#0D0400"/>
</svg>
