<svg width="75" height="61" viewBox="0 0 75 61" fill="none" xmlns="http://www.w3.org/2000/svg">
<path d="M38.4629 0C45.7147 7.76693e-05 52.3907 2.54144 57.6094 6.77734V3.38867C57.6094 2.74494 58.1512 2.20327 58.7949 2.20312C67.504 2.20312 74.5868 9.28511 74.5869 17.9941V39.9199C74.5868 40.5637 74.0781 41.1055 73.4004 41.1055H59.9814V59.4053C59.9814 60.0491 59.4388 60.5908 58.7949 60.5908C58.1512 60.5907 57.6094 60.049 57.6094 59.4053V54.2207C52.3907 58.4566 45.7147 60.998 38.4629 60.998C27.2461 60.998 17.4183 54.8976 12.1318 45.8496V57.6094C12.1317 58.2531 11.623 58.7949 10.9453 58.7949C10.2678 58.7947 9.72573 58.253 9.72559 57.6094V27.1104C9.21742 27.0765 8.70934 26.9744 8.20117 26.8389C3.49094 25.6867 0.00023457 21.6884 0 16.9443V3.38867C5.59453e-05 2.74485 0.54269 2.20312 1.18652 2.20312C1.83016 2.20338 2.37201 2.745 2.37207 3.38867V16.9443C2.3723 20.5023 4.98199 23.5183 8.54004 24.501C9.28547 24.7042 10.0989 24.8057 10.9121 24.8057H10.9453C15.6555 24.8057 19.4851 21.2817 19.4854 16.9443V3.38867C19.4854 2.74485 20.028 2.20312 20.6719 2.20312C21.3155 2.20333 21.8574 2.74497 21.8574 3.38867V4.94727C26.6356 1.82961 32.3292 0 38.4629 0ZM38.4629 2.37207C32.2614 2.37207 26.5 4.40547 21.8574 7.82812V16.9443C21.8572 22.1967 17.5876 26.5682 12.1318 27.1104V40.4277C16.1645 51.0685 26.4328 58.626 38.4629 58.626C45.8503 58.6259 52.5602 55.7787 57.6094 51.0684V9.92871C52.5602 5.21842 45.8503 2.37216 38.4629 2.37207ZM38.4609 16.9434C45.95 16.9434 52.0164 23.009 52.0166 30.498C52.0166 37.9872 45.9501 44.0537 38.4609 44.0537C30.9719 44.0535 24.9062 37.9871 24.9062 30.498C24.9065 23.0092 30.9721 16.9436 38.4609 16.9434ZM38.4609 19.3154C32.2937 19.3156 27.2785 24.3308 27.2783 30.498C27.2783 36.6655 32.2936 41.6814 38.4609 41.6816C44.6285 41.6816 49.6445 36.6656 49.6445 30.498C49.6443 24.3307 44.6284 19.3154 38.4609 19.3154ZM59.9814 38.7334H72.2148V17.9941C72.2147 11.0134 66.8266 5.21875 59.9814 4.64258V38.7334ZM10.9131 2.20215C11.5568 2.2024 12.0986 2.74496 12.0986 3.38867V12.4365C12.0985 13.0801 11.5567 13.6218 10.9131 13.6221C10.2693 13.6221 9.72672 13.0803 9.72656 12.4365V3.38867C9.72656 2.74481 10.2692 2.20215 10.9131 2.20215Z" fill="#0D0400"/>
</svg>
