<svg width="59" height="52" viewBox="0 0 59 52" fill="none" xmlns="http://www.w3.org/2000/svg">
<path d="M44.7314 0C48.7413 0 52.1163 1.36939 54.8555 4.1084C57.5946 6.84756 58.9647 10.2226 58.9648 14.2324C58.9648 16.3786 58.5553 18.5257 57.7363 20.6719C56.9174 22.818 55.4765 25.2324 53.415 27.915C51.3536 30.5977 48.5443 33.7184 44.9863 37.2764C41.4281 40.8346 36.8807 45.1276 31.3457 50.1543L29.4824 51.8486L27.6182 50.1543C22.1397 45.1277 17.6079 40.8345 14.0215 37.2764C10.435 33.7182 7.61033 30.5978 5.54883 27.915C3.48749 25.2325 2.04748 22.818 1.22852 20.6719C0.409563 18.5257 0 16.3786 0 14.2324C9.51909e-05 10.2226 1.36924 6.84756 4.1084 4.1084C6.84756 1.36924 10.2226 9.49071e-05 14.2324 0C17.2258 0 20.0221 0.804456 22.6201 2.41406C25.2181 4.0237 27.5057 6.38198 29.4824 9.48828C31.4592 6.38203 33.7467 4.02369 36.3447 2.41406C38.9426 0.804583 41.7383 5.9762e-05 44.7314 0ZM44.7314 2.37207C42.0206 2.37213 39.5217 3.14906 37.2344 4.70215C34.947 6.25534 32.7577 8.69798 30.668 12.0303H28.2959C26.1497 8.64156 23.9476 6.18412 21.6885 4.65918C19.4293 3.13423 16.9434 2.37207 14.2324 2.37207C10.9005 2.37216 8.09098 3.50186 5.80371 5.76074C3.51638 8.01983 2.37216 10.8438 2.37207 14.2324C2.37207 16.1527 2.76792 18.1014 3.55859 20.0781C4.3493 22.0549 5.76071 24.3286 7.79395 26.8984C9.82717 29.4682 12.5951 32.4895 16.0967 35.9629C19.5984 39.4364 24.0604 43.6587 29.4824 48.6289C34.9044 43.7152 39.3664 39.5076 42.8682 36.0059C46.3699 32.5041 49.1376 29.4683 51.1709 26.8984C53.2041 24.3287 54.6156 22.0549 55.4062 20.0781C56.1969 18.1014 56.5928 16.1526 56.5928 14.2324C56.5927 10.8439 55.4631 8.01981 53.2041 5.76074C50.9449 3.50156 48.1202 2.37207 44.7314 2.37207ZM32.3906 15.0801C33.5136 15.0801 34.4238 15.9903 34.4238 17.1133V22.3418H39.6533C40.7763 22.3418 41.6865 23.2521 41.6865 24.375V30.1846C41.6865 31.3075 40.7763 32.2178 39.6533 32.2178H34.4238V37.4463C34.4238 38.5692 33.5136 39.4795 32.3906 39.4795H26.5811C25.4581 39.4795 24.5479 38.5692 24.5479 37.4463V32.2178H19.3203C18.1974 32.2178 17.2871 31.3075 17.2871 30.1846V24.375C17.2871 23.2521 18.1974 22.3418 19.3203 22.3418H24.5479V17.1133C24.5479 15.9903 25.4581 15.0801 26.5811 15.0801H32.3906ZM26.5811 24.375H19.3203V30.1846H26.5811V37.4463H32.3906V30.1846H39.6533V24.375H32.3906V17.1133H26.5811V24.375Z" fill="#0D0400"/>
</svg>
