<svg width="184" height="184" viewBox="0 0 184 184" fill="none" xmlns="http://www.w3.org/2000/svg">
<path d="M84.736 129.1C83.146 125.83 79.516 123.43 75.826 123.63C73.146 123.77 70.106 125.45 67.646 126.59C66.956 126.26 66.496 125.94 65.866 125.52C66.936 123.13 67.986 120.73 69.016 118.33C72.156 116.87 75.966 115.39 79.216 114.03C80.756 115.11 82.266 116.39 83.866 117.49C85.606 118.73 86.956 119.29 89.296 118.82C91.196 118.63 98.006 115.83 97.686 113.6C97.546 112.61 90.736 106.61 89.696 105.74C87.876 104.22 85.116 101.23 83.276 100.18C81.556 100.37 74.106 102.56 72.406 103.26C73.456 101.76 75.656 97.7604 76.536 96.1004C81.216 93.8704 87.746 93.1404 90.346 88.2104C91.346 86.3004 92.536 80.6004 90.286 79.4804C88.586 79.3804 71.876 83.2104 69.956 83.8704C68.866 85.0404 66.806 88.0204 65.756 89.4604L57.826 100.23C56.056 99.9104 53.026 100.12 51.666 101.35C47.516 105.08 43.836 109.55 39.916 113.49C35.466 117.95 34.456 120.12 36.036 126.39C33.046 127.45 30.276 130.06 29.366 133.11C28.546 136.21 25.916 137.61 23.796 139.76C22.826 140.83 19.986 142.53 21.376 144.24C22.786 145.95 24.806 143.57 25.886 142.59C26.876 141.68 27.876 140.68 28.826 139.72C29.766 145.94 35.646 149.49 41.666 148.9C40.946 150.76 37.576 161.88 37.006 162.5H40.946C40.896 161.61 45.066 149.4 45.686 147.59C48.446 145.87 49.616 144.29 51.056 141.48C53.726 140.32 59.516 138.53 61.736 137.35C63.096 138.01 64.616 138.62 66.016 139.21C71.636 137.27 77.206 134.62 82.786 132.53C84.416 131.92 85.666 131.03 84.736 129.1ZM82.206 103.83C82.826 103.89 91.916 112.48 93.286 113.59C90.876 114.96 89.816 115.47 86.986 115.38C85.026 114.34 80.786 110.35 79.206 110.45C78.026 110.77 69.666 114.19 68.556 114.88C68.036 113.98 67.656 113.47 67.156 112.47C67.736 111.28 69.286 108.61 70.046 107.55C73.006 106.34 78.776 104.94 82.206 103.83ZM61.736 100.65C65.226 96.1004 68.476 91.3604 71.976 86.8204C75.386 86.1004 78.796 85.3404 82.196 84.5604C83.906 84.1704 86.056 83.5904 87.756 83.3704L87.976 83.4904C87.976 89.7004 82.006 90.0304 77.466 91.9304C76.536 92.3204 74.906 92.8004 74.256 93.6104C73.006 95.1904 71.746 97.6204 70.736 99.3904C68.886 102.6 66.946 105.83 65.186 109.06C64.856 108.38 64.336 107.48 63.956 106.79C62.936 105.02 61.966 103.35 61.016 101.54C61.276 101.25 61.506 100.95 61.736 100.65ZM41.006 145.44C36.506 145.91 32.476 142.64 32.026 138.13C31.566 133.63 34.876 129.61 39.376 129.19C43.846 128.77 47.826 132.03 48.266 136.5C48.716 140.97 45.476 144.96 41.006 145.44ZM53.186 136.99C51.396 137.69 51.906 137.25 51.716 135.78C50.906 129.48 45.566 125.34 39.276 125.61C39.126 124.2 38.336 120.73 39.236 119.6C43.456 114.28 48.556 109.39 53.296 104.5C53.756 104.03 54.376 103.76 54.996 103.57C56.086 103.46 57.106 103.5 58.196 103.51C58.506 104.19 58.906 104.93 59.296 105.57C61.546 109.31 63.526 113.44 65.876 117.09C64.886 119.12 63.726 121.88 62.906 123.99C61.516 123.41 60.056 123.28 58.596 123.67C56.946 124.11 55.556 125.2 54.726 126.68C53.156 129.53 54.066 133.3 56.836 135.01C57.076 135.16 57.066 135.08 57.216 135.35C56.576 135.82 54.086 136.67 53.186 136.99ZM77.416 131C73.656 132.47 69.906 133.99 66.186 135.56C64.026 134.62 61.836 133.68 59.696 132.7C58.756 132.24 57.786 131.52 57.486 130.47C56.926 128.55 58.066 127.36 59.826 126.8C61.216 126.77 65.486 129.5 67.236 130.25C72.956 128.96 75.376 124.28 81.106 129.45C79.886 129.98 78.656 130.49 77.416 131Z" fill="white"/>
<path d="M39.9861 135.489C37.0761 136.549 37.7161 139.269 40.4661 139.079C43.2961 137.799 42.5361 135.389 39.9861 135.489Z" fill="white"/>
<path d="M162.696 40.22C161.226 39.79 150.386 43.4 150.286 44.17C149.866 47.47 151.666 52.61 151.676 56.13C151.576 60.13 151.736 65.46 151.156 69.22C150.946 70.52 148.826 75.76 148.296 77.05C142.746 71.29 146.206 66.53 144.826 60.04C144.646 59.2 140.216 52.42 139.486 51.66C137.746 51.75 136.066 52.12 134.486 52.26C132.136 52.47 126.906 52.72 124.646 52.38C123.186 53.06 112.716 59.89 111.536 61.14C109.276 63.52 105.186 72.95 101.916 74.83C100.016 75.92 97.9762 75.52 96.0762 74.83C98.9662 69.69 102.796 64.22 105.876 59.07C107.106 57.02 110.286 51.84 111.556 50.22C112.216 49.38 118.246 44.85 119.446 43.91L126.706 38.25C127.826 37.39 129.346 36.07 130.576 35.31C136.716 31.49 143.176 28 149.276 24.15C150.456 23.41 150.386 21.05 148.276 21C147.156 21.35 140.396 25.42 138.846 26.4C135.816 28.31 131.446 30.57 128.586 32.56C124.846 35.18 120.806 38.61 117.056 41.43C114.496 43.35 111.256 45.82 108.906 47.96C108.416 48.4 106.606 51.38 106.106 52.19L101.486 59.61L95.4662 69.21C94.9362 70.06 91.4562 75.17 91.9962 75.86C94.1262 78.58 99.1762 79.84 102.396 78.36C106.176 76.75 107.106 74.61 108.956 71.59L112.026 66.58C114.026 63.32 114.556 62.85 117.776 60.78C119.976 59.37 123.036 57.56 125.056 55.96C124.226 57.87 122.646 61.75 122.066 63.71C123.906 68.93 126.376 74.14 128.346 79.34C128.746 80.39 129.046 80.72 129.996 81.32C132.616 80.46 135.016 78.45 136.336 76.01C138.406 72.18 136.086 66.86 134.906 62.75C135.806 60.14 136.736 57.54 137.696 54.95C138.936 57.06 140.346 59.03 141.586 61.08C141.486 68.09 140.276 78.77 149.276 80.85C151.336 81.32 153.286 72.67 154.126 71.14C154.896 69.74 154.796 66.25 154.816 64.55C154.876 62.32 155.196 58.23 155.086 56.2C154.906 53.16 154.086 49.17 153.746 45.98C156.676 45.33 160.706 44.08 163.286 42.65C163.856 42.33 163.286 40.39 162.696 40.22ZM132.256 76.01L131.146 76.95C129.976 74.16 128.836 71.36 127.716 68.55C127.336 67.59 126.186 64.52 125.676 63.83C126.626 61.25 127.756 58.61 128.586 56.01L133.826 55.94C133.006 58.01 132.226 60.6 131.326 62.54C132.126 65.43 133.366 68.66 133.836 71.56C134.136 73.41 133.366 74.66 132.256 76.01Z" fill="white"/>
<path d="M42.1757 100.72C43.9357 97.8798 43.9257 96.2998 42.5257 93.2998C43.7257 92.3398 45.6057 90.3298 46.7857 89.1398C49.3857 86.5098 51.9957 83.8998 54.6257 81.3098C55.8457 82.5498 59.5257 86.9398 61.2357 86.9798C61.6757 86.9898 62.0757 86.8398 62.3857 86.5298C62.6957 86.2198 62.8457 85.8198 62.8257 85.3798C62.7657 83.9698 57.3757 79.0398 56.1057 77.9298C55.6157 77.4998 55.2057 77.1998 54.5457 77.0898C52.0057 78.1098 45.4957 86.0998 42.9557 88.1298C42.4857 88.4998 40.5857 90.5298 40.1757 91.0598C36.7557 89.4198 32.6657 90.3898 31.0157 93.9998C30.2457 95.6498 30.1857 97.5498 30.8557 99.2398C32.7457 104.05 38.8157 104.71 42.1757 100.72ZM35.8957 93.7998C37.5157 93.2298 39.2857 94.0798 39.8657 95.6998C40.4357 97.3098 39.5957 99.0898 37.9857 99.6698C36.3557 100.25 34.5757 99.3998 33.9957 97.7798C33.4157 96.1498 34.2757 94.3698 35.8957 93.7998Z" fill="white"/>
<path d="M119.466 128.48C118.816 128.01 118.156 127.75 117.416 127.47C117.446 123.72 117.546 119.18 117.376 115.48C116.436 114.31 115.336 113.21 114.236 112.15C111.856 109.85 109.606 107.31 107.096 105.16C106.856 104.95 106.336 104.88 106.026 104.84C105.456 105.01 105.076 105.15 104.766 105.7C104.546 106.1 104.546 106.55 104.676 106.99C105.136 108.49 112.306 115.02 113.916 116.73V127.58C110.396 128.41 108.436 132.02 109.336 135.47C109.776 137.13 110.846 138.54 112.326 139.41C113.656 140.2 114.696 140.28 116.166 140.28C120.026 139.77 122.736 136.78 122.146 132.8C121.866 131.06 120.896 129.5 119.466 128.48ZM116.166 136.86C114.746 137.11 113.346 136.34 112.776 135.01C112.216 133.68 112.636 132.14 113.796 131.28C114.176 131.01 114.616 130.82 115.086 130.73C116.776 130.42 118.406 131.55 118.706 133.25C119.016 134.95 117.876 136.57 116.166 136.86Z" fill="white"/>
<path d="M75.0556 36.7508C75.4356 36.9408 75.9656 37.1308 76.3856 37.2708C76.3756 40.9308 76.2256 45.8108 76.4356 49.3708C77.6356 50.7608 86.3056 59.8308 87.3956 59.9108C87.8756 59.9408 88.3056 59.7408 88.7456 59.5608C89.0556 59.0208 89.3656 58.4908 89.2056 57.8508C88.9356 56.7808 81.2956 49.4808 79.9256 48.1808C79.9156 44.6408 79.9856 40.7708 79.8756 37.2508C81.6856 36.7208 83.0056 35.7408 83.9156 34.0508C84.7356 32.5408 84.9156 30.7608 84.4056 29.1208C83.8956 27.4408 82.7356 26.0408 81.1856 25.2108C79.7956 24.4808 78.5556 24.3408 77.0356 24.5008C73.1656 25.5608 70.6456 28.8708 71.8756 32.9208C72.3856 34.5608 73.5256 35.9408 75.0556 36.7508ZM77.3056 27.9908C78.2356 27.7308 79.2256 27.9208 79.9956 28.5008C80.7456 29.0708 81.2056 29.9608 81.2256 30.9108C81.2556 32.3608 80.2856 33.6308 78.8756 33.9908C77.2256 34.4008 75.5556 33.4108 75.1256 31.7708C74.6856 30.1208 75.6656 28.4308 77.3056 27.9908Z" fill="white"/>
<path d="M41.5256 70.53C42.9856 71.48 44.7256 71.86 46.4456 71.5C48.2056 71.1 49.7356 70.01 50.6756 68.47C51.0256 67.91 51.2556 67.39 51.5156 66.78C55.0756 66.83 58.6756 66.75 62.2156 66.82L67.8956 72.5C68.9356 73.58 70.9856 76.22 72.5156 76.22C72.9056 76.22 73.2156 76.06 73.4756 75.78C73.7856 75.44 74.0756 74.87 74.0356 74.4C73.9356 73.23 64.9456 64.64 63.5656 63.37C59.5056 63.33 55.4556 63.32 51.4056 63.33C50.9556 61.68 49.8656 60.27 48.3856 59.42C47.0056 58.61 45.7356 58.51 44.1856 58.61C40.4956 59.32 37.9356 62.58 38.6656 66.35C39.0156 68.07 40.0456 69.58 41.5256 70.53ZM42.1556 64.19C42.4756 63.09 43.3656 62.26 44.4756 62.01C46.1256 61.65 47.7556 62.67 48.1556 64.31C48.5456 65.95 47.5656 67.6 45.9356 68.04C44.8756 68.32 43.7456 68.02 42.9656 67.25C42.1556 66.46 41.8456 65.28 42.1556 64.19Z" fill="white"/>
<path d="M142.596 97.37C142.536 97.55 142.476 97.73 142.426 97.92C138.786 97.91 135.146 97.92 131.506 97.95C130.296 96.33 122.856 88.76 121.356 88.5C120.016 89.01 118.936 90.07 120.276 91.41C123.506 94.65 126.686 98.18 130.226 101.16C130.676 101.55 141.666 101.36 142.426 101.36C144.136 107.3 151.666 107.97 154.596 102.45C157.976 92.8 144.976 89.98 142.596 97.37ZM150.996 101.73C150.616 102.16 150.116 102.48 149.566 102.65C147.916 103.14 146.186 102.21 145.686 100.57C145.196 98.92 146.126 97.19 147.766 96.69C149.096 96.29 150.536 96.82 151.286 97.99C152.036 99.16 151.916 100.69 150.996 101.73Z" fill="white"/>
<path d="M103.786 120.13C101.686 121.65 92.7958 134.03 90.5958 136.9C89.0958 136.1 87.6158 135.97 85.9858 136.49C84.3158 137.02 82.9358 138.2 82.1458 139.76C80.4158 143.18 81.8258 146.88 85.1258 148.68C87.1558 149.41 88.5958 149.65 90.6958 148.68C92.3358 147.91 93.5858 146.52 94.1758 144.82C94.9258 142.65 94.4358 140.81 93.2158 138.96C97.4558 134.1 101.256 128.2 105.306 123.12C106.586 121.51 105.406 120.08 103.786 120.13ZM90.0258 145.05C89.6158 145.43 89.1158 145.69 88.5658 145.81C86.9058 146.16 85.2658 145.12 84.8858 143.46C84.4958 141.8 85.5158 140.15 87.1758 139.74C88.5558 139.4 89.9858 140.04 90.6558 141.29C91.3358 142.54 91.0758 144.09 90.0258 145.05Z" fill="white"/>
<path d="M94.7357 49.5397C95.2857 49.9197 95.9657 50.1697 96.6257 50.0197C97.0057 49.9397 97.3357 49.7097 97.5257 49.3797C97.7757 48.9497 97.7757 48.3497 97.6157 47.8797C97.5657 47.7497 97.5157 47.6297 97.4457 47.5097C96.5357 46.4897 95.5657 45.5197 94.5357 44.6097C95.5457 43.7297 96.5957 42.6697 97.5357 41.6997C99.5757 39.5897 101.796 37.5497 103.786 35.3997C105.746 36.3197 107.346 36.8097 109.516 36.0197C111.136 35.4197 112.456 34.1997 113.186 32.6297C113.926 31.0197 113.986 29.1797 113.376 27.5097C112.356 24.7897 109.776 23.1597 106.896 23.3697C104.846 23.6197 103.366 24.2497 102.066 25.9197C100.946 27.3497 100.526 29.0697 100.786 30.8497C100.886 31.5797 101.566 32.6897 101.126 33.2797C99.6257 35.3097 90.3057 43.0497 90.5557 44.7397C90.7157 45.8597 93.7857 48.8897 94.7357 49.5397ZM104.206 29.1597C104.446 28.0597 105.256 27.1797 106.336 26.8497C107.966 26.3497 109.696 27.2497 110.216 28.8797C110.746 30.4997 109.856 32.2497 108.236 32.7897C107.166 33.1397 105.996 32.8997 105.166 32.1397C104.326 31.3897 103.966 30.2497 104.206 29.1597Z" fill="white"/>
<path d="M51.2656 46.2303C53.2056 47.5203 55.8256 47.5403 57.8856 46.5003C59.8756 48.6403 62.1256 50.8003 64.1956 52.8803C64.7456 53.4203 65.2856 54.0703 66.0956 54.0903C66.5556 54.1103 67.0056 53.9203 67.3256 53.5803C67.7056 53.1803 67.8956 52.4203 67.5956 51.9103C65.9356 49.0803 62.8156 46.8703 60.5956 44.4103C60.5156 44.3103 60.3556 44.2003 60.2656 44.1303C61.2056 42.8403 61.5756 41.3603 61.3356 39.7803C61.0556 38.0203 60.0856 36.4403 58.6456 35.4003C57.1556 34.3203 55.7756 34.0503 53.9956 34.1903C50.1456 34.9203 47.6456 38.0203 48.4056 41.9803C48.7556 43.7203 49.7856 45.2503 51.2656 46.2303ZM54.6856 37.5903C56.4056 37.5403 57.8356 38.8903 57.8956 40.6003C57.9456 42.3203 56.6056 43.7603 54.8856 43.8103C53.1656 43.8703 51.7256 42.5203 51.6756 40.8003C51.6156 39.0803 52.9656 37.6403 54.6856 37.5903Z" fill="white"/>
<path d="M139.206 117.56C137.946 117.53 136.966 117.81 135.816 118.29C134.586 116.7 128.976 110.53 127.096 110.74C125.196 112.01 126.176 113.46 127.486 114.7C129.466 116.59 131.376 118.76 133.456 120.53C132.516 122.31 132.106 123.92 132.706 125.94C133.226 127.65 134.406 129.08 135.986 129.91C138.426 131.19 140.736 130.77 142.946 129.29C145.936 126.62 146.596 122.7 143.746 119.63C142.576 118.36 140.936 117.61 139.206 117.56ZM139.876 127.04C138.806 127.38 137.636 127.11 136.826 126.34C136.006 125.57 135.666 124.42 135.936 123.33C136.206 122.24 137.046 121.38 138.136 121.09C139.076 120.83 140.086 121.03 140.856 121.63C141.626 122.23 142.066 123.15 142.056 124.13C142.036 125.47 141.156 126.64 139.876 127.04Z" fill="white"/>
<path d="M112.816 95.5892C112.596 95.5392 112.376 95.5193 112.146 95.5493C111.616 95.8693 111.026 96.1992 110.856 96.8492C110.746 97.2692 110.766 97.5793 111.006 97.9393C111.796 99.1693 120.696 108.139 121.606 108.289C121.786 108.319 121.986 108.289 122.166 108.289C122.726 107.989 123.286 107.729 123.506 107.079C123.626 106.709 123.566 106.219 123.396 105.869C122.866 104.829 113.686 95.7992 112.836 95.5992L112.816 95.5892Z" fill="white"/>
<path d="M80.8959 69.1403C81.1859 69.2003 81.5159 69.1703 81.7959 69.1403C82.3359 68.8303 82.7659 68.5803 82.9559 67.9603C83.2459 67.0303 82.4859 66.2703 81.8859 65.6703C79.2059 62.9803 76.5159 60.3003 73.8059 57.6403C73.0359 56.8903 72.6159 56.4403 71.4759 56.5603C70.9459 56.8703 70.4459 57.1903 70.2759 57.8203C70.1759 58.1903 70.2159 58.6103 70.4259 58.9303C71.1859 60.0903 80.1159 69.0003 80.8959 69.1503V69.1403Z" fill="white"/>
</svg>
