<svg width="184" height="184" viewBox="0 0 184 184" fill="none" xmlns="http://www.w3.org/2000/svg">
<path d="M141.511 62.2911C141.001 60.5711 140.221 59.2911 139.571 57.7611C137.911 53.8711 134.921 52.1411 132.191 49.3411C129.901 47.0011 128.321 43.9211 125.001 42.4711C120.541 40.0711 116.431 40.2711 111.531 40.3111C111.531 38.4511 111.761 31.5711 111.151 30.3811C109.991 29.8411 96.3913 30.0411 94.1213 30.0411H47.9613C45.1613 30.0411 40.9513 29.9211 38.2713 30.0911C37.9313 30.1911 37.4913 30.2511 37.4213 30.5711C36.9013 32.9211 37.1613 37.9611 37.1813 40.3111C30.9413 40.2911 24.9813 40.2311 20.3213 44.9711C15.1313 50.2611 13.9713 54.2711 14.0813 61.4411C14.2513 73.3211 13.9013 85.2111 14.1213 97.0611C12.4113 97.0611 10.8813 97.0011 9.1913 97.3011C8.9113 99.0711 9.0213 102.011 9.0213 103.881L9.0413 114.621V125.531C9.0213 127.641 8.9313 130.401 9.1813 132.431C11.3013 132.661 13.7513 132.561 15.9213 132.551L25.5013 132.531C33.3913 132.531 41.2713 132.511 49.1613 132.561C50.3013 132.571 52.5413 132.661 53.5713 132.331C54.1113 131.721 53.9913 130.581 53.9813 129.761C55.6213 129.741 57.9213 129.791 59.4913 129.711V143.071C55.3713 143.011 52.4513 142.181 49.6613 145.811C48.0113 154.991 53.9813 153.881 60.5213 153.871H72.5213H86.6713C89.4013 153.871 94.9613 154.331 97.4213 153.061C97.9213 152.801 98.6813 151.881 98.8613 151.331C99.7813 147.901 99.7213 143.751 95.3013 143.151C93.9713 142.971 92.6413 143.071 91.3013 143.071C90.6413 143.071 89.6913 143.211 89.2413 142.741L89.2213 142.291V129.721C95.6113 129.661 101.991 129.641 108.371 129.651C111.121 129.651 115.671 129.811 118.281 129.561C119.821 129.421 121.341 129.081 122.791 128.561C125.901 127.421 127.661 125.671 129.941 123.361C134.851 118.371 134.631 113.301 134.631 106.841V97.0211C137.641 94.4411 140.521 89.9911 141.501 86.2111C145.011 86.0211 147.971 85.2011 150.431 82.4211C155.141 77.1011 154.711 70.1211 149.591 65.2711C147.291 63.1011 144.531 62.5711 141.511 62.2911ZM124.131 45.1111C126.511 46.6911 128.961 49.2511 130.091 51.9011C129.621 54.1111 129.251 54.9811 128.001 56.8011C127.231 57.8411 126.781 58.2811 125.831 59.1211C124.961 49.3611 119.511 49.1511 111.521 49.1911C111.541 47.1211 111.511 45.0511 111.451 42.9811C115.711 42.9311 120.421 42.6411 124.131 45.1111ZM122.791 60.2411C118.691 61.1711 115.671 60.9811 111.521 60.9311C111.541 57.8711 111.531 54.8211 111.501 51.7611C114.901 51.7111 119.031 51.3311 121.541 54.1411C122.461 55.1711 123.991 59.2911 122.791 60.2411ZM108.901 32.7011V60.9111C105.961 60.9711 101.771 61.1011 98.8813 60.9111C88.9613 60.2411 80.7213 63.5411 80.4813 74.9611C78.3813 74.9311 75.7113 74.7711 73.6113 75.0811C72.5113 75.2511 72.1713 76.0211 72.4713 77.0911C73.4913 77.9911 79.1613 77.6311 80.8813 77.6111C81.6213 79.8811 82.3313 81.8411 84.1213 83.5011C88.5313 87.6011 92.0313 87.6411 97.5613 87.6011C97.1113 90.0611 96.7813 92.5511 96.5813 95.0411C89.2013 95.2611 81.7713 94.9911 74.3913 95.1411C73.0113 95.1711 71.5113 95.6511 72.6213 97.3011C73.5713 98.0111 78.7113 97.7011 80.1813 97.7011L95.6913 97.7411C95.3913 99.7411 95.1213 101.741 94.8913 103.751C94.7813 104.541 94.5413 105.661 95.0413 106.301C96.4813 106.841 101.741 106.821 103.231 106.341C103.941 105.761 106.001 89.6411 106.251 87.5811L108.911 87.6011L108.891 109.351C90.7213 109.551 72.1613 109.351 53.9713 109.351V104.861C57.4713 104.821 64.7713 105.121 67.9413 104.721C68.1513 103.461 68.1113 98.8511 68.0813 97.4011C68.0313 94.7211 68.2213 90.7511 67.9513 88.2211C67.0013 88.0111 65.9013 87.9911 64.9313 88.0011C59.2513 88.0011 53.5713 87.9511 47.8913 88.0111C47.2313 88.0211 46.4613 88.1611 45.8513 88.3611C45.2113 89.1211 45.5213 95.5711 45.5513 97.0711L40.1913 97.0911V32.6911L108.901 32.7011ZM92.3413 63.7211C92.6913 64.5911 92.4513 82.6911 92.4513 84.9511C90.1213 84.5011 88.4013 83.5711 86.6313 82.0411C85.1813 80.4811 84.0413 78.9011 83.4613 76.8111C82.7713 74.2811 83.1213 71.5811 84.4413 69.3111C86.2913 66.0711 88.6613 64.6311 92.1613 63.6711L92.3413 63.7211ZM97.8913 103.981C97.9813 102.301 98.4513 99.6411 98.7113 97.9211L100.171 87.6011C101.311 87.5811 102.441 87.6011 103.571 87.6111C103.231 92.1111 101.951 99.3211 101.281 104.021C100.201 103.971 98.9813 103.991 97.8913 103.981ZM17.3613 55.6111C17.8513 53.0611 18.9713 50.6811 20.6313 48.6911C23.6513 45.0311 26.6713 43.5111 31.3313 43.0411C33.2413 42.9111 35.2613 42.9711 37.1813 42.9911V49.2011C33.0213 49.1711 28.8213 48.7611 25.6113 51.9611C22.8213 54.7411 22.9013 57.7911 22.9213 61.4111C22.9313 64.1111 22.9313 66.8211 22.9313 69.5311V97.0411C21.4713 97.1611 18.6013 97.0911 17.0413 97.1111C17.1513 87.8911 16.9613 78.5611 17.0413 69.3511C17.0713 66.0911 16.8213 58.4811 17.3613 55.6111ZM37.1713 51.7511V97.0711H30.7013L25.5913 97.1011L25.5713 71.0311C25.5713 66.6911 25.4913 62.3411 25.6713 58.0011C25.8313 54.3211 28.9313 52.1711 32.3413 51.7811C33.8713 51.7111 35.5813 51.8011 37.1713 51.7511ZM11.6313 130.011V99.7311C15.9213 99.8411 20.7113 99.7311 25.0313 99.7311H51.4113C51.3513 109.821 51.3613 119.901 51.4313 129.981C38.1613 130.091 24.8913 130.091 11.6313 130.011ZM48.1013 97.0811C48.0813 95.8211 47.9813 91.6011 48.2013 90.5811C49.8413 90.7211 53.6613 90.6311 55.4213 90.6311C58.5513 90.6111 62.4413 90.7311 65.5213 90.5611V101.931H53.9813L53.9913 101.351C54.0913 95.9211 53.0213 97.0111 48.1013 97.0811ZM95.3113 145.811C95.7713 146.121 96.1713 146.461 96.6113 146.821C96.6413 147.871 96.6113 149.091 96.6113 150.161C95.6513 150.921 95.3413 151.111 94.1213 151.171C89.8213 151.271 55.0313 151.561 53.1513 150.901C52.2613 150.211 52.3713 149.041 52.3713 148.031C52.3713 145.871 53.1313 145.771 54.9813 145.691C63.0313 145.491 71.8913 145.681 80.0013 145.671H89.2013C91.0913 145.651 93.4613 145.591 95.3113 145.811ZM86.6113 137.601L62.3713 137.641V129.731C67.4113 129.541 72.5913 129.741 77.6413 129.661C80.5913 129.621 83.7213 129.641 86.6613 129.781C86.5413 132.051 86.6213 135.251 86.6113 137.601ZM86.6113 140.211V143.081L62.3813 143.061V140.231L86.6113 140.211ZM127.171 122.291C121.521 127.741 117.441 127.141 110.271 127.151H99.2613L60.2613 127.121H53.9813C53.9413 122.081 53.9413 117.051 53.9713 112.011H96.9213L109.611 112.031C112.141 112.031 114.891 112.181 117.381 111.871C129.221 110.411 124.851 97.3411 125.791 89.8111L125.811 89.6711C128.611 90.7911 130.001 95.2911 130.071 98.0611C130.781 98.4511 131.281 98.6711 132.031 98.9811C131.381 107.921 134.321 115.401 127.171 122.291ZM111.521 87.5711C115.951 87.4511 118.781 87.3011 123.141 88.4711C123.181 93.2111 123.351 99.2611 122.951 103.971C122.841 105.171 122.031 106.431 121.241 107.361C118.611 109.871 114.981 109.391 111.531 109.361C111.521 102.201 111.381 94.7011 111.521 87.5711ZM132.851 95.2711C132.161 92.9611 131.671 91.1711 129.851 89.4511C124.931 84.8011 119.281 84.8711 113.051 84.9411L95.1313 84.9611C95.0413 77.9111 95.1313 70.6711 95.1313 63.6111H109.231C113.341 63.6311 117.791 63.9011 121.811 63.1311C126.971 62.1311 131.831 58.9311 132.731 53.4211C133.091 53.6311 133.641 54.0811 133.931 54.4011C138.741 59.5311 140.671 66.8511 140.681 73.6811C140.701 82.2711 138.891 89.0911 132.861 95.2711H132.851ZM147.761 81.3711C146.061 82.7811 144.741 83.0911 142.671 83.6111C143.631 78.9911 143.891 74.2411 143.441 69.5411C143.281 68.0311 142.881 66.5211 142.741 65.0211C151.031 66.2911 153.261 75.4111 147.761 81.3711Z" fill="white"/>
<path d="M65.0006 67.8111C58.8806 67.9311 52.3306 67.6311 46.2406 67.8611C45.5706 68.4711 45.4006 69.1611 45.4706 70.0511C45.6706 72.5411 45.1706 82.6511 45.7506 84.3111C46.4006 84.8311 48.4006 84.8211 49.2606 84.8211C55.3106 84.7711 61.3906 84.8711 67.4306 84.7811C67.8106 84.5111 68.0006 84.3111 68.0206 83.8111C68.0906 82.3111 68.1606 80.3011 68.0406 78.8011C67.8306 76.1911 68.5806 70.6411 67.7706 68.3511C67.2806 67.8511 65.7306 67.7911 65.0006 67.8111ZM48.1006 82.1111V70.8311L65.5206 70.8411L65.5506 82.1211H48.1006V82.1111Z" fill="white"/>
<path d="M45.9108 64.3227C46.7008 64.7727 64.5308 64.5627 67.1508 64.5927C67.4108 64.4927 67.8608 64.3927 67.8808 64.1927C68.1208 61.0027 68.2808 50.8227 67.9008 48.2527C66.0108 47.8827 59.5808 48.1027 57.2408 48.1227C53.8708 48.1627 49.7908 47.9527 46.5208 48.0527C46.1608 48.1727 45.9108 48.1827 45.7208 48.5327C45.2908 49.3327 45.3608 63.0727 45.7108 64.0827C45.7508 64.1927 45.8008 64.2627 45.9108 64.3227ZM65.5408 50.5627C65.5508 54.3727 65.5508 58.1827 65.5208 61.9927C59.7208 62.0727 53.9108 62.0727 48.1008 61.9927V50.5627H65.5408Z" fill="white"/>
<path d="M83.8112 57.7519L102.501 57.7319C102.901 57.2119 103.281 56.5519 103.201 55.8719C103.171 55.6019 103.011 55.2919 102.781 55.1419C101.881 54.5419 76.3812 54.8119 73.1512 54.9419C71.8612 55.5219 72.4312 57.1519 72.6212 57.2619C74.0312 58.0719 82.6912 57.7519 83.8112 57.7519Z" fill="white"/>
<path d="M110.801 117.412C109.291 116.932 105.621 117.142 104.061 117.262C103.791 117.912 103.691 118.102 103.761 118.792C104.731 120.362 109.201 119.732 111.001 119.672C111.371 119.062 111.421 118.972 111.481 118.262C111.341 117.892 111.261 117.562 110.801 117.412Z" fill="white"/>
<path d="M41.1413 113.853C38.0713 112.113 27.8613 103.883 25.0713 103.893C23.6813 106.123 24.7613 118.953 24.4213 122.223C24.2213 124.143 24.4913 125.013 25.6113 126.503C26.9713 125.183 32.6413 121.753 34.7513 120.153C36.0613 119.283 40.9013 116.403 41.4613 115.393C41.4913 115.023 41.4713 114.043 41.1413 113.853ZM33.2113 118.023C31.2913 119.393 29.2213 120.873 27.1913 122.063C26.9413 118.183 27.1013 111.773 27.1513 107.723C28.4113 108.163 36.3213 113.773 37.6413 114.973C36.2413 116.003 34.6613 117.033 33.2113 118.023Z" fill="white"/>
<path d="M174.591 73.4518C174.001 72.7718 172.041 72.8318 171.151 72.8618C166.761 73.0018 162.181 72.7318 157.801 72.9218C156.931 73.4218 156.651 74.1118 157.111 75.0618C157.901 75.8418 160.731 75.7018 161.921 75.6518C165.741 75.4918 170.271 75.8018 174.011 75.5718C174.831 75.0518 175.081 74.3718 174.581 73.4618L174.591 73.4518Z" fill="white"/>
<path d="M155.871 67.8812C159.631 65.3312 163.331 62.3312 167.141 59.8012C167.511 59.5612 167.971 59.0512 168.151 58.6412C168.181 57.7112 167.561 56.9512 166.681 56.7012C164.911 58.0812 155.251 64.7312 154.481 66.0412C154.431 66.9512 155.001 67.6212 155.871 67.8812Z" fill="white"/>
<path d="M166.931 88.5919C165.221 87.5819 156.721 80.9619 155.471 80.6719C155.051 81.1219 154.621 81.4919 154.481 82.0719C154.581 82.9719 155.121 83.3619 155.851 83.8919C157.591 85.1619 165.591 91.3419 167.141 91.6819C167.571 91.2319 167.991 90.8919 168.151 90.2919C168.071 89.5019 167.541 88.9319 166.931 88.5819V88.5919Z" fill="white"/>
</svg>
