<svg width="58" height="62" viewBox="0 0 58 62" fill="none" xmlns="http://www.w3.org/2000/svg">
<path d="M17.2827 61.6756C15.9837 61.6756 14.8965 61.2379 14.021 60.3625C13.1456 59.4871 12.7079 58.3998 12.7079 57.1008C12.7079 55.8018 13.1456 54.7145 14.021 53.8391C14.8965 52.9637 15.9837 52.526 17.2827 52.526C18.5818 52.526 19.669 52.9637 20.5444 53.8391C21.4199 54.7145 21.8576 55.8018 21.8576 57.1008C21.8576 58.3998 21.4199 59.4871 20.5444 60.3625C19.669 61.2379 18.5818 61.6756 17.2827 61.6756ZM48.4594 61.6756C47.1604 61.6756 46.0732 61.2379 45.1977 60.3625C44.3223 59.4871 43.8846 58.3998 43.8846 57.1008C43.8846 55.8018 44.3223 54.7145 45.1977 53.8391C46.0732 52.9637 47.1604 52.526 48.4594 52.526C49.7585 52.526 50.8457 52.9637 51.7211 53.8391C52.5966 54.7145 53.0343 55.8018 53.0343 57.1008C53.0343 58.3998 52.5966 59.4871 51.7211 60.3625C50.8457 61.2379 49.7585 61.6756 48.4594 61.6756ZM11.8607 9.14968L21.1798 28.8046H43.2915C43.7999 28.8046 44.2517 28.6775 44.6471 28.4233C45.0424 28.1692 45.3813 27.8162 45.6637 27.3643L54.3898 11.5218C54.7287 10.9005 54.7569 10.3499 54.4745 9.8698C54.1921 9.38972 53.712 9.14968 53.0343 9.14968H11.8607ZM10.6746 6.77754H53.0343C54.5592 6.77754 55.7029 7.3847 56.4654 8.59901C57.2279 9.81332 57.2702 11.07 56.5925 12.369L47.6122 28.8046C47.1604 29.5388 46.5815 30.1177 45.8755 30.5413C45.1695 30.9649 44.3929 31.1767 43.5457 31.1767H19.6549L15.4189 38.9709C14.9671 39.6486 14.953 40.3829 15.3765 41.1736C15.8001 41.9643 16.4355 42.3596 17.2827 42.3596H51.8482C52.1871 42.3596 52.4695 42.4726 52.6954 42.6985C52.9213 42.9244 53.0343 43.2068 53.0343 43.5457C53.0343 43.8846 52.9213 44.167 52.6954 44.3929C52.4695 44.6188 52.1871 44.7318 51.8482 44.7318H17.2827C15.4754 44.7318 14.134 43.9834 13.2586 42.4867C12.3831 40.99 12.369 39.4792 13.2162 37.9542L18.4688 28.6351L5.93035 2.37214H1.18607C0.847193 2.37214 0.564795 2.25918 0.338877 2.03326C0.112959 1.80734 0 1.52495 0 1.18607C0 0.847193 0.112959 0.564795 0.338877 0.338877C0.564795 0.112959 0.847193 0 1.18607 0H5.84563C6.35395 0 6.80578 0.127079 7.20114 0.381237C7.5965 0.635395 7.90713 0.988392 8.13305 1.44023L10.6746 6.77754Z" fill="#0D0400"/>
</svg>
