<svg width="59" height="59" viewBox="0 0 59 59" fill="none" xmlns="http://www.w3.org/2000/svg">
<path d="M52.7801 20.1632L51.1704 18.5535L52.526 17.1133C53.0907 16.5485 53.3731 15.9131 53.3731 15.2071C53.3731 14.5011 53.0907 13.8657 52.526 13.3009L44.7318 5.50675C44.167 4.94196 43.5316 4.65956 42.8256 4.65956C42.1196 4.65956 41.4842 4.94196 40.9194 5.50675L39.4792 6.86226L37.7848 5.16788L39.4792 3.38877C40.3829 2.4851 41.4842 2.04738 42.7832 2.07562C44.0823 2.10386 45.1836 2.56982 46.0873 3.47349L54.5592 11.9454C55.4629 12.8491 55.9147 13.9363 55.9147 15.2071C55.9147 16.4779 55.4629 17.5651 54.5592 18.4688L52.7801 20.1632ZM18.4688 54.5592C17.5651 55.4629 16.4779 55.9147 15.2071 55.9147C13.9363 55.9147 12.8491 55.4629 11.9454 54.5592L3.81237 46.4262C2.85222 45.466 2.37214 44.2658 2.37214 42.8256C2.37214 41.3854 2.85222 40.1852 3.81237 39.225L5.16788 37.8695L6.86226 39.5639L5.50675 40.9194C4.94196 41.4842 4.65956 42.1196 4.65956 42.8256C4.65956 43.5316 4.94196 44.167 5.50675 44.7318L13.3009 52.526C13.8657 53.0907 14.5011 53.3731 15.2071 53.3731C15.9131 53.3731 16.5485 53.0907 17.1133 52.526L18.4688 51.1704L20.1632 52.8648L18.4688 54.5592ZM51.2552 33.1252L54.8134 29.567C55.3782 29.0022 55.6606 28.3527 55.6606 27.6185C55.6606 26.8843 55.3782 26.2347 54.8134 25.6699L32.3628 3.21933C31.798 2.65454 31.1485 2.37214 30.4142 2.37214C29.68 2.37214 29.0305 2.65454 28.4657 3.21933L24.9075 6.77754C24.3427 7.34234 24.0603 7.97773 24.0603 8.68373C24.0603 9.38972 24.3427 10.0251 24.9075 10.5899L47.4428 33.1252C48.0076 33.69 48.643 33.9724 49.349 33.9724C50.055 33.9724 50.6904 33.69 51.2552 33.1252ZM29.4823 54.8981L33.0405 51.3399C33.6053 50.7751 33.8877 50.1397 33.8877 49.4337C33.8877 48.7277 33.6053 48.0923 33.0405 47.5275L10.5052 24.9922C9.9404 24.4274 9.305 24.145 8.59901 24.145C7.89301 24.145 7.25762 24.4274 6.69282 24.9922L3.13461 28.5504C2.56982 29.1152 2.28742 29.7647 2.28742 30.4989C2.28742 31.2332 2.56982 31.8827 3.13461 32.4475L25.5852 54.8981C26.15 55.4629 26.7995 55.7453 27.5338 55.7453C28.268 55.7453 28.9175 55.4629 29.4823 54.8981ZM26.5171 37.6154L37.5306 26.6019L31.4309 20.5021L20.4173 31.5156L26.5171 37.6154ZM31.092 56.5925C30.1318 57.5526 28.9458 58.0327 27.5338 58.0327C26.1218 58.0327 24.9357 57.5526 23.9756 56.5925L1.44023 34.0571C0.480076 33.097 0 31.9109 0 30.4989C0 29.087 0.480076 27.9009 1.44023 26.9407L4.99844 23.2978C5.95859 22.3376 7.15878 21.8576 8.59901 21.8576C10.0392 21.8576 11.2394 22.3376 12.1996 23.2978L18.723 29.8212L29.7365 18.8077L23.2131 12.2843C22.2529 11.3241 21.7729 10.124 21.7729 8.68373C21.7729 7.2435 22.2529 6.04331 23.2131 5.08316L26.856 1.44023C27.8162 0.480076 29.0164 0 30.4566 0C31.8968 0 33.097 0.480076 34.0571 1.44023L56.5925 23.9756C57.5526 24.9357 58.0327 26.1359 58.0327 27.5761C58.0327 29.0164 57.5526 30.2165 56.5925 31.1767L52.9495 34.8196C51.9894 35.7798 50.7892 36.2599 49.349 36.2599C47.9088 36.2599 46.7086 35.7798 45.7484 34.8196L39.225 28.2962L28.2115 39.3097L34.7349 45.8331C35.6951 46.7933 36.1751 47.9935 36.1751 49.4337C36.1751 50.8739 35.6951 52.0741 34.7349 53.0343L31.092 56.5925Z" fill="#0D0400"/>
</svg>
