<svg width="457" height="457" viewBox="0 0 457 457" fill="none" xmlns="http://www.w3.org/2000/svg">
<path d="M197.642 275.9C185.896 289.564 162.759 297.348 150.137 305.237C141.555 310.601 137.194 320.233 139.656 330.083C164.815 326.889 193.697 306.712 208.52 287.689C198.074 319.116 157.635 342.607 125.955 346.331C120.888 324.172 124.956 301.68 149.259 296.207C166.864 292.243 182.718 285.982 197.642 275.9ZM259.355 275.9C274.279 285.982 290.134 292.243 307.739 296.207C332.042 301.68 336.109 324.172 331.043 346.331C299.362 342.607 258.923 319.116 248.476 287.689C263.3 306.712 292.182 326.889 317.341 330.083C319.803 320.233 315.443 310.601 306.861 305.237C294.239 297.348 271.102 289.564 259.355 275.9ZM228.499 205.253C234.219 205.253 238.857 209.891 238.857 215.611C238.857 221.328 234.225 225.963 228.51 225.969C229.208 225.972 229.885 226.235 230.552 226.756C235.473 230.523 239.276 247.537 239.681 268.509V268.629C239.649 298.064 229.85 317.64 229.54 318.251L229.529 318.264C229.509 318.231 229.869 296.026 229.871 295.933C230.127 281.566 229.998 267.795 228.496 254.107C226.994 267.795 226.866 281.566 227.122 295.933C227.123 296.026 227.484 318.228 227.464 318.264L227.453 318.251C227.143 317.64 217.343 298.064 217.311 268.629V268.509C217.716 247.537 221.519 230.524 226.44 226.756C227.107 226.234 227.785 225.972 228.483 225.969C222.77 225.96 218.14 221.327 218.14 215.611C218.141 209.891 222.778 205.253 228.499 205.253ZM46.9461 157.583C51.403 178.789 59.1477 198.487 72.9646 215.944C86.1124 232.804 101.399 247.076 120.556 258.065C110.278 242.679 97.4595 223.775 101.155 204.858C104.044 190.072 124.964 195.558 135.471 202.587C143.048 207.655 149.127 213.981 154.94 221.157C155.463 217.404 157.162 214.063 159.107 212.148C167.24 204.141 183.946 212.842 192.284 220.866C199.189 227.512 205.456 235.026 208.617 244.783C200.72 237.267 182.865 217.136 170.915 221.289C169.023 221.947 168.382 224.708 168.612 226.733C170.082 239.649 177.123 250.455 187.193 258.426C160.538 257.157 157.568 242.252 142.151 225.613C138.028 221.164 126.555 210.922 121.099 214.88C113.021 220.742 130.519 248.801 137.168 256.524L159.272 282.201C127.286 280.455 94.4179 258.212 74.2391 233.862C56.658 212.647 47.1387 185.952 46.9461 157.583ZM410.06 157.583C409.868 185.952 400.348 212.647 382.767 233.862C362.589 258.213 329.72 280.455 297.733 282.201L319.839 256.524C326.488 248.801 343.985 220.742 335.907 214.88C330.452 210.922 318.977 221.164 314.854 225.613C299.438 242.252 296.469 257.157 269.813 258.426C279.884 250.455 286.925 239.649 288.394 226.733C288.625 224.707 287.982 221.947 286.091 221.289C274.14 217.137 256.285 237.267 248.388 244.783C251.549 235.026 257.817 227.512 264.722 220.866C273.061 212.842 289.765 204.141 297.898 212.148C299.843 214.063 300.378 217.275 302.065 221.157C307.878 213.982 313.957 207.655 321.534 202.587C332.041 195.558 352.962 190.072 355.85 204.858C359.546 223.775 346.728 242.679 336.45 258.065C355.607 247.076 370.893 232.804 384.041 215.944C397.858 198.487 405.603 178.789 410.06 157.583ZM28.118 131.255C66.9583 129.016 120.501 147.121 152.808 168.283C168.122 178.315 181.728 188.771 193.481 202.721C199.734 211.826 207.112 219.931 211.09 230.606C203.487 219.524 196.251 209.423 185.704 200.982C175.52 192.833 165.422 185.482 153.39 179.06C121.305 161.932 81.8314 148.655 45.6316 149.688C44.3183 161.801 46.4066 173.264 48.6404 185.458C53.6174 206.715 64.2603 225.028 77.5223 242.742C41.8425 217.36 21.9306 176.139 28.118 131.255ZM304.195 168.283C336.502 147.121 390.045 129.016 428.886 131.255C435.073 176.139 415.16 217.36 379.48 242.742C392.742 225.028 403.385 206.715 408.362 185.458C410.596 173.264 412.684 161.802 411.371 149.688C375.171 148.655 335.698 161.932 303.613 179.06C291.581 185.482 281.483 192.833 271.3 200.982C260.752 209.423 253.517 219.524 245.914 230.606C249.891 219.931 257.269 211.826 263.522 202.721C275.275 188.771 288.881 178.315 304.195 168.283ZM171.789 110C176.856 110 180.964 114.109 180.964 119.176C180.964 119.637 180.929 120.09 180.863 120.532C180.883 120.41 180.901 120.288 180.917 120.165C190.717 123.479 198.145 129.847 204.773 137.858C216.136 154.562 224.315 173.793 223.981 195.505L223.551 193.286C218.833 169.817 205.926 130.118 180.666 121.513C180.694 121.395 180.721 121.276 180.746 121.157C179.84 125.271 176.175 128.35 171.789 128.351C166.722 128.351 162.614 124.243 162.614 119.176C162.614 114.109 166.722 110 171.789 110ZM285.206 110C290.273 110 294.381 114.109 294.381 119.176C294.38 124.243 290.273 128.351 285.206 128.351C280.946 128.351 277.364 125.448 276.331 121.513C251.071 130.119 238.165 169.818 233.448 193.286L233.017 195.505C232.683 173.793 240.863 154.562 252.225 137.858C258.854 129.847 266.282 123.479 276.082 120.165C276.088 120.213 276.096 120.26 276.102 120.308C276.057 119.937 276.031 119.559 276.031 119.176C276.031 114.109 280.139 110 285.206 110Z" fill="white"/>
</svg>
