<svg width="617" height="431" viewBox="0 0 617 431" fill="none" xmlns="http://www.w3.org/2000/svg">
<path d="M546.729 369.399C551.065 369.399 555.04 370.032 558.653 371.297C562.302 372.562 565.229 374.73 567.433 377.801C569.637 380.836 570.74 385.081 570.74 390.537C570.74 398.631 568.644 404.322 564.453 407.61C560.297 410.898 554.389 412.542 546.729 412.542C540.876 412.542 535.944 411.91 531.933 410.646C527.922 409.381 524.688 408.08 522.231 406.743V426.472C522.231 427.411 522.141 428.278 521.96 429.073C521.78 429.868 521.165 430.266 520.118 430.266C519.07 430.266 518.456 429.832 518.275 428.965C518.094 428.134 518.003 427.194 518.003 426.146V373.14C518.003 371.984 518.22 371.261 518.654 370.972C519.087 370.646 519.557 370.483 520.063 370.483C520.677 370.483 521.166 370.646 521.527 370.972C521.888 371.261 522.069 371.984 522.069 373.14V380.294C522.719 377.981 524.001 376.12 525.917 374.711C527.832 373.266 530.036 372.164 532.529 371.405C535.022 370.646 537.534 370.122 540.063 369.833C542.628 369.544 544.85 369.399 546.729 369.399ZM480.661 369.399C488.176 369.399 493.795 370.845 497.516 373.735C501.274 376.59 503.153 380.691 503.153 386.039C503.153 387.015 503.008 388.171 502.719 389.508C502.43 390.808 502.141 391.459 501.852 391.459L459.035 390.917C459.179 398.035 461.022 402.895 464.563 405.496C468.14 408.098 473.362 409.398 480.227 409.398C484.274 409.398 487.652 409.037 490.362 408.314C493.108 407.556 495.312 406.725 496.974 405.821C498.672 404.882 499.919 404.142 500.714 403.6C500.823 403.527 500.967 403.491 501.148 403.491C501.545 403.491 501.907 403.69 502.232 404.087C502.593 404.448 502.774 404.846 502.774 405.279C502.774 405.677 502.593 406.002 502.232 406.255C501.834 406.652 500.804 407.375 499.142 408.423C497.516 409.435 495.15 410.393 492.042 411.296C488.971 412.163 485.05 412.597 480.281 412.597C471.248 412.597 464.726 410.717 460.715 406.96C456.705 403.166 454.699 397.89 454.699 391.134C454.699 385.533 455.837 381.161 458.114 378.018C460.426 374.874 463.551 372.651 467.49 371.351C471.428 370.05 475.819 369.399 480.661 369.399ZM227.659 369.399C230.838 369.399 234.127 369.725 237.523 370.375C240.955 370.989 244.244 372.109 247.387 373.735C248.146 374.133 248.525 374.693 248.525 375.416C248.525 376.355 248.019 376.825 247.007 376.825C246.682 376.825 246.303 376.734 245.87 376.554C244.713 375.976 243.141 375.38 241.154 374.766C239.167 374.151 236.981 373.645 234.596 373.248C232.248 372.814 229.935 372.598 227.659 372.598C219.384 372.598 213.44 374.043 209.827 376.934C206.25 379.788 204.461 384.522 204.461 391.134C204.462 397.782 206.377 402.48 210.207 405.226C214.073 407.971 219.872 409.345 227.604 409.345C229.917 409.345 232.248 409.146 234.596 408.748C236.981 408.314 239.167 407.791 241.154 407.177C243.141 406.562 244.713 405.966 245.87 405.388C246.303 405.207 246.682 405.117 247.007 405.117C248.019 405.117 248.525 405.587 248.525 406.526C248.525 407.249 248.146 407.809 247.387 408.206C244.244 409.832 240.955 410.971 237.523 411.621C234.127 412.235 230.838 412.542 227.659 412.542C222.203 412.542 217.397 411.928 213.242 410.699C209.123 409.471 205.907 407.321 203.594 404.25C201.282 401.143 200.126 396.77 200.125 391.134C200.125 385.533 201.191 381.161 203.323 378.018C205.491 374.874 208.634 372.651 212.753 371.351C216.873 370.05 221.841 369.399 227.659 369.399ZM288.579 369.399C297.828 369.399 304.622 371.116 308.958 374.549C313.329 377.945 315.515 383.474 315.515 391.134C315.515 395.542 314.648 399.354 312.914 402.569C311.215 405.749 308.397 408.206 304.458 409.94C300.52 411.675 295.227 412.542 288.579 412.542C281.93 412.542 276.636 411.675 272.698 409.94C268.759 408.206 265.923 405.749 264.189 402.569C262.491 399.354 261.641 395.542 261.641 391.134C261.641 383.474 263.809 377.945 268.145 374.549C272.517 371.116 279.329 369.399 288.579 369.399ZM420.825 369.399C424.004 369.399 427.293 369.725 430.689 370.375C434.121 370.989 437.41 372.109 440.553 373.735C441.312 374.133 441.691 374.693 441.691 375.416C441.691 376.355 441.185 376.825 440.173 376.825C439.848 376.825 439.469 376.734 439.036 376.554C437.879 375.976 436.307 375.38 434.32 374.766C432.333 374.151 430.147 373.645 427.762 373.248C425.414 372.814 423.101 372.598 420.825 372.598C412.55 372.598 406.606 374.043 402.993 376.934C399.416 379.788 397.627 384.522 397.627 391.134C397.628 397.782 399.543 402.48 403.373 405.226C407.239 407.971 413.038 409.345 420.77 409.345C423.083 409.345 425.414 409.146 427.762 408.748C430.147 408.314 432.333 407.791 434.32 407.177C436.307 406.562 437.879 405.966 439.036 405.388C439.469 405.207 439.848 405.117 440.173 405.117C441.185 405.117 441.691 405.587 441.691 406.526C441.691 407.249 441.312 407.809 440.553 408.206C437.41 409.832 434.121 410.971 430.689 411.621C427.293 412.235 424.004 412.542 420.825 412.542C415.369 412.542 410.563 411.928 406.408 410.699C402.289 409.471 399.073 407.321 396.76 404.25C394.448 401.143 393.292 396.77 393.292 391.134C393.292 385.533 394.357 381.161 396.489 378.018C398.657 374.874 401.8 372.651 405.919 371.351C410.039 370.05 415.007 369.399 420.825 369.399ZM589.655 355.146C590.269 355.146 590.775 355.308 591.172 355.633C591.606 355.922 591.823 356.645 591.823 357.801V371.297H609.817C610.901 371.297 611.443 371.73 611.443 372.598C611.443 373.465 610.901 373.898 609.817 373.898H591.823V396.879C591.823 400.384 592.275 403.039 593.178 404.846C594.118 406.616 595.364 407.809 596.917 408.423C598.471 409.037 600.188 409.345 602.067 409.345C603.801 409.345 605.5 409.037 607.162 408.423C608.824 407.809 610.739 406.924 612.907 405.768C613.34 405.551 613.755 405.442 614.153 405.442C615.165 405.442 615.67 405.912 615.67 406.852C615.67 407.574 615.273 408.152 614.478 408.586C611.443 410.248 609.022 411.332 607.215 411.838C605.409 412.308 603.44 412.542 601.308 412.542C597.406 412.542 594.118 411.404 591.444 409.128C588.806 406.815 587.487 402.732 587.487 396.879V373.898H582.717C581.706 373.898 581.2 373.465 581.2 372.598C581.2 371.73 581.706 371.297 582.717 371.297H587.487V357.801C587.487 356.645 587.722 355.922 588.192 355.633C588.662 355.308 589.149 355.146 589.655 355.146ZM57.7437 369.399C62.6938 369.399 66.3618 370.683 68.7466 373.248C71.1672 375.814 72.3774 379.897 72.3774 385.497V409.182C72.3774 410.446 72.1245 411.241 71.6187 411.566C71.1491 411.855 70.6976 412 70.2642 412C69.7224 412 69.2161 411.874 68.7466 411.621C68.2769 411.368 68.0415 410.555 68.0415 409.182V385.497C68.0415 380.475 67.1926 377.078 65.4946 375.308C63.8325 373.501 61.2847 372.598 57.8521 372.598C53.2271 372.598 49.3794 373.537 46.3081 375.416C43.273 377.295 40.7436 379.878 38.7202 383.166V409.182C38.7202 410.446 38.4849 411.241 38.0151 411.566C37.5456 411.855 37.0941 412 36.6606 412C36.155 412 35.6487 411.874 35.1431 411.621C34.6372 411.368 34.3843 410.555 34.3843 409.182V383.166C34.3843 379.878 33.6068 377.295 32.0532 375.416C30.5356 373.537 28.0786 372.598 24.6821 372.598C19.5876 372.598 15.2338 373.663 11.6206 375.795C8.04346 377.927 5.8208 380.456 4.95361 383.383V409.182C4.95361 410.446 4.73682 411.241 4.30322 411.566C3.90591 411.855 3.49055 412 3.05713 412C2.55144 412 2.00906 411.874 1.43115 411.621C0.88916 411.368 0.617676 410.555 0.617676 409.182V373.14C0.617676 371.984 0.870746 371.261 1.37646 370.972C1.88232 370.646 2.37061 370.483 2.84033 370.483C3.45436 370.483 3.94199 370.647 4.30322 370.972C4.70053 371.261 4.8999 371.984 4.8999 373.14V379.806C6.05617 376.518 8.44097 373.971 12.0542 372.164C15.7036 370.321 19.8765 369.399 24.5737 369.399C28.2593 369.399 31.0054 370.014 32.812 371.242C34.6548 372.471 35.9194 373.88 36.606 375.47C37.2925 377.06 37.7446 378.415 37.9614 379.535C38.8286 378.018 40.0933 376.481 41.7554 374.928C43.4536 373.374 45.6217 372.073 48.2593 371.025C50.8969 369.942 54.0583 369.399 57.7437 369.399ZM146.088 369.399C151.039 369.399 154.707 370.683 157.091 373.248C159.512 375.814 160.722 379.897 160.722 385.497V409.182C160.722 410.446 160.469 411.241 159.963 411.566C159.494 411.855 159.042 412 158.609 412C158.067 412 157.561 411.874 157.091 411.621C156.622 411.368 156.386 410.555 156.386 409.182V385.497C156.386 380.475 155.537 377.078 153.839 375.308C152.177 373.501 149.629 372.598 146.197 372.598C141.572 372.598 137.724 373.537 134.653 375.416C131.618 377.295 129.088 379.878 127.065 383.166V409.182C127.065 410.446 126.83 411.241 126.36 411.566C125.89 411.855 125.439 412 125.005 412C124.5 412 123.993 411.874 123.488 411.621C122.982 411.368 122.729 410.555 122.729 409.182V383.166C122.729 379.878 121.952 377.295 120.398 375.416C118.88 373.537 116.423 372.598 113.027 372.598C107.932 372.598 103.579 373.663 99.9653 375.795C96.3882 377.927 94.1655 380.456 93.2983 383.383V409.182C93.2983 410.446 93.0815 411.241 92.6479 411.566C92.2506 411.855 91.8353 412 91.4019 412C90.8962 412 90.3538 411.874 89.7759 411.621C89.2339 411.368 88.9624 410.555 88.9624 409.182V373.14C88.9624 371.984 89.2155 371.261 89.7212 370.972C90.2271 370.646 90.7153 370.483 91.1851 370.483C91.7991 370.483 92.2867 370.647 92.6479 370.972C93.0453 371.261 93.2446 371.984 93.2446 373.14V379.806C94.4009 376.518 96.7857 373.971 100.399 372.164C104.048 370.321 108.221 369.399 112.918 369.399C116.604 369.399 119.35 370.014 121.157 371.242C123 372.471 124.264 373.88 124.951 375.47C125.637 377.06 126.089 378.415 126.306 379.535C127.173 378.018 128.438 376.481 130.1 374.928C131.798 373.374 133.966 372.073 136.604 371.025C139.242 369.942 142.403 369.399 146.088 369.399ZM358.116 369.399C363.283 369.399 367.366 370.032 370.365 371.297C373.4 372.525 375.568 374.585 376.869 377.476C378.169 380.366 378.82 384.323 378.82 389.345V408.098C378.82 409.037 378.658 409.923 378.333 410.754C378.043 411.585 377.465 412 376.598 412C375.551 412 374.936 411.585 374.755 410.754C374.575 409.923 374.484 409.037 374.484 408.098V389.345C374.484 385.587 374.069 382.479 373.238 380.022C372.407 377.529 370.798 375.669 368.414 374.44C366.065 373.212 362.578 372.598 357.954 372.598C355.135 372.598 352.118 372.923 348.902 373.573C345.722 374.224 342.85 375.344 340.285 376.934C337.719 378.523 336.002 380.745 335.135 383.6V408.098C335.135 409.037 335.027 409.923 334.81 410.754C334.593 411.585 334.033 412 333.13 412C332.119 412 331.468 411.585 331.179 410.754C330.926 409.923 330.799 409.037 330.799 408.098V372.977C330.799 372.362 330.926 371.803 331.179 371.297C331.432 370.755 332.064 370.483 333.076 370.483C333.979 370.483 334.54 370.736 334.756 371.242C335.009 371.712 335.135 372.29 335.135 372.977V378.938C337.159 376.12 339.49 374.043 342.127 372.706C344.765 371.333 347.475 370.447 350.257 370.05C353.039 369.616 355.659 369.399 358.116 369.399ZM288.579 372.598C280.666 372.598 274.92 374.007 271.343 376.825C267.766 379.644 265.977 384.413 265.977 391.134C265.977 393.338 266.249 395.524 266.791 397.691C267.333 399.823 268.362 401.774 269.879 403.545C271.433 405.315 273.709 406.725 276.708 407.772C279.708 408.82 283.665 409.345 288.579 409.345C293.492 409.345 297.449 408.82 300.448 407.772C303.447 406.725 305.706 405.315 307.223 403.545C308.777 401.774 309.825 399.823 310.367 397.691C310.909 395.524 311.179 393.338 311.179 391.134C311.179 384.413 309.391 379.644 305.814 376.825C302.237 374.007 296.491 372.598 288.579 372.598ZM546.729 372.598C544.561 372.634 542.195 372.814 539.629 373.14C537.1 373.429 534.643 373.971 532.258 374.766C529.874 375.561 527.778 376.662 525.971 378.071C524.201 379.48 522.99 381.323 522.339 383.6V404.412C525.447 405.568 529.024 406.688 533.071 407.772C537.154 408.82 541.707 409.345 546.729 409.345C553.667 409.345 558.671 407.863 561.743 404.9C564.85 401.901 566.404 397.113 566.404 390.537C566.404 385.984 565.518 382.407 563.748 379.806C561.977 377.168 559.611 375.308 556.648 374.224C553.685 373.14 550.378 372.598 546.729 372.598ZM480.661 372.598C473.976 372.598 468.773 373.754 465.051 376.066C461.366 378.379 459.378 382.443 459.089 388.261H499.956V385.714C499.956 383.293 499.341 381.106 498.113 379.155C496.884 377.168 494.861 375.578 492.042 374.386C489.224 373.193 485.43 372.598 480.661 372.598ZM261.258 226.52C243.274 245.175 207.851 255.805 188.526 266.577C175.387 273.901 168.71 287.052 172.48 300.501C210.999 296.14 255.217 268.59 277.913 242.617C261.919 285.528 200.006 317.602 151.502 322.687C143.745 292.43 149.973 261.718 187.181 254.246C214.136 248.833 238.409 240.285 261.258 226.52ZM355.741 226.52C378.59 240.285 402.863 248.833 429.817 254.246C467.025 261.718 473.254 292.43 465.497 322.687C416.993 317.602 355.079 285.528 339.085 242.617C361.781 268.59 405.999 296.14 444.518 300.501C448.288 287.052 441.612 273.901 428.473 266.577C409.148 255.805 373.725 245.175 355.741 226.52ZM308.5 130.059C317.258 130.059 324.359 136.391 324.359 144.202C324.359 152.004 317.275 158.329 308.531 158.344C309.596 158.35 310.631 158.709 311.648 159.419C319.183 164.563 325.004 187.794 325.625 216.429V216.592C325.576 256.786 310.571 283.517 310.098 284.348L310.083 284.364C310.05 284.381 310.602 254.003 310.604 253.873C310.996 234.257 310.8 215.454 308.5 196.765C306.201 215.454 306.005 234.257 306.397 253.873C306.399 254.003 306.951 284.381 306.918 284.364L306.903 284.348C306.43 283.517 291.425 256.785 291.376 216.592V216.429C291.997 187.794 297.818 164.564 305.353 159.419C306.37 158.709 307.404 158.351 308.468 158.344C299.725 158.328 292.641 152.004 292.641 144.202C292.641 136.391 299.741 130.059 308.5 130.059ZM30.5308 64.9707C37.3544 93.9254 49.2126 120.82 70.3667 144.657C90.4961 167.677 113.9 187.164 143.23 202.169C127.494 181.16 107.869 155.349 113.527 129.521C117.95 109.331 149.979 116.822 166.066 126.419C177.666 133.339 186.973 141.977 195.873 151.774C196.672 146.649 199.274 142.089 202.252 139.475C214.704 128.541 240.28 140.422 253.046 151.378C263.618 160.452 273.214 170.711 278.053 184.034C265.963 173.771 238.627 146.285 220.331 151.955C217.434 152.853 216.451 156.623 216.804 159.39C219.054 177.024 229.834 191.779 245.251 202.662C204.442 200.929 199.895 180.578 176.292 157.859C169.981 151.784 152.413 137.799 144.061 143.203C131.692 151.207 158.482 189.521 168.662 200.066L202.505 235.125C153.533 232.74 103.211 202.371 72.3169 169.123C45.3998 140.156 30.8257 103.707 30.5308 64.9707ZM586.465 64.9707C586.17 103.707 571.596 140.156 544.679 169.123C513.785 202.371 463.463 232.74 414.491 235.125L448.334 200.066C458.514 189.521 485.304 151.207 472.935 143.203C464.583 137.799 447.015 151.784 440.704 157.859C417.101 180.578 412.555 200.929 371.745 202.662C387.163 191.779 397.942 177.025 400.192 159.39C400.545 156.623 399.562 152.853 396.666 151.955C378.369 146.285 351.032 173.772 338.942 184.034C343.781 170.711 353.378 160.452 363.95 151.378C376.716 140.422 402.292 128.541 414.744 139.475C417.722 142.089 418.541 146.474 421.124 151.774C430.023 141.977 439.33 133.339 450.93 126.419C467.017 116.822 499.046 109.331 503.469 129.521C509.127 155.349 489.502 181.16 473.766 202.169C503.096 187.164 526.5 167.677 546.629 144.657C567.783 120.82 579.642 93.9254 586.465 64.9707ZM1.71143 29.0186C61.1767 25.9612 143.152 50.6817 192.615 79.5771C216.061 93.2743 236.892 107.553 254.886 126.6C264.46 139.033 275.756 150.097 281.845 164.674C270.205 149.542 259.128 135.749 242.979 124.225C227.387 113.097 211.927 103.062 193.506 94.292V94.293C144.383 70.9072 83.9486 52.7768 28.5259 54.1875C26.5151 70.7268 29.7123 86.3788 33.1323 103.028C40.7521 132.053 57.0469 157.057 77.3511 181.244C22.7247 146.587 -7.76154 90.3042 1.71143 29.0186ZM424.383 79.5771C473.846 50.6817 555.821 25.9613 615.287 29.0186C624.76 90.3043 594.274 146.587 539.647 181.244C559.951 157.057 576.246 132.053 583.866 103.028C587.286 86.3788 590.483 70.7268 588.472 54.1875C533.049 52.7769 472.615 70.9072 423.492 94.293V94.292C405.071 103.062 389.611 113.097 374.019 124.225C357.87 135.749 346.794 149.542 335.154 164.674C341.243 150.097 352.539 139.033 362.113 126.6C380.107 107.553 400.938 93.2743 424.383 79.5771ZM301.585 116.748L301.583 116.747C301.584 116.745 301.583 116.742 301.583 116.739C301.584 116.742 301.585 116.745 301.585 116.748ZM395.329 0C403.087 0 409.376 5.60865 409.376 12.5273C409.376 19.4462 403.087 25.0557 395.329 25.0557C388.745 25.0555 383.22 21.0158 381.698 15.5645C381.711 15.6155 381.724 15.6669 381.738 15.7178C341.818 27.8454 322.049 85.207 315.421 116.741C314.911 87.0986 327.434 60.8425 344.829 38.0361C354.977 27.0969 366.35 18.4031 381.354 13.8779C381.377 14.0327 381.402 14.1874 381.429 14.3418C381.333 13.7494 381.282 13.1435 381.282 12.5273C381.282 5.60879 387.571 0.000232588 395.329 0ZM221.682 0C229.44 8.88422e-05 235.729 5.6087 235.729 12.5273C235.729 13.0225 235.696 13.5111 235.633 13.9912C235.639 13.9534 235.646 13.9158 235.652 13.8779C250.656 18.4031 262.029 27.097 272.177 38.0361C289.572 60.842 302.093 87.0975 301.583 116.739C295.007 85.4509 275.495 28.7391 236.2 16.0098L235.268 15.7178C233.686 21.0912 228.204 25.0556 221.682 25.0557C213.924 25.0557 207.635 19.4462 207.635 12.5273C207.635 5.60865 213.924 0 221.682 0Z" fill="white"/>
</svg>
