<svg width="900" height="447" viewBox="0 0 900 447" fill="none" xmlns="http://www.w3.org/2000/svg">
<path d="M373.685 230.516C372.206 232.027 370.609 235.73 370.954 237.788C371.071 238.477 371.634 239.432 372.315 239.706C372.433 239.847 372.66 239.847 372.887 239.847C375.047 239.847 377.324 236.278 377.895 234.36C378.576 232.027 377.668 230.383 376.416 229.835C375.845 229.561 374.82 229.287 373.685 230.524V230.516Z" fill="black"/>
<path d="M372.886 241.022C372.619 241.022 372.103 241.022 371.673 240.708C370.655 240.184 369.951 238.947 369.794 237.984C369.387 235.542 371.125 231.471 372.831 229.71C374.036 228.41 375.484 228.081 376.924 228.778C378.536 229.483 379.905 231.651 379.021 234.696C378.387 236.841 375.859 241.029 372.886 241.029V241.022ZM375.476 230.774C375.233 230.774 374.936 230.892 374.545 231.314L374.521 231.338C373.261 232.622 371.837 235.957 372.111 237.593C372.181 238.008 372.565 238.54 372.753 238.618L372.886 238.673C374.13 238.673 376.188 235.972 376.767 234.023C377.26 232.332 376.712 231.236 375.946 230.907C375.82 230.845 375.672 230.774 375.484 230.774H375.476Z" fill="black"/>
<path d="M897.917 111.972C897.087 111.283 895.851 111.393 895.162 112.223C895.045 112.363 883.4 126.29 868.288 139.88C848.535 157.634 831.944 166.731 820.346 166.175C815.854 165.956 812.833 163.968 811.111 160.077C808.372 153.877 809.124 143.841 812.058 132.271C842.353 101.56 869.767 59.7182 866.637 48.8212C866.136 47.0755 864.923 45.8935 863.217 45.502C858.498 44.4061 852.299 48.4455 844.818 57.495C834.527 69.942 822.827 90.8278 815.017 110.704C812.95 115.957 810.47 122.908 808.568 130.204C790.482 150.339 765.572 164.148 755.469 164.985C748.95 165.525 744.637 164.061 742.665 160.617C737.555 151.716 747.611 130.361 753.872 121.429C753.888 121.413 753.888 121.389 753.903 121.374C753.943 121.311 753.974 121.249 754.005 121.186C754.036 121.131 754.06 121.076 754.083 121.022C754.107 120.959 754.123 120.896 754.146 120.834C754.162 120.771 754.177 120.716 754.193 120.654C754.201 120.591 754.209 120.528 754.216 120.466C754.216 120.403 754.224 120.34 754.224 120.278C754.224 120.215 754.216 120.153 754.209 120.09C754.209 120.027 754.193 119.965 754.185 119.91C754.169 119.847 754.154 119.785 754.13 119.722C754.115 119.667 754.099 119.605 754.076 119.55C754.052 119.487 754.021 119.432 753.99 119.378C753.958 119.323 753.927 119.268 753.896 119.213C753.864 119.158 753.817 119.111 753.778 119.064C753.739 119.01 753.692 118.963 753.645 118.916C753.63 118.9 753.622 118.884 753.606 118.869C753.575 118.837 753.528 118.814 753.496 118.783C753.465 118.759 753.434 118.728 753.403 118.697C753.387 118.689 753.371 118.681 753.348 118.665C753.285 118.626 753.223 118.587 753.152 118.556C753.097 118.532 753.05 118.501 752.996 118.485C752.933 118.462 752.863 118.438 752.8 118.423C752.745 118.407 752.69 118.391 752.636 118.383C752.565 118.368 752.503 118.368 752.432 118.36C752.377 118.36 752.315 118.352 752.26 118.352C752.19 118.352 752.127 118.36 752.056 118.368C752.002 118.368 751.947 118.376 751.892 118.391C751.822 118.407 751.759 118.423 751.689 118.446C751.634 118.462 751.579 118.477 751.532 118.501C751.47 118.524 751.407 118.556 751.352 118.595C751.297 118.626 751.243 118.65 751.196 118.681C751.141 118.72 751.094 118.759 751.039 118.798C750.992 118.837 750.937 118.884 750.89 118.931C750.875 118.947 750.859 118.955 750.843 118.978C747.283 122.814 743.479 128.764 739.449 135.065C730.778 148.624 719.986 165.494 708.035 165.862C705.586 165.925 703.872 165.079 702.8 163.232C699.881 158.237 702.009 147.591 707.855 137.923C715.987 124.489 728.594 116.818 741.554 117.428C741.577 117.428 741.601 117.428 741.624 117.428C741.695 117.428 741.758 117.428 741.82 117.421C741.898 117.421 741.969 117.405 742.039 117.389C742.078 117.389 742.11 117.374 742.141 117.366C742.243 117.342 742.337 117.311 742.423 117.272C742.431 117.272 742.438 117.264 742.446 117.256C742.665 117.154 742.869 117.013 743.033 116.841C743.033 116.841 743.041 116.833 743.049 116.826C743.127 116.739 743.197 116.653 743.26 116.559C743.276 116.536 743.284 116.512 743.299 116.497C743.346 116.419 743.393 116.332 743.432 116.238C743.448 116.199 743.464 116.152 743.479 116.113C743.503 116.035 743.526 115.964 743.542 115.886C743.542 115.863 743.557 115.847 743.557 115.824C743.557 115.784 743.557 115.745 743.565 115.706C743.565 115.667 743.581 115.628 743.581 115.581C743.581 115.557 743.581 115.534 743.581 115.51C743.581 115.44 743.581 115.37 743.573 115.299C743.573 115.236 743.557 115.182 743.55 115.119C743.534 115.056 743.518 114.986 743.503 114.923C743.487 114.861 743.464 114.806 743.448 114.751C743.424 114.688 743.393 114.634 743.362 114.579C743.331 114.524 743.307 114.469 743.268 114.414C743.237 114.36 743.19 114.313 743.151 114.258C743.111 114.211 743.072 114.164 743.033 114.117C742.986 114.07 742.939 114.031 742.892 113.984C742.845 113.945 742.798 113.906 742.751 113.874C742.697 113.835 742.642 113.804 742.587 113.773C742.532 113.741 742.477 113.71 742.415 113.686C742.36 113.663 742.297 113.639 742.243 113.624C742.18 113.6 742.117 113.585 742.047 113.569C742.024 113.569 742 113.553 741.977 113.546C722.686 110.179 698.37 135.543 682.288 152.327C676.387 158.488 669.704 165.463 667.857 165.737C666.166 165.831 665.587 165.251 665.282 164.735C664.351 163.193 663.193 157.423 672.638 137.163C677.991 125.672 684.15 115.197 684.213 115.096C684.737 114.211 684.479 113.068 683.634 112.489C682.789 111.909 681.63 112.082 680.997 112.888C669.414 127.543 636.835 165.596 625.401 165.721C625.346 165.721 625.291 165.721 625.236 165.721C621.261 165.721 620.408 164.046 620.126 163.482C618.937 161.134 618.522 154.472 629.142 136.232C633.814 128.208 638.94 120.888 641.264 117.663C642.086 116.552 642.54 115.917 642.563 115.878C643.181 115.002 642.978 113.796 642.109 113.17C641.241 112.544 640.035 112.724 639.394 113.577C639.065 114.015 638.47 114.822 637.672 115.925C633.055 122.094 619.492 139.371 603.371 152.264C589.315 163.514 576.919 168.132 568.459 165.275C564.131 163.811 561.361 161.032 559.999 156.773C557.323 148.444 560.117 134.69 568.083 116.387C568.303 116.09 568.428 115.925 568.436 115.91C568.694 115.557 568.803 115.15 568.803 114.751C571.965 107.651 575.878 99.9008 580.542 91.5245C585.52 82.5768 590.693 74.1144 595.216 67.0377C619.101 71.1006 628.844 61.6988 629.259 61.2839C630.018 60.5245 630.018 59.2955 629.259 58.5283C628.508 57.7612 627.271 57.7533 626.496 58.5048C626.41 58.5909 618.029 66.4349 597.525 63.4366C603.778 53.8078 608.301 47.5061 608.379 47.3886C609.013 46.5119 608.81 45.2907 607.933 44.6566C607.057 44.0225 605.836 44.226 605.202 45.1028C604.537 46.0344 599.708 52.7823 593.291 62.7086C568.647 58.0351 554.161 65.0493 553.558 65.3546C552.596 65.8399 552.204 67.0063 552.682 67.977C553.026 68.6659 553.715 69.0652 554.435 69.0652C554.724 69.0652 555.022 69.0025 555.296 68.8616C555.327 68.846 558.864 67.1238 565.266 66.0043C570.83 65.0336 579.689 64.3291 591.014 66.2705C582.569 79.5629 572.098 97.3488 564.648 114.438C562.269 117.624 553.214 129.5 542.007 141.062C525.072 158.543 511.079 167.326 501.539 166.48C499.543 166.3 498.816 165.338 498.448 164.633C494.926 157.893 504.983 135.449 512.151 122.893C512.644 122.031 512.409 120.935 511.611 120.348C509.357 118.689 506.751 116.489 504.45 114.211C511.619 107.385 510.649 101.803 510.054 100.457C509.49 99.1885 508.082 97.7402 504.521 98.0612C498.878 98.57 495.584 100.41 494.715 103.525C493.791 106.837 496.108 110.806 499.176 114.36C464.491 155.129 444.136 169.941 421.847 170.739C417.488 170.896 414.655 169.745 413.223 167.224C407.307 156.742 424.805 125.64 432.044 114.54C432.6 113.686 432.357 112.551 431.512 111.996C430.659 111.44 429.524 111.682 428.969 112.528C428.898 112.63 422.176 122.979 416.494 134.878C408.668 151.286 406.493 162.77 410.022 169.032C412.049 172.618 415.766 174.434 421.096 174.434C421.385 174.434 421.683 174.434 421.98 174.418C445.396 173.581 466.408 158.503 501.719 117.045L502.032 117.366C504.216 119.487 506.415 121.288 507.909 122.454C503.903 129.703 489.808 156.539 494.981 166.449C496.194 168.766 498.338 170.128 501.195 170.387C512.128 171.357 526.786 162.418 544.825 143.794C550.53 137.907 555.695 131.926 559.725 127.026C555.577 139.121 553.754 150.135 556.274 157.979C558.027 163.427 561.705 167.138 567.215 168.993C569.359 169.721 571.589 170.042 573.867 170.042C584.87 170.042 596.953 162.425 605.82 155.333C611.94 150.432 617.692 144.929 622.756 139.614C617.544 149.524 613.826 159.725 616.636 165.259C617.653 167.263 619.97 169.635 625.244 169.635C625.307 169.635 625.377 169.635 625.448 169.635C635.942 169.518 657.401 146.808 671.347 130.658C664.773 143.935 658.121 160.453 661.94 166.77C662.801 168.187 664.562 169.831 668.068 169.651C671.159 169.494 675.526 165.056 685.121 155.043C690.795 149.125 697.525 142.095 704.631 135.715C704.592 135.778 704.553 135.841 704.514 135.911C697.862 146.902 695.772 158.957 699.427 165.22C701.18 168.218 704.052 169.792 707.754 169.792C707.887 169.792 708.028 169.792 708.168 169.792C720.612 169.408 730.621 155.889 739.465 142.307C736.702 151.153 736.639 157.971 739.292 162.59C741.75 166.872 746.336 169.032 752.956 169.032C753.872 169.032 754.827 168.993 755.821 168.907C762.027 168.391 772.146 163.944 782.883 157.016C791.57 151.411 799.834 144.741 806.901 137.672C805.187 146.644 804.811 155.45 807.566 161.674C809.875 166.903 814.242 169.815 820.189 170.105C820.589 170.121 820.988 170.136 821.395 170.136C851.705 170.136 896.297 117.045 898.207 114.751C898.895 113.921 898.786 112.684 897.956 111.996L897.917 111.972ZM498.471 104.559C498.839 103.228 501.171 102.281 504.857 101.944C505.108 101.921 505.319 101.913 505.507 101.913C506.219 101.913 506.462 102.046 506.462 102.03C506.587 102.32 507.424 105.357 501.743 111.299C499.481 108.637 498.041 106.132 498.479 104.559H498.471ZM847.815 59.9765C853.458 53.1503 858.529 49.2205 861.612 49.2205C861.863 49.2205 862.098 49.2439 862.317 49.2987C862.559 49.3535 862.724 49.424 862.857 49.8859C864.938 57.127 843.918 92.7458 814.343 124.223C821.645 101.216 835.74 74.5685 847.807 59.9765H847.815Z" fill="black"/>
<path d="M421.087 175.6C415.312 175.6 411.234 173.58 408.988 169.604C405.255 162.989 407.423 151.137 415.421 134.368C421.103 122.462 427.904 111.987 427.974 111.886C428.882 110.5 430.752 110.101 432.145 111.009C433.538 111.917 433.93 113.788 433.022 115.181C423.106 130.376 409.239 157.791 414.24 166.644C415.429 168.75 417.886 169.705 421.799 169.564C443.642 168.782 463.535 154.315 497.633 114.351C494.088 110.022 492.726 106.273 493.579 103.204C494.589 99.5716 498.228 97.4424 504.41 96.8866C508.887 96.4795 510.53 98.6479 511.117 99.9709C511.235 100.237 513.794 106.296 506.124 114.195C508.065 116.042 510.272 117.906 512.299 119.393C513.582 120.332 513.958 122.086 513.168 123.471C505.6 136.725 496.357 158.096 499.488 164.085C499.668 164.437 500.051 165.165 501.648 165.306C508.065 165.877 520.102 161.987 541.169 140.24C552.149 128.912 561.039 117.303 563.63 113.843C571.01 96.9413 581.355 79.3903 589.072 67.1468C578.687 65.5812 570.563 66.2701 565.477 67.1625C559.278 68.2506 555.866 69.9024 555.827 69.9181C555.389 70.1295 554.911 70.239 554.442 70.239C553.245 70.239 552.165 69.5736 551.632 68.5012C550.865 66.959 551.499 65.0723 553.041 64.3052C553.651 63.9999 568.192 56.9623 592.742 61.4087C599.05 51.686 603.738 45.1415 604.262 44.4135C604.747 43.7324 605.475 43.2862 606.305 43.1532C607.134 43.0122 607.956 43.2158 608.637 43.7011C609.318 44.1865 609.764 44.9145 609.897 45.7365C610.03 46.5585 609.834 47.3882 609.349 48.0693C609.169 48.3198 605.146 53.9484 599.543 62.5125C617.918 64.6888 625.635 57.7216 625.713 57.6433C626.934 56.4613 628.914 56.4769 630.111 57.6981C631.316 58.9194 631.309 60.892 630.096 62.1054C629.681 62.5203 619.758 72.1413 595.794 68.3133C590.567 76.5252 585.785 84.5257 581.575 92.08C577.02 100.261 573.123 107.971 569.976 115.009C569.93 115.58 569.734 116.121 569.397 116.583C569.397 116.583 569.296 116.723 569.116 116.966C561.344 134.846 558.582 148.483 561.125 156.405C562.37 160.288 564.897 162.824 568.85 164.155C576.918 166.879 588.923 162.331 602.65 151.34C618.49 138.666 631.77 121.851 636.74 115.213C637.53 114.109 638.133 113.302 638.462 112.864C639.479 111.502 641.428 111.204 642.805 112.206C644.182 113.209 644.503 115.15 643.525 116.543C643.384 116.739 642.938 117.358 642.21 118.352C640.175 121.178 634.901 128.669 630.158 136.811C619.429 155.239 620.298 161.219 621.174 162.942C621.37 163.333 621.98 164.531 625.236 164.531H625.4C635.136 164.421 664.107 132.341 680.072 112.144C681.09 110.86 682.944 110.578 684.298 111.502C685.652 112.426 686.059 114.258 685.222 115.674C685.159 115.776 678.992 126.29 673.702 137.641C663.998 158.464 665.821 163.341 666.283 164.108C666.377 164.272 666.58 164.593 667.715 164.546C669.382 164.085 676.926 156.209 681.442 151.497C697.689 134.533 722.254 108.895 742.179 112.371L742.336 112.41C742.422 112.434 742.516 112.457 742.61 112.488C742.696 112.52 742.798 112.551 742.891 112.59C742.985 112.629 743.079 112.676 743.165 112.731C743.236 112.77 743.33 112.825 743.424 112.888C743.486 112.927 743.557 112.989 743.627 113.044C743.729 113.13 743.807 113.201 743.878 113.271C743.94 113.334 744.003 113.404 744.058 113.475C744.128 113.561 744.191 113.647 744.253 113.733C744.3 113.803 744.347 113.897 744.394 113.984C744.449 114.085 744.496 114.179 744.535 114.273C744.566 114.351 744.598 114.453 744.629 114.547C744.66 114.641 744.684 114.743 744.707 114.845C744.723 114.954 744.738 115.04 744.746 115.134C744.754 115.228 744.762 115.33 744.762 115.424V115.573C744.762 115.674 744.746 115.745 744.738 115.815C744.738 115.815 744.738 115.894 744.723 115.972L744.684 116.136C744.66 116.246 744.629 116.348 744.598 116.449C744.566 116.536 744.543 116.598 744.519 116.661C744.464 116.794 744.394 116.927 744.316 117.06L744.253 117.162C744.151 117.318 744.034 117.467 743.909 117.6C743.619 117.905 743.298 118.133 742.938 118.297C742.743 118.383 742.594 118.43 742.438 118.469L742.281 118.508C742.14 118.54 742.015 118.555 741.89 118.563C741.811 118.563 741.71 118.579 741.592 118.579H741.506H741.459C728.953 117.984 716.761 125.436 708.848 138.51C703.3 147.677 701.132 158.041 703.801 162.613C704.662 164.085 705.945 164.695 707.995 164.656C719.32 164.304 729.924 147.723 738.446 134.408C742.508 128.067 746.335 122.07 749.974 118.156L750.091 118.046C750.154 117.984 750.217 117.929 750.287 117.874C750.381 117.796 750.459 117.741 750.537 117.686C750.608 117.639 750.694 117.592 750.772 117.545C750.874 117.491 750.968 117.444 751.07 117.397C751.148 117.365 751.226 117.342 751.304 117.318C751.445 117.271 751.547 117.248 751.649 117.224C751.735 117.209 751.813 117.201 751.891 117.193C752.017 117.177 752.126 117.17 752.236 117.17C752.33 117.17 752.408 117.17 752.486 117.185C752.619 117.193 752.729 117.209 752.83 117.224C752.932 117.24 753.018 117.264 753.104 117.295C753.206 117.326 753.323 117.358 753.433 117.404C753.496 117.428 753.574 117.467 753.652 117.506C753.754 117.561 753.84 117.6 753.926 117.655L754.02 117.71C754.137 117.788 754.192 117.835 754.247 117.89C754.278 117.905 754.333 117.952 754.396 118.007L754.521 118.14C754.583 118.211 754.638 118.273 754.685 118.336C754.763 118.43 754.818 118.508 754.873 118.587C754.92 118.657 754.975 118.751 755.022 118.837C755.077 118.939 755.123 119.033 755.163 119.119C755.202 119.205 755.225 119.299 755.257 119.393C755.296 119.51 755.319 119.604 755.335 119.698C755.35 119.792 755.366 119.886 755.374 119.98C755.39 120.097 755.397 120.191 755.397 120.285C755.397 120.379 755.397 120.465 755.382 120.559C755.366 120.7 755.358 120.786 755.343 120.872C755.327 120.974 755.303 121.052 755.28 121.139C755.241 121.287 755.21 121.381 755.17 121.475C755.139 121.561 755.092 121.647 755.053 121.726C755.014 121.812 754.967 121.89 754.92 121.968L754.842 122.101C748.338 131.386 739.057 151.982 743.682 160.037C745.411 163.043 749.348 164.319 755.374 163.818C765.008 163.012 789.456 149.634 807.511 129.632C809.107 123.558 811.275 117.052 813.936 110.281C821.785 90.2951 833.555 69.284 843.925 56.7509C851.829 47.1926 858.231 43.1375 863.498 44.3587C865.603 44.8441 867.16 46.3549 867.778 48.4999C871.026 59.7961 843.987 101.521 813.137 132.873C810.117 144.913 809.796 154.151 812.206 159.607C813.748 163.098 816.362 164.813 820.423 165.008C831.708 165.517 848.002 156.562 867.528 139.011C882.468 125.577 894.175 111.612 894.285 111.478C895.396 110.155 897.368 109.975 898.691 111.071C900.014 112.183 900.194 114.156 899.09 115.487C897.188 117.765 852.244 171.287 821.378 171.294C820.956 171.294 820.541 171.287 820.118 171.263C813.693 170.958 808.974 167.795 806.47 162.135C804.231 157.07 803.778 149.97 805.116 141.015C798.55 147.238 791.139 153.062 783.493 157.994C772.599 165.024 762.276 169.533 755.89 170.065C747.227 170.786 741.287 168.453 738.251 163.161C736.153 159.505 735.629 154.597 736.693 148.53C728.797 159.983 719.539 170.598 708.183 170.95C708.035 170.95 707.886 170.95 707.737 170.95C703.597 170.95 700.365 169.165 698.401 165.799C695.208 160.327 696.084 150.816 700.357 141.273C695.09 146.314 690.137 151.489 685.957 155.849C675.885 166.363 671.659 170.637 668.114 170.817C663.794 171.036 661.76 168.75 660.922 167.372C658.058 162.652 660.007 152.679 666.706 137.688C652.141 153.947 634.869 170.7 625.439 170.801H625.22C619.351 170.801 616.737 168.069 615.571 165.783C613.45 161.611 614.459 154.808 618.56 145.516C614.483 149.508 610.46 153.102 606.539 156.233C598.009 163.059 585.409 171.201 573.85 171.201C571.37 171.201 569.006 170.825 566.823 170.089C560.945 168.1 557.017 164.147 555.146 158.323C553.111 151.982 553.675 143.246 556.813 132.294C553.049 136.701 549.308 140.819 545.653 144.592C527.364 163.474 512.346 172.531 501.077 171.537C497.805 171.247 495.332 169.666 493.931 166.973C492.194 163.654 489.979 152.726 506.39 122.743C505.099 121.718 503.456 120.332 501.781 118.751C466.666 159.826 445.723 174.723 422.011 175.569C421.698 175.577 421.392 175.584 421.087 175.584V175.6ZM430.502 112.864C430.283 112.864 430.071 112.974 429.938 113.169C429.876 113.271 423.161 123.612 417.542 135.386C409.888 151.426 407.697 162.55 411.031 168.461C412.933 171.827 416.619 173.432 421.925 173.252C445.058 172.422 465.695 157.517 500.81 116.293L501.656 115.299L502.861 116.567C504.99 118.634 507.165 120.411 508.613 121.538L509.403 122.156L508.918 123.033C500.137 138.917 492.139 158.519 496.005 165.916C497.038 167.889 498.815 169.009 501.28 169.228C511.829 170.175 526.19 161.337 543.963 142.987C548.799 137.993 553.792 132.372 558.801 126.29L562.917 121.287L560.812 127.417C556.312 140.561 555.146 150.722 557.369 157.634C558.997 162.707 562.432 166.159 567.566 167.897C569.507 168.555 571.62 168.883 573.842 168.883C584.713 168.883 596.82 161.024 605.06 154.424C610.507 150.072 616.165 144.811 621.878 138.807L627.693 132.693L623.764 140.161C617.574 151.927 615.461 160.421 617.652 164.734C618.889 167.177 621.503 168.468 625.204 168.468H625.408C633.03 168.382 649.019 154.683 670.423 129.898L676.472 122.892L672.364 131.182C663.473 149.125 660.116 161.548 662.91 166.159C663.912 167.819 665.626 168.602 667.973 168.476C670.603 168.343 675.361 163.497 684.244 154.229C689.769 148.459 696.64 141.289 703.816 134.838L709.694 129.554L705.491 136.506C699.042 147.16 696.953 158.714 700.404 164.617C702.009 167.365 704.591 168.695 708.089 168.602C720.149 168.226 730.08 154.495 738.438 141.649L743.071 134.525L740.544 142.635C737.883 151.16 737.789 157.673 740.27 161.987C742.813 166.425 748.017 168.359 755.679 167.717C761.697 167.216 771.613 162.84 782.201 156.014C790.732 150.51 798.972 143.88 806.024 136.826L808.724 134.134L808.011 137.883C806.071 148.068 806.266 155.912 808.598 161.188C810.719 165.979 814.726 168.656 820.204 168.922C820.58 168.938 820.963 168.946 821.355 168.946C851.133 168.946 895.396 116.23 897.267 113.984C897.541 113.655 897.494 113.154 897.165 112.88C896.836 112.606 896.335 112.653 896.061 112.982C895.952 113.115 884.205 127.151 869.07 140.756C849.082 158.73 832.225 167.944 820.283 167.349C815.368 167.114 811.924 164.828 810.03 160.546C807.346 154.471 807.644 144.858 810.915 131.973L810.993 131.668L811.22 131.441C843.721 98.4835 868.24 58.6453 865.501 49.1418C865.117 47.8031 864.233 46.9342 862.942 46.6368C858.755 45.6582 852.792 49.6741 845.709 58.2382C835.488 70.5991 823.867 91.3598 816.096 111.134C813.427 117.921 811.275 124.442 809.686 130.501L809.616 130.775L809.428 130.987C801.172 140.177 790.591 148.999 779.627 155.826C769.969 161.846 760.969 165.705 755.546 166.159C748.526 166.746 743.846 165.079 741.624 161.212C736.2 151.763 746.241 130.282 752.846 120.825L753.01 120.45V120.356L752.979 120.074L752.721 119.714C752.721 119.714 752.697 119.69 752.682 119.683L752.447 119.573L752.22 119.542L751.86 119.651L751.633 119.831C748.158 123.589 744.394 129.476 740.411 135.707C731.591 149.5 720.619 166.652 708.05 167.044C705.162 167.13 703.049 166.042 701.766 163.834C698.596 158.401 700.678 147.504 706.829 137.327C715.18 123.526 728.155 115.659 741.53 116.262H741.538H741.639C741.639 116.262 741.671 116.262 741.694 116.262C741.749 116.262 741.772 116.262 741.796 116.254C741.866 116.23 741.905 116.222 741.945 116.207C742.038 116.16 742.117 116.113 742.179 116.042C742.218 116.003 742.242 115.972 742.265 115.933C742.304 115.87 742.32 115.839 742.336 115.808C742.367 115.721 742.375 115.69 742.383 115.651V115.573C742.383 115.573 742.398 115.534 742.398 115.518V115.479C742.398 115.479 742.398 115.447 742.398 115.416V115.33C742.398 115.33 742.375 115.291 742.367 115.267L743.353 114.586L742.312 115.134L742.179 114.946L742.884 114.007L742.109 114.892L741.694 114.719C722.99 111.533 699.003 136.584 683.124 153.164C674.054 162.629 669.953 166.637 668.02 166.918H667.911C666.15 167.02 664.96 166.511 664.264 165.361C662.699 162.777 662.699 155.708 671.565 136.686C676.903 125.233 682.937 114.954 683.187 114.516C683.398 114.164 683.297 113.702 682.96 113.475C682.624 113.24 682.154 113.31 681.904 113.631C681.481 114.164 639.729 166.746 625.4 166.911H625.228C620.532 166.911 619.429 164.742 619.069 164.03C617.48 160.898 617.762 153.438 628.123 135.652C632.913 127.425 638.242 119.863 640.309 116.99C641.036 116.003 641.467 115.4 641.576 115.252C641.842 114.876 641.764 114.383 641.42 114.14C641.075 113.89 640.59 113.96 640.332 114.305C640.003 114.735 639.416 115.541 638.618 116.637C633.578 123.362 620.157 140.365 604.106 153.203C589.729 164.711 576.934 169.4 568.083 166.41C563.379 164.82 560.366 161.791 558.879 157.157C556.117 148.545 558.848 134.682 567.003 115.941L567.136 115.706C567.331 115.44 567.456 115.275 567.472 115.244C567.597 115.072 567.621 114.892 567.621 114.774V114.524L567.723 114.297C570.916 107.142 574.876 99.2898 579.508 90.9762C583.852 83.1714 588.798 74.9125 594.221 66.4345L594.644 65.7769L595.411 65.91C618.748 69.879 628.045 60.8686 628.429 60.485C628.726 60.1875 628.734 59.6943 628.429 59.389C628.131 59.0837 627.63 59.0837 627.317 59.389C626.942 59.7413 618.208 67.6792 597.36 64.6418L595.544 64.3756L596.546 62.8413C602.705 53.3612 607.244 47.0203 607.432 46.7542C607.557 46.5819 607.604 46.3706 607.572 46.167C607.541 45.9635 607.424 45.7835 607.259 45.6582C607.087 45.533 606.884 45.486 606.68 45.5173C606.477 45.5486 606.289 45.666 606.172 45.8304C605.639 46.5741 600.787 53.3456 594.292 63.3893L593.861 64.0547L593.087 63.906C568.834 59.3108 554.685 66.1605 554.09 66.4502C553.706 66.638 553.55 67.1155 553.738 67.4991C553.925 67.8749 554.395 68.0471 554.786 67.8514C554.786 67.8514 558.425 66.0587 565.07 64.8923C570.618 63.9216 579.665 63.1779 591.216 65.1585L592.954 65.456L592.007 66.9433C584.235 79.179 573.357 97.4423 565.727 114.946L565.594 115.181C563.09 118.532 554.051 130.368 542.859 141.915C531.308 153.837 515.187 167.74 502.822 167.74C502.352 167.74 501.898 167.717 501.437 167.678C499.504 167.506 498.189 166.699 497.406 165.204C493.196 157.141 505.882 131.527 511.125 122.336C511.321 121.992 511.227 121.553 510.906 121.319C508.48 119.542 505.827 117.264 503.612 115.064L502.751 114.211L503.628 113.381C509.889 107.416 509.599 102.382 508.965 100.949C508.37 99.6108 506.907 99.0393 504.614 99.2507C499.511 99.7125 496.553 101.263 495.833 103.862C495.16 106.273 496.624 109.647 500.051 113.616L500.709 114.375L500.059 115.142C465.077 156.256 444.62 171.122 421.878 171.936C417.096 172.124 413.833 170.731 412.189 167.827C404.707 154.573 430.784 114.328 431.05 113.921C431.253 113.616 431.159 113.201 430.854 112.997C430.744 112.927 430.619 112.888 430.494 112.888L430.502 112.864ZM751.61 119.847L751.578 119.87C751.578 119.87 751.602 119.855 751.61 119.847ZM741.733 114.704C741.733 114.704 741.757 114.704 741.772 114.704C741.757 114.704 741.749 114.704 741.733 114.704ZM741.624 114.672C741.624 114.672 741.631 114.672 741.639 114.672H741.624ZM811.666 128.795L813.231 123.871C820.369 101.388 834.526 74.2001 846.914 59.2325C850.366 55.06 856.869 48.0537 861.619 48.0537C861.956 48.0537 862.277 48.0928 862.59 48.1554C863.325 48.3277 863.772 48.7739 863.998 49.5645C866.331 57.6746 844.277 94.0918 815.211 125.029L811.674 128.795H811.666ZM861.611 50.4022C859.506 50.4022 855.014 53.1186 848.714 60.7277C837.437 74.3646 824.649 98.3034 817.199 119.401C844.253 89.5592 863.177 57.1736 861.768 50.41C861.713 50.41 861.658 50.41 861.604 50.41L861.611 50.4022ZM501.679 113.052L500.834 112.058C497.962 108.668 496.811 106.108 497.328 104.245C497.985 101.873 501.726 101.051 504.739 100.777C505.428 100.715 505.882 100.738 506.21 100.777L506.977 100.276L507.525 101.568C507.69 101.951 508.926 105.474 502.571 112.105L501.671 113.044L501.679 113.052ZM499.597 104.871C499.41 105.545 499.918 107.087 501.789 109.506C504.723 106.187 505.303 104.073 505.381 103.087C505.256 103.087 505.115 103.094 504.958 103.11C500.857 103.478 499.699 104.503 499.597 104.871Z" fill="black"/>
<path d="M820.728 267.151C819.859 266.502 818.638 266.682 817.989 267.543C817.676 267.958 786.638 309.166 759.771 317.088C744.933 321.472 734.008 319.014 729.806 310.364C728.225 307.107 727.763 303.537 728.162 299.921C737.272 295.482 745.912 291.2 753.855 286.785C761.509 282.534 766.017 277.211 765.931 272.545C765.884 270.189 764.624 268.224 762.479 267.144C757.635 264.701 749.488 266.964 740.7 273.203C731.966 279.395 726.222 288.46 724.609 297.298C723.451 297.862 722.285 298.425 721.111 298.997C706.735 305.972 691.615 313.315 676.754 321.934C683.625 304.946 689.573 289.439 693.916 278.119L695.677 273.524C695.677 273.524 695.685 273.477 695.692 273.453C695.716 273.375 695.739 273.297 695.755 273.218C695.763 273.179 695.771 273.14 695.779 273.101C695.794 272.991 695.802 272.882 695.802 272.772C695.802 272.756 695.802 272.733 695.802 272.717C695.802 272.616 695.786 272.514 695.763 272.412C695.763 272.373 695.747 272.342 695.732 272.302C695.708 272.224 695.685 272.154 695.653 272.075C695.638 272.036 695.622 271.997 695.598 271.958C695.583 271.927 695.575 271.895 695.559 271.872C695.434 271.645 692.413 266.314 683.273 266.024C670.321 265.617 657.838 272.334 649.003 284.248C630.979 304.289 611.101 317.613 597.156 318.724C590.159 319.28 585.479 317.581 583.241 313.667C577.481 303.584 587.764 281.156 592.828 273.939C592.843 273.923 592.843 273.899 592.859 273.884C592.898 273.821 592.93 273.759 592.961 273.696C592.984 273.641 593.016 273.586 593.039 273.531C593.063 273.469 593.078 273.406 593.102 273.344C593.117 273.281 593.141 273.226 593.149 273.164C593.156 273.101 593.164 273.038 593.172 272.976C593.172 272.913 593.188 272.85 593.18 272.788C593.18 272.725 593.172 272.663 593.164 272.6C593.164 272.537 593.149 272.475 593.141 272.42C593.125 272.357 593.109 272.295 593.086 272.232C593.07 272.177 593.055 272.115 593.031 272.06C593.008 271.997 592.976 271.942 592.945 271.888C592.914 271.833 592.883 271.778 592.851 271.723C592.82 271.668 592.773 271.621 592.734 271.574C592.695 271.52 592.648 271.473 592.601 271.426C592.585 271.41 592.577 271.394 592.562 271.379C592.53 271.347 592.483 271.324 592.452 271.293C592.421 271.269 592.389 271.238 592.358 271.206C592.343 271.199 592.327 271.191 592.303 271.175C592.241 271.136 592.178 271.105 592.116 271.066C592.061 271.042 592.014 271.011 591.959 270.987C591.896 270.964 591.834 270.94 591.763 270.925C591.709 270.909 591.646 270.893 591.591 270.878C591.529 270.87 591.466 270.862 591.403 270.854C591.341 270.854 591.278 270.846 591.216 270.846C591.153 270.846 591.09 270.854 591.028 270.862C590.965 270.862 590.91 270.878 590.848 270.886C590.785 270.901 590.723 270.917 590.66 270.94C590.605 270.956 590.543 270.972 590.488 270.995C590.425 271.019 590.37 271.05 590.316 271.081C590.261 271.113 590.206 271.136 590.151 271.175C590.096 271.214 590.05 271.253 590.003 271.293C589.948 271.332 589.901 271.379 589.854 271.426C589.838 271.441 589.823 271.449 589.807 271.473C586.246 275.308 582.443 281.258 578.412 287.56C569.741 301.111 558.949 317.981 547.007 318.348C544.565 318.427 542.843 317.566 541.771 315.718C538.852 310.724 540.981 300.077 546.827 290.409C548.204 288.139 549.707 286.041 551.311 284.108C553.471 281.9 554.707 280.53 554.739 280.499C554.809 280.42 554.864 280.334 554.919 280.248C562.291 273.234 571.314 269.484 580.517 269.915C581.605 269.977 582.513 269.132 582.56 268.052C582.607 266.971 581.777 266.055 580.698 266.008C568.739 265.453 557.126 271.113 548.447 281.438C538.821 291.239 510.467 317.934 487.302 317.934C486.833 317.934 486.363 317.926 485.901 317.902C481.37 317.683 478.334 315.702 476.628 311.827C474.295 306.543 474.507 297.87 477.082 286.887C507.587 256.129 535.346 213.856 532.192 202.889C531.691 201.143 530.478 199.961 528.772 199.57C523.92 198.45 517.534 202.638 509.771 212.025C495.582 229.184 479.648 260.129 473.622 284.71C460.005 297.65 434.555 318.842 414.615 317.902C410.083 317.683 407.047 315.695 405.341 311.827C402.977 306.473 403.22 297.627 405.896 286.425C410.952 281.344 415.233 276.663 418.371 273.109C441.09 247.362 459.857 218.013 461.101 206.302C461.657 201.112 458.753 199.867 457.477 199.57C452.633 198.45 446.239 202.638 438.476 212.025C424.334 229.129 408.456 259.934 402.383 284.475C382.137 304.782 363.644 317.01 349.792 319.108C344.846 319.703 341.583 318.771 340.088 316.329C337.122 311.491 339.892 300.148 347.89 284.405C354.214 271.95 361.656 260.967 361.727 260.857C362.337 259.965 362.102 258.744 361.21 258.141C360.318 257.53 359.097 257.765 358.494 258.658C355.356 263.276 328.067 304.195 336.754 318.372C338.444 321.135 341.262 322.709 345.143 323.1C345.425 323.257 345.738 323.351 346.082 323.351H346.114C347.46 323.327 348.829 323.202 350.215 322.998C350.293 322.991 350.363 322.983 350.449 322.975C350.504 322.975 350.551 322.951 350.598 322.944C367.228 320.313 386.355 305.236 400.927 291.302C399.338 300.289 399.393 308.046 401.757 313.409C404.057 318.615 408.44 321.527 414.427 321.809C414.912 321.832 415.397 321.84 415.882 321.84C435.017 321.84 457.869 304.351 472.214 291.349C470.633 300.312 470.688 308.054 473.051 313.401C475.352 318.607 479.735 321.519 485.721 321.801C486.254 321.824 486.786 321.84 487.326 321.84C499.808 321.84 514.795 315.037 531.902 301.588C534.884 299.24 537.686 296.883 540.229 294.629C536.246 303.686 535.424 312.595 538.398 317.683C540.151 320.681 543.023 322.255 546.725 322.255C546.858 322.255 546.999 322.255 547.14 322.255C560.342 321.848 570.813 306.645 580.048 292.28C577.481 300.633 576.417 309.534 579.876 315.593C582.584 320.329 587.553 322.724 594.675 322.724C595.583 322.724 596.522 322.685 597.492 322.607C609.74 321.636 626.041 312.094 641.857 297.181C638.696 305.385 638.273 313.08 641.02 317.738C642.773 320.705 645.637 322.263 649.331 322.263C649.472 322.263 649.605 322.263 649.746 322.263C663.762 321.832 674.688 304.743 684.329 289.666C685.135 288.405 685.933 287.161 686.716 285.947C682.42 297.095 677.114 310.708 671.205 325.206C649.355 338.444 628.334 354.742 611.36 377.084C598.329 394.236 587.091 419.631 591.92 432.915C593.438 437.104 596.522 439.836 600.834 440.814C601.718 441.018 602.618 441.12 603.534 441.12C619.522 441.12 639.776 410.104 668.56 341.81C670.532 337.128 672.465 332.471 674.335 327.899C690.496 318.192 707.111 310.129 722.833 302.496C723.279 302.285 723.717 302.066 724.163 301.854C724.101 305.455 724.789 308.931 726.308 312.055C728.734 317.049 736.951 327.899 760.898 320.83C789.001 312.54 819.836 271.606 821.135 269.868C821.785 268.999 821.605 267.778 820.744 267.128L820.728 267.151ZM742.969 276.397C749.3 271.911 754.599 270.111 758.026 270.111C759.13 270.111 760.045 270.298 760.726 270.643C761.579 271.073 762.002 271.723 762.025 272.631C762.072 274.98 759.466 279.199 751.969 283.372C744.91 287.294 737.264 291.129 729.211 295.067C731.473 287.763 736.794 280.788 742.977 276.397H742.969ZM412.729 265.437C420.218 246.594 431.511 226.624 441.497 214.553C447.382 207.429 452.664 203.335 455.873 203.335C456.131 203.335 456.374 203.359 456.601 203.413C457.172 203.547 457.376 204.384 457.211 205.919C456.061 216.753 437.318 245.741 415.436 270.549C412.955 273.367 410.482 276.076 408.033 278.675C409.316 274.494 410.882 270.064 412.729 265.437ZM484.023 265.437C491.513 246.594 502.806 226.624 512.791 214.553C518.677 207.429 523.959 203.335 527.168 203.335C527.426 203.335 527.669 203.359 527.896 203.413C528.138 203.468 528.303 203.539 528.436 204.001C530.533 211.297 509.16 247.44 479.195 279.105C480.501 274.8 482.114 270.228 484.023 265.437ZM681.027 287.583C672.355 301.142 661.563 318.012 649.621 318.38C647.179 318.45 645.457 317.605 644.377 315.781C641.537 310.966 643.532 300.61 649.128 291.153C650.051 289.595 651.03 288.123 652.063 286.722C653.667 284.937 655.256 283.105 656.829 281.219C656.868 281.172 656.891 281.125 656.923 281.078C664.13 273.939 672.997 269.93 682.153 269.93C682.49 269.93 682.827 269.93 683.163 269.946C687.686 270.095 690.136 271.692 691.294 272.772C688.062 276.585 684.634 281.939 681.034 287.575L681.027 287.583ZM664.944 340.315C654.371 365.389 622.222 441.691 601.687 437.025C598.658 436.336 596.662 434.567 595.59 431.608C591.834 421.267 600.122 398.369 614.467 379.487C629.884 359.196 648.799 343.939 668.661 331.414C667.441 334.357 666.204 337.332 664.944 340.315Z" fill="black"/>
<path d="M603.518 442.31C602.524 442.31 601.53 442.2 600.552 441.981C595.832 440.908 592.459 437.918 590.8 433.338C585.831 419.662 597.194 393.798 610.412 376.395C625.438 356.613 644.455 340.096 670.25 324.423C674.39 314.27 678.24 304.508 681.433 296.328C672.574 309.855 662.51 323.069 649.769 323.46C649.613 323.46 649.464 323.46 649.315 323.46C645.183 323.46 641.959 321.699 639.987 318.356C637.568 314.262 637.349 308.133 639.29 301.126C624.108 314.677 609.058 322.881 597.562 323.797C596.56 323.875 595.574 323.914 594.651 323.914C587.083 323.914 581.761 321.315 578.834 316.188C576.001 311.233 576.119 304.688 577.222 298.715C568.246 312.086 558.917 323.077 547.155 323.437C546.998 323.437 546.85 323.437 546.709 323.437C542.569 323.437 539.337 321.652 537.372 318.286C534.751 313.792 534.829 306.504 537.443 298.59C535.823 299.96 534.203 301.275 532.614 302.52C514.552 316.72 498.72 323.609 485.658 322.983C479.194 322.678 474.467 319.531 471.971 313.886C469.905 309.197 469.427 302.661 470.539 294.425C454.754 308.344 432.817 323.867 414.364 322.991C407.899 322.685 403.173 319.538 400.676 313.894C398.61 309.221 398.133 302.715 399.228 294.519C385.721 307.084 367.142 321.503 350.817 324.102C350.731 324.126 350.66 324.141 350.59 324.149L350.41 324.165C348.86 324.392 347.467 324.509 346.121 324.533C345.644 324.533 345.205 324.439 344.799 324.259C340.643 323.797 337.599 322.028 335.744 318.998C331.878 312.689 334.03 301.056 342.13 284.429C348.312 271.731 356.037 260.192 357.516 258.008C357.985 257.319 358.697 256.849 359.519 256.693C360.341 256.536 361.17 256.709 361.867 257.178C363.291 258.149 363.667 260.098 362.697 261.531C362.384 261.993 355.09 272.827 348.931 284.953C341.238 300.101 338.381 311.319 341.081 315.734C342.31 317.746 345.19 318.497 349.643 317.957C363.033 315.922 381.385 303.827 401.31 283.888C407.203 260.349 422.745 229.2 437.56 211.289C445.746 201.394 452.343 197.182 457.735 198.435C458.964 198.717 462.932 200.134 462.259 206.435C460.991 218.358 442.091 247.988 419.239 273.892C415.271 278.385 411.139 282.808 406.945 287.028C404.37 297.94 404.182 306.348 406.397 311.358C407.931 314.826 410.552 316.54 414.653 316.736C434.046 317.628 459.152 296.797 472.55 284.1C478.411 260.513 493.97 229.27 508.847 211.281C517.033 201.386 523.63 197.174 529.022 198.427C531.127 198.912 532.692 200.423 533.303 202.568C536.59 213.99 509.285 255.988 478.13 287.474C475.657 298.159 475.5 306.41 477.684 311.35C479.218 314.818 481.839 316.525 485.94 316.728C509.16 317.848 539.024 289.329 547.562 280.647C556.507 270.032 568.598 264.263 580.736 264.834C581.574 264.873 582.34 265.234 582.904 265.852C583.467 266.47 583.757 267.269 583.718 268.107C583.679 268.952 583.311 269.727 582.685 270.291C582.067 270.846 581.26 271.128 580.431 271.081C571.752 270.666 562.995 274.197 555.803 281C555.74 281.094 555.67 281.188 555.591 281.274C555.591 281.274 554.37 282.636 552.163 284.89C550.583 286.785 549.119 288.844 547.804 291.012C542.256 300.179 540.088 310.544 542.757 315.115C543.61 316.579 544.924 317.237 546.944 317.159C558.276 316.806 568.88 300.234 577.402 286.91C581.464 280.561 585.291 274.573 588.93 270.659L589.047 270.541C589.11 270.479 589.18 270.424 589.251 270.369C589.321 270.306 589.407 270.244 589.486 270.189C589.572 270.134 589.658 270.079 589.752 270.032C589.83 269.985 589.924 269.938 590.018 269.899C590.112 269.86 590.198 269.829 590.292 269.805C590.401 269.774 590.495 269.743 590.597 269.727C590.683 269.711 590.769 269.696 590.855 269.688C590.988 269.672 591.09 269.664 591.192 269.664C591.286 269.664 591.379 269.664 591.473 269.68C591.606 269.688 591.7 269.704 591.794 269.719C591.88 269.735 591.959 269.758 592.037 269.782C592.186 269.821 592.287 269.852 592.389 269.891C592.467 269.923 592.538 269.954 592.608 269.993C592.726 270.048 592.812 270.095 592.898 270.15L593.015 270.22C593.101 270.283 593.156 270.33 593.211 270.377C593.234 270.392 593.297 270.439 593.359 270.494L593.477 270.619C593.539 270.682 593.594 270.745 593.649 270.815C593.735 270.917 593.782 270.98 593.829 271.05C593.892 271.144 593.939 271.23 593.986 271.308C594.048 271.434 594.095 271.512 594.126 271.606C594.165 271.7 594.189 271.786 594.22 271.872C594.259 271.989 594.283 272.083 594.306 272.177C594.322 272.263 594.338 272.35 594.346 272.436C594.361 272.569 594.369 272.67 594.369 272.764C594.369 272.858 594.369 272.952 594.353 273.054C594.345 273.187 594.33 273.281 594.314 273.375C594.299 273.469 594.267 273.571 594.244 273.665C594.22 273.759 594.189 273.86 594.15 273.962C594.111 274.048 594.072 274.126 594.032 274.213C593.986 274.307 593.939 274.393 593.892 274.471L593.798 274.628C589.032 281.438 578.858 303.6 584.281 313.088C586.269 316.572 590.573 318.075 597.085 317.558C610.631 316.478 630.181 303.436 648.118 283.505C657.235 271.23 670.062 264.427 683.335 264.85C693.133 265.163 696.475 271.058 696.615 271.308L696.694 271.473C696.725 271.543 696.748 271.59 696.772 271.645C696.811 271.747 696.858 271.872 696.889 271.997C696.905 272.06 696.921 272.115 696.936 272.169C696.968 272.326 696.991 272.49 696.999 272.647V272.764C697.007 272.913 696.999 273.085 696.968 273.265C696.96 273.336 696.944 273.391 696.936 273.445C696.913 273.563 696.881 273.672 696.85 273.782L696.803 273.939L695.042 278.534C690.965 289.172 685.479 303.475 679.148 319.217C693.086 311.303 707.079 304.508 720.633 297.932L723.599 296.492C725.462 287.278 731.582 278.252 740.057 272.24C749.214 265.742 757.807 263.449 763.05 266.095C765.594 267.379 767.088 269.719 767.143 272.522C767.245 277.626 762.51 283.34 754.465 287.81C746.295 292.351 737.24 296.821 729.312 300.688C729.038 304.038 729.578 307.115 730.901 309.855C734.822 317.941 745.238 320.173 759.474 315.969C785.965 308.148 816.775 267.253 817.081 266.846C817.581 266.181 818.309 265.742 819.139 265.625C819.968 265.5 820.79 265.719 821.463 266.22C822.136 266.721 822.567 267.449 822.684 268.279C822.801 269.109 822.59 269.931 822.089 270.604C820.782 272.357 789.713 313.581 761.242 321.989C736.434 329.316 727.818 317.863 725.266 312.603C723.959 309.902 723.208 306.935 723.044 303.749C707.376 311.35 691.192 319.217 675.297 328.745C673.396 333.395 671.502 337.951 669.671 342.303C640.511 411.482 620.116 442.325 603.557 442.325L603.518 442.31ZM691.881 275.81L687.803 286.386C684.125 295.928 678.522 310.372 672.284 325.668L672.136 326.028L671.807 326.232C646.107 341.802 627.191 358.195 612.29 377.812C605.623 386.588 599.698 397.179 596.036 406.879C591.919 417.776 590.879 426.637 593.015 432.524C594.392 436.321 597.186 438.795 601.084 439.679C601.882 439.859 602.704 439.953 603.525 439.953C618.794 439.953 639.118 408.624 667.471 341.364C669.35 336.909 671.291 332.228 673.239 327.469L673.388 327.108L673.724 326.905C689.924 317.174 706.39 309.182 722.308 301.455L725.36 299.976L725.329 301.886C725.266 305.408 725.955 308.665 727.356 311.554C729.649 316.282 737.475 326.529 760.561 319.711C788.297 311.522 818.904 270.901 820.195 269.171C820.321 269.007 820.375 268.795 820.344 268.592C820.313 268.388 820.203 268.201 820.039 268.075C819.874 267.95 819.663 267.895 819.46 267.927C819.256 267.958 819.068 268.067 818.943 268.232C818.63 268.655 787.35 310.168 760.123 318.208C744.675 322.772 733.249 320.094 728.772 310.865C727.168 307.553 726.573 303.819 727.019 299.78L727.09 299.138L727.669 298.856C735.706 294.942 744.98 290.378 753.299 285.752C760.46 281.775 764.85 276.718 764.764 272.561C764.725 270.627 763.731 269.077 761.962 268.185C757.58 265.969 749.691 268.255 741.388 274.15C733.217 279.943 727.379 288.671 725.767 297.502L725.658 298.089L721.627 300.046C707.157 307.068 692.186 314.333 677.348 322.944L674.39 324.658L675.673 321.488C682.536 304.524 688.476 289.032 692.812 277.72L694.588 273.062C694.588 273.062 694.604 273.015 694.612 272.976C694.628 272.89 694.635 272.843 694.635 272.804C694.635 272.741 694.628 272.702 694.62 272.663C694.596 272.584 694.588 272.561 694.581 272.53L694.534 272.412C694.268 271.95 691.466 267.465 683.256 267.198C670.766 266.791 658.628 273.273 649.965 284.953L649.894 285.039C631.566 305.416 611.398 318.779 597.265 319.899C589.783 320.493 584.72 318.599 582.239 314.254C576.15 303.6 586.465 281.039 591.841 273.328L592.013 272.866L591.935 272.475L591.716 272.209C591.716 272.209 591.685 272.185 591.669 272.169L591.622 272.138C591.622 272.138 591.606 272.138 591.583 272.122L591.278 272.036L590.98 272.076L590.613 272.318C587.13 276.091 583.366 281.97 579.39 288.194C570.57 301.98 559.598 319.139 547.03 319.531C544.181 319.625 542.037 318.544 540.745 316.321C537.576 310.888 539.658 299.991 545.809 289.814C547.186 287.536 548.736 285.368 550.403 283.372L550.465 283.301C552.633 281.094 553.846 279.747 553.854 279.732C553.885 279.692 553.909 279.653 553.932 279.622L554.104 279.411C561.782 272.107 571.157 268.31 580.564 268.756C580.846 268.772 581.018 268.662 581.12 268.561C581.276 268.42 581.37 268.224 581.378 268.005C581.386 267.793 581.315 267.598 581.174 267.441C581.034 267.285 580.838 267.198 580.634 267.183C569.208 266.65 557.806 272.122 549.33 282.197L549.268 282.26C544.549 287.067 534.931 296.328 523.614 304.32C509.715 314.137 497.491 319.108 487.286 319.108C486.801 319.108 486.308 319.1 485.83 319.077C480.877 318.842 477.418 316.564 475.539 312.305C473.129 306.849 473.262 297.964 475.923 286.62L476.001 286.299L476.236 286.065C505.865 256.192 534.038 213.606 531.057 203.226C530.673 201.887 529.789 201.018 528.498 200.721C524.17 199.719 518.011 203.891 510.662 212.784C495.91 230.625 480.47 261.672 474.749 285L474.663 285.337L474.412 285.571C461.1 298.222 436.049 319.116 415.874 319.116C415.428 319.116 414.982 319.108 414.536 319.084C409.582 318.85 406.123 316.572 404.245 312.313C401.803 306.778 401.967 297.737 404.738 286.166L404.816 285.845L405.051 285.611C409.292 281.352 413.472 276.89 417.478 272.342C440.056 246.751 458.698 217.692 459.927 206.185C460.365 202.083 458.408 201.002 457.203 200.721C452.883 199.719 446.716 203.891 439.368 212.784C424.686 230.539 409.269 261.484 403.509 284.765L403.431 285.078L403.204 285.305C382.543 306.027 364.137 318.122 349.964 320.274C344.486 320.932 340.839 319.812 339.086 316.947C335 310.278 341.05 295.286 346.841 283.881C353.063 271.629 360.435 260.677 360.748 260.216C360.998 259.848 360.904 259.362 360.544 259.12C360.372 259.002 360.169 258.963 359.957 258.994C359.754 259.034 359.574 259.151 359.457 259.323C348.226 275.849 331.009 306.763 337.747 317.769C339.25 320.227 341.707 321.589 345.252 321.942L345.495 321.965L345.706 322.083C345.832 322.153 345.957 322.184 346.074 322.184C347.326 322.169 348.618 322.051 350.034 321.848L350.347 321.801C367.173 319.139 386.691 303.287 400.113 290.456L402.703 287.983L402.077 291.513C400.426 300.86 400.676 308.07 402.828 312.939C404.933 317.714 408.964 320.376 414.481 320.642C414.943 320.666 415.412 320.674 415.882 320.674C426.032 320.674 443.907 315.436 471.423 290.488L473.958 288.186L473.364 291.56C471.72 300.891 471.971 308.078 474.115 312.939C476.22 317.714 480.251 320.376 485.768 320.642C498.274 321.237 513.558 314.513 531.159 300.68C533.874 298.543 536.66 296.218 539.438 293.768L543.438 290.237L541.293 295.122C537.388 303.999 536.66 312.43 539.399 317.112C541.004 319.859 543.594 321.175 547.092 321.096C559.371 320.721 569.216 306.958 579.046 291.662L583.671 284.468L581.159 292.64C579.077 299.428 577.332 308.814 580.885 315.029C583.687 319.93 589.204 322.098 597.39 321.456C609.207 320.517 625.117 311.366 641.035 296.343L644.792 292.797L642.937 297.619C639.861 305.612 639.517 312.916 642.021 317.159C643.626 319.875 646.216 321.19 649.706 321.104C663.097 320.689 673.85 303.882 683.335 289.047C684.141 287.787 684.939 286.542 685.722 285.321L691.881 275.802V275.81ZM694.51 272.389C694.51 272.389 694.51 272.389 694.51 272.396V272.389ZM591.708 272.185C591.708 272.185 591.716 272.193 591.724 272.201L591.708 272.185ZM603.533 438.395C602.821 438.395 602.117 438.317 601.428 438.161C598.024 437.386 595.692 435.311 594.486 432C590.605 421.322 598.971 397.939 613.535 378.767C627.262 360.7 645.089 344.879 668.035 330.412L671.157 328.447L669.749 331.852C668.528 334.804 667.291 337.778 666.031 340.761L664.951 340.307L666 340.831C648.165 383.128 622.597 438.388 603.533 438.395ZM666.141 334.412C644.94 348.182 628.318 363.181 615.397 380.184C601.271 398.784 593.046 421.189 596.685 431.193C597.625 433.785 599.299 435.264 601.945 435.867C607.571 437.151 618.043 431.843 635.988 399.309C647.875 377.765 658.652 352.206 663.832 339.923L664.944 340.307L663.864 339.853C664.631 338.037 665.39 336.221 666.141 334.412ZM649.346 319.554C646.623 319.554 644.612 318.489 643.367 316.376C640.268 311.131 642.225 300.516 648.118 290.558C649.033 289.008 650.043 287.482 651.115 286.026L651.186 285.939C652.845 284.092 654.441 282.252 655.92 280.475L656.092 280.248C663.84 272.569 673.49 268.451 683.194 268.78C687.944 268.929 690.652 270.572 692.092 271.927L692.906 272.694L692.186 273.547C689.001 277.305 685.612 282.612 682.02 288.225C673.2 302.011 662.228 319.17 649.66 319.562C649.558 319.562 649.456 319.562 649.354 319.562L649.346 319.554ZM652.978 287.466C651.968 288.844 651.013 290.284 650.145 291.756C644.839 300.719 642.796 310.786 645.394 315.186C646.24 316.618 647.586 317.26 649.589 317.206C660.921 316.853 671.525 300.273 680.04 286.957C683.389 281.712 686.575 276.741 689.627 272.96C688.429 272.146 686.379 271.238 683.123 271.136C674.124 270.854 665.116 274.667 657.838 281.837C657.806 281.892 657.767 281.939 657.728 281.986C656.241 283.779 654.637 285.626 652.97 287.482L652.978 287.466ZM727.278 297.314L728.084 294.715C730.369 287.333 735.683 280.123 742.296 275.434C748.126 271.3 753.855 268.929 758.034 268.929C759.309 268.929 760.397 269.148 761.258 269.586C762.502 270.212 763.175 271.254 763.199 272.6C763.254 275.403 760.483 279.974 752.532 284.389C745.042 288.554 736.794 292.656 729.719 296.116L727.278 297.314ZM758.026 271.285C756.273 271.285 751.374 271.88 743.649 277.36C738.257 281.188 733.781 286.793 731.3 292.734C737.717 289.58 744.855 285.986 751.389 282.346C758.941 278.15 760.874 274.173 760.843 272.655C760.843 272.263 760.726 271.966 760.194 271.692C759.669 271.426 758.918 271.285 758.026 271.285ZM476.627 283.536L478.075 278.769C479.398 274.408 481.033 269.782 482.935 265.007C490.471 246.062 501.835 225.967 511.883 213.81C515.483 209.457 522.245 202.161 527.167 202.161C527.512 202.161 527.848 202.2 528.161 202.271C528.897 202.443 529.343 202.889 529.57 203.68C531.941 211.931 509.559 248.732 480.055 279.919L476.627 283.544V283.536ZM485.118 265.868C483.96 268.788 482.896 271.653 481.949 274.432C511.132 242.563 528.607 210.741 527.363 204.51C527.3 204.51 527.238 204.51 527.175 204.51C524.976 204.51 520.288 207.343 513.707 215.305C503.799 227.29 492.577 247.135 485.126 265.876L485.118 265.868ZM405.442 283.145L406.921 278.322C408.228 274.087 409.817 269.602 411.648 264.999C419.184 246.054 430.548 225.959 440.596 213.802C444.188 209.457 450.958 202.161 455.873 202.161C456.217 202.161 456.553 202.2 456.867 202.271C458.111 202.56 458.62 203.828 458.385 206.044C457.211 217.082 438.342 246.367 416.328 271.324C413.863 274.119 411.366 276.859 408.901 279.481L405.442 283.153V283.145ZM455.88 204.502C453.681 204.502 448.994 207.336 442.412 215.297C432.504 227.282 421.282 247.127 413.831 265.868C412.736 268.615 411.734 271.316 410.826 273.946C412.078 272.577 413.331 271.175 414.567 269.774C436.316 245.123 454.926 216.424 456.053 205.793C456.123 205.097 456.1 204.713 456.068 204.517C456.006 204.517 455.943 204.517 455.873 204.517L455.88 204.502Z" fill="black"/>
<path d="M390.418 62.0276C396.13 60.509 402.11 58.8493 408.183 57.1741C423.06 53.0564 438.446 48.7978 450.419 46.4572C467.856 43.0519 471.354 46.0032 471.354 46.0032L472.089 45.9875C473.569 45.964 474.782 44.7976 474.875 43.3258C472.324 39.49 464.874 39.2082 453.072 41.2592C441.654 43.2476 426.159 47.4279 407.095 52.7042C401.804 54.1681 396.467 55.6476 391.278 57.0332C396.201 26.5185 392.499 7.93414 380.486 3.15105C373.427 0.340693 365.179 3.67554 357.267 12.545C345.778 25.4304 336.606 49.0092 341.521 61.2839C342.969 64.8928 346.271 69.1906 353.808 69.1906C361.344 69.1906 372.449 66.7011 385.777 63.2489C376.777 109.937 351.202 173.972 320.32 227.017C285.479 286.872 250.661 321.003 224.546 321.003C224.17 321.003 223.795 321.003 223.419 320.98C216.149 320.698 210.686 317.817 206.726 312.157C187.764 285.103 207.282 203.195 224.499 130.924C240.284 64.6814 249.221 23.5125 240.339 10.4157C238.539 7.76194 236.066 6.29806 232.998 6.07887C218.52 5.03771 194.197 44.187 177.152 73.7153C156.413 109.655 130.689 159.975 100.692 223.283C49.6353 331.023 3.27423 440.541 2.8125 441.637L6.75679 443.539C7.21853 442.443 53.5405 333.027 104.55 225.381C193.805 37.0084 223.129 10.04 232.716 10.6975C234.493 10.8228 235.8 11.5978 236.841 13.1321C245.175 25.4147 233.1 76.1107 220.312 129.789C202.852 203.062 183.068 286.105 203.275 314.928C208.01 321.684 214.74 325.27 223.278 325.598C238.241 326.186 255.286 316.932 273.865 298.145C290.01 281.823 307.345 258.072 324.006 229.459C355.506 175.342 381.551 109.796 390.347 62.4739C390.371 62.3251 390.402 62.1764 390.425 62.0276H390.418ZM386.685 58.2466C373.02 61.8241 360.828 64.564 353.808 64.564C349.589 64.564 346.874 62.8966 345.496 59.46C341.654 49.8782 348.893 28.6243 360.397 15.7311C363.606 12.1301 369.381 6.79122 375.392 6.79122C376.581 6.79122 377.786 7.00258 378.976 7.47228C388.915 11.4256 391.623 29.4071 386.685 58.2387V58.2466Z" fill="black" stroke="black" stroke-width="2"/>
<path d="M7.35028 445.128L1.29297 442.2L1.73122 441.175C2.19296 440.087 48.4523 330.788 99.6264 222.789C129.639 159.458 155.379 109.107 176.133 73.1357C194.524 41.2667 217.454 4.88864 232.433 4.88864C232.652 4.88864 232.864 4.88861 233.075 4.9121C236.518 5.15477 239.289 6.79089 241.3 9.75781C250.456 23.2538 241.488 64.642 225.632 131.198C208.47 203.226 189.023 284.86 207.68 311.484C211.42 316.823 216.586 319.539 223.457 319.805C223.809 319.821 224.177 319.829 224.537 319.829C250.206 319.829 284.742 285.783 319.302 226.429C349.612 174.355 374.983 111.197 384.257 64.8533C369.341 68.6657 359.903 70.3645 353.798 70.3645C345.605 70.3645 341.997 65.6596 340.416 61.722C338.021 55.749 338.624 46.8874 342.114 36.7654C345.284 27.575 350.613 18.228 356.373 11.7697C364.637 2.50099 373.348 -0.94343 380.908 2.06263C393.218 6.96314 397.287 25.3988 392.709 55.4281C397.374 54.1677 402.147 52.8526 406.773 51.5687C425.117 46.4882 441.254 42.12 452.86 40.1003C466.047 37.8066 473.129 38.5973 475.845 42.668L476.064 42.9968L476.04 43.3882C475.907 45.4627 474.178 47.1144 472.104 47.1536L470.922 47.1771L470.586 46.8952C470.586 46.8952 466.798 44.4528 450.637 47.6076C438.703 49.9405 423.34 54.1912 408.494 58.3011L408.197 58.3872C402.359 59.9998 396.834 61.5342 391.434 62.9746C382.559 110.406 356.506 175.937 325.007 230.054C308.306 258.744 290.901 282.582 274.694 298.974C255.849 318.028 238.553 327.391 223.222 326.78C214.3 326.436 207.257 322.678 202.303 315.609C181.799 286.355 201.654 203.031 219.16 129.523C231.33 78.4511 243.906 25.6571 235.861 13.7972C235.024 12.5682 234.03 11.9732 232.621 11.8715C225.155 11.3861 197.866 31.176 105.605 225.881C55.0731 332.518 9.7372 439.492 7.83549 443.993L7.3581 445.128H7.35028ZM4.32945 441.058L6.1529 441.934C11.4746 429.393 55.0966 326.984 103.485 224.871C188.537 45.3766 220.733 8.69317 232.785 9.52297C234.922 9.67171 236.558 10.6424 237.802 12.4743C246.426 25.1874 234.296 76.1183 221.446 130.04C204.041 203.085 184.319 285.862 204.221 314.255C208.728 320.69 215.153 324.111 223.308 324.424C237.896 325.003 254.659 315.883 273.019 297.314C289.093 281.063 306.373 257.39 322.972 228.864C354.409 174.857 380.399 109.459 389.172 62.2543L389.383 61.0801L390.103 60.8922C395.714 59.397 401.467 57.8079 407.563 56.1248L407.86 56.0387C422.753 51.9132 438.155 47.6546 450.183 45.2983C465.115 42.3783 470.233 44.0536 471.666 44.8129H472.065C472.8 44.7894 473.426 44.2962 473.63 43.6152C471.298 40.8283 464.622 40.4291 453.267 42.4096C441.763 44.4137 425.688 48.7662 407.406 53.8233C402.194 55.2637 396.802 56.7589 391.574 58.1602L389.821 58.6298L390.111 56.8372C394.932 26.9644 391.449 8.77928 380.039 4.23104C373.465 1.61639 365.686 4.84168 358.126 13.3197C346.865 25.9468 337.833 48.9541 342.6 60.8374C344.509 65.597 348.273 68.0082 353.798 68.0082C359.934 68.0082 369.701 66.1841 385.47 62.1056L387.27 61.6438L386.918 63.4678C377.902 110.21 352.155 174.637 321.321 227.604C286.339 287.701 251.059 322.169 224.529 322.169C224.138 322.169 223.746 322.169 223.363 322.146C215.701 321.848 209.934 318.803 205.747 312.822C186.479 285.337 206.06 203.156 223.339 130.642C239.046 64.7124 247.96 23.7627 239.351 11.0652C237.763 8.71668 235.587 7.43284 232.895 7.24496C217.47 6.14117 187.88 57.4399 178.152 74.2943C157.429 110.203 131.721 160.499 101.732 223.775C53.234 326.13 9.15025 429.644 4.3138 441.042L4.32945 441.058ZM353.814 65.7379C349.126 65.7379 345.965 63.7731 344.407 59.8981C340.432 49.9718 347.772 28.1308 359.519 14.9558C363.315 10.6972 369.153 5.6245 375.39 5.6245C376.776 5.6245 378.129 5.88282 379.405 6.39165C390.025 10.6189 392.944 28.624 387.841 58.4498L387.716 59.1935L386.981 59.3892C370.178 63.7887 359.95 65.7458 353.806 65.7458L353.814 65.7379ZM375.398 7.96515C369.74 7.96515 364.121 13.3197 361.28 16.5136C350.034 29.1328 342.897 49.7839 346.599 59.0212C347.796 62.0038 350.089 63.3894 353.822 63.3894C361.257 63.3894 374.631 60.1799 385.666 57.2991C391.942 19.8877 383.921 10.7051 378.552 8.56794C377.55 8.1687 376.494 7.96515 375.398 7.96515Z" fill="black" stroke="black" stroke-width="2"/>
<path d="M449.066 78.0277C447.681 79.5386 446.194 83.2413 446.507 85.3002C446.617 85.989 447.149 86.9441 447.783 87.2181C447.892 87.359 448.104 87.359 448.315 87.359C450.334 87.359 452.47 83.7893 453.003 81.8714C453.644 79.5385 452.791 77.8946 451.617 77.3466C451.085 77.0726 450.13 76.7987 449.058 78.0355L449.066 78.0277Z" fill="black"/>
<path d="M448.322 88.5337C448.056 88.5337 447.539 88.5337 447.109 88.1971C446.154 87.6648 445.497 86.4357 445.348 85.4807C444.972 83.0539 446.592 78.9989 448.189 77.2453C449.331 75.9302 450.779 75.5857 452.164 76.2981C453.729 77.0339 454.974 79.1476 454.144 82.1771C453.549 84.3221 451.163 88.5337 448.33 88.5337H448.322ZM448.596 86.3731L448.713 86.4984C448.674 86.4514 448.635 86.4122 448.596 86.3731ZM450.74 78.2865C450.544 78.2865 450.294 78.4039 449.949 78.7953L449.926 78.8266C448.744 80.1183 447.406 83.4688 447.664 85.1206C447.727 85.5276 448.071 86.06 448.243 86.1461L448.322 86.1852C449.425 86.1617 451.335 83.461 451.859 81.5587C452.329 79.86 451.796 78.7327 451.108 78.4117C450.998 78.3569 450.873 78.2943 450.724 78.2943L450.74 78.2865Z" fill="black"/>
</svg>
