<svg width="1121" height="876" viewBox="0 0 1121 876" fill="none" xmlns="http://www.w3.org/2000/svg">
<path d="M953.862 747.567C962.033 747.567 969.152 749.61 975.222 753.695C981.291 757.664 985.96 763.266 989.229 770.503C992.613 777.623 994.306 785.91 994.306 795.364C994.306 804.818 992.613 813.164 989.229 820.4C985.96 827.637 981.291 833.298 975.222 837.383C969.269 841.351 962.149 843.336 953.862 843.336C946.976 843.336 940.731 841.526 935.129 837.908C929.526 834.29 925.149 829.213 921.998 822.677V875.375H909.742V749.318H921.122V769.277C924.274 762.391 928.768 757.08 934.604 753.345C940.439 749.493 946.859 747.567 953.862 747.567ZM460.029 747.567C467.149 747.567 473.569 749.085 479.288 752.119C485.007 755.154 489.677 759.473 493.295 765.075C497.03 770.678 499.481 777.331 500.648 785.034H488.218C486.817 776.63 483.607 770.095 478.588 765.426C473.686 760.64 467.499 758.247 460.029 758.247C454.31 758.247 449.233 759.823 444.798 762.975C440.479 766.126 437.095 770.445 434.644 775.931C432.309 781.416 431.142 787.894 431.142 795.364C431.142 802.834 432.309 809.429 434.644 815.148C437.095 820.751 440.479 825.128 444.798 828.279C449.233 831.314 454.31 832.831 460.029 832.831C467.616 832.831 473.861 830.497 478.764 825.828C483.666 821.043 486.817 814.389 488.218 805.869H500.648C499.598 813.689 497.205 820.4 493.47 826.003C489.851 831.605 485.183 835.924 479.464 838.959C473.745 841.994 467.266 843.511 460.029 843.511C451.859 843.511 444.681 841.468 438.495 837.383C432.309 833.298 427.464 827.637 423.963 820.4C420.461 813.164 418.711 804.818 418.711 795.364C418.711 786.027 420.461 777.798 423.963 770.678C427.464 763.441 432.309 757.781 438.495 753.695C444.798 749.61 451.976 747.567 460.029 747.567ZM753.596 747.567C760.715 747.567 767.135 749.085 772.854 752.119C778.574 755.154 783.243 759.473 786.861 765.075C790.596 770.678 793.048 777.331 794.215 785.034H781.784C780.384 776.63 777.173 770.095 772.154 765.426C767.252 760.64 761.066 758.247 753.596 758.247C747.877 758.247 742.8 759.823 738.364 762.975C734.046 766.126 730.661 770.445 728.21 775.931C725.876 781.416 724.708 787.894 724.708 795.364C724.708 802.834 725.876 809.429 728.21 815.148C730.661 820.751 734.046 825.128 738.364 828.279C742.799 831.314 747.877 832.831 753.596 832.831C761.182 832.831 767.428 830.497 772.33 825.828C777.232 821.043 780.384 814.389 781.784 805.869H794.215C793.164 813.689 790.771 820.4 787.036 826.003C783.418 831.605 778.749 835.924 773.03 838.959C767.311 841.994 760.832 843.511 753.596 843.511C745.425 843.511 738.248 841.468 732.062 837.383C725.875 833.298 721.031 827.637 717.529 820.4C714.028 813.164 712.277 804.818 712.277 795.364C712.277 786.027 714.028 777.798 717.529 770.678C721.031 763.441 725.875 757.781 732.062 753.695C738.364 749.61 745.542 747.567 753.596 747.567ZM556.004 747.742C562.423 747.742 568.318 748.91 573.688 751.244C579.056 753.579 583.667 756.905 587.519 761.224C591.487 765.426 594.522 770.444 596.623 776.28C598.841 782.116 599.949 788.478 599.949 795.364C599.949 802.367 598.841 808.786 596.623 814.622C594.522 820.458 591.487 825.536 587.519 829.854C583.667 834.173 579.057 837.5 573.688 839.834C568.318 842.168 562.423 843.336 556.004 843.336C549.701 843.336 543.865 842.168 538.496 839.834C533.127 837.5 528.459 834.173 524.49 829.854C520.638 825.536 517.603 820.458 515.386 814.622C513.285 808.786 512.234 802.367 512.234 795.364C512.234 788.478 513.285 782.116 515.386 776.28C517.603 770.444 520.638 765.426 524.49 761.224C528.459 756.905 533.127 753.579 538.496 751.244C543.865 748.91 549.701 747.742 556.004 747.742ZM848.17 747.567C854.706 747.567 860.601 748.851 865.854 751.419C871.222 753.87 875.716 757.372 879.334 761.924C883.069 766.476 885.812 771.845 887.562 778.031C889.43 784.101 890.072 790.871 889.488 798.341H817.977C818.302 804.764 819.493 810.483 821.558 815.498C824.009 821.334 827.51 825.828 832.062 828.979C836.731 832.131 842.276 833.706 848.695 833.706C856.399 833.706 862.76 831.664 867.779 827.579C872.915 823.377 876.241 817.657 877.759 810.421H889.839C887.738 820.576 883.011 828.629 875.657 834.582C868.421 840.418 859.491 843.336 848.87 843.336C840.233 843.336 832.647 841.351 826.11 837.383C819.691 833.298 814.671 827.579 811.053 820.226C807.551 812.872 805.801 804.352 805.801 794.664C805.801 785.677 807.61 777.681 811.229 770.678C814.964 763.558 819.982 757.955 826.285 753.87C832.705 749.668 840 747.567 848.17 747.567ZM1031.93 749.318H1060.82V759.647H1031.93V812.872C1031.93 820.109 1033.51 825.127 1036.66 827.929C1039.93 830.73 1044.07 832.131 1049.09 832.131C1051.08 832.131 1052.89 831.956 1054.52 831.605C1056.27 831.255 1058.08 830.672 1059.95 829.854V840.71C1057.61 841.76 1055.39 842.46 1053.29 842.811C1051.19 843.161 1048.98 843.336 1046.64 843.336C1041.62 843.336 1037.07 842.402 1032.98 840.534C1028.9 838.667 1025.63 835.69 1023.18 831.605C1020.85 827.52 1019.68 822.151 1019.68 815.498V759.647H997.969V749.318H1019.68V722.006H1031.93V749.318ZM172.88 747.042C182.451 747.042 190.037 750.077 195.64 756.146C201.359 762.099 204.219 770.561 204.219 781.532V841.585H186.536V787.135C186.536 779.315 184.844 773.303 181.459 769.102C178.074 764.783 173.171 762.624 166.752 762.624C162.783 762.624 159.107 763.733 155.722 765.95C152.454 768.051 149.828 771.028 147.844 774.88C145.86 778.732 144.867 783.225 144.867 788.36V841.585H127.184V787.135C127.184 779.315 125.491 773.303 122.106 769.102C118.838 764.783 113.936 762.624 107.4 762.624C103.315 762.624 99.5801 763.733 96.1953 765.95C92.9272 768.051 90.3006 771.028 88.3164 774.88C86.449 778.731 85.5147 783.225 85.5146 788.36V841.585H67.832V748.793H84.2891V764.2C87.4405 758.831 91.4679 754.628 96.3701 751.594C101.272 748.559 106.933 747.042 113.353 747.042C120.122 747.042 125.958 748.734 130.86 752.119C135.879 755.387 139.439 760.115 141.54 766.301C144.808 760.348 149.069 755.679 154.321 752.294C159.574 748.792 165.76 747.042 172.88 747.042ZM332.915 747.042C342.486 747.042 350.072 750.077 355.675 756.146C361.394 762.099 364.254 770.561 364.254 781.532V841.585H346.571V787.135C346.571 779.315 344.879 773.303 341.494 769.102C338.109 764.783 333.207 762.624 326.787 762.624C322.819 762.624 319.142 763.733 315.757 765.95C312.489 768.051 309.863 771.028 307.879 774.88C305.895 778.732 304.902 783.225 304.902 788.36V841.585H287.219V787.135C287.219 779.315 285.526 773.303 282.142 769.102C278.874 764.783 273.971 762.624 267.436 762.624C263.351 762.624 259.615 763.733 256.23 765.95C252.962 768.051 250.336 771.028 248.352 774.88C246.484 778.731 245.55 783.225 245.55 788.36V841.585H227.867V748.793H244.324V764.2C247.476 758.831 251.503 754.628 256.405 751.594C261.307 748.559 266.968 747.042 273.388 747.042C280.157 747.042 285.993 748.734 290.896 752.119C295.914 755.387 299.474 760.115 301.575 766.301C304.843 760.348 309.104 755.679 314.356 752.294C319.609 748.792 325.795 747.042 332.915 747.042ZM661.613 747.567C671.184 747.567 678.83 750.544 684.549 756.496C690.385 762.449 693.303 770.853 693.303 781.708V841.585H681.048V785.91C681.048 777.04 679.063 770.211 675.095 765.426C671.243 760.64 665.523 758.247 657.937 758.247C653.151 758.247 648.774 759.531 644.806 762.099C640.837 764.55 637.686 767.993 635.352 772.429C633.134 776.864 632.025 782 632.025 787.836V841.585H619.77V749.318H631.149V766.651C634.184 761.049 638.328 756.497 643.58 752.995C648.949 749.377 654.96 747.567 661.613 747.567ZM556.004 758.422C550.051 758.422 544.682 759.939 539.896 762.974C535.228 766.008 531.493 770.269 528.691 775.755C526.007 781.241 524.665 787.778 524.665 795.364C524.665 802.951 526.007 809.545 528.691 815.147C531.493 820.75 535.228 825.127 539.896 828.278C544.682 831.313 550.051 832.831 556.004 832.831C562.073 832.831 567.443 831.313 572.111 828.278C576.897 825.127 580.632 820.75 583.316 815.147C586.118 809.545 587.518 802.951 587.519 795.364C587.519 787.777 586.118 781.241 583.316 775.755C580.632 770.269 576.897 766.008 572.111 762.974C567.443 759.939 562.073 758.422 556.004 758.422ZM951.762 758.247C946.159 758.247 941.081 759.706 936.529 762.624C931.977 765.542 928.359 769.744 925.675 775.229C923.107 780.715 921.822 787.427 921.822 795.364C921.822 802.951 923.107 809.546 925.675 815.148C928.243 820.751 931.803 825.069 936.354 828.104C940.907 831.138 946.042 832.656 951.762 832.656C960.749 832.656 967.985 829.388 973.471 822.852C979.073 816.315 981.875 807.153 981.875 795.364C981.875 783.692 979.073 774.588 973.471 768.052C967.985 761.516 960.749 758.247 951.762 758.247ZM847.995 757.021C842.042 757.021 836.789 758.598 832.237 761.749C827.802 764.784 824.301 769.103 821.733 774.705C819.706 779.128 818.48 784.205 818.053 789.937H876.708C876.241 779.549 873.439 771.495 868.304 765.775C863.285 759.94 856.515 757.022 847.995 757.021ZM474.405 461.282C441.748 499.272 377.426 520.918 342.334 542.854C318.475 557.767 306.353 584.549 313.198 611.936C383.143 603.055 463.437 546.954 504.648 494.062C475.606 581.445 363.18 646.761 275.104 657.115C261.018 595.502 272.328 532.962 339.894 517.745C388.839 506.722 432.915 489.314 474.405 461.282ZM645.972 461.282C687.462 489.315 731.539 506.722 780.484 517.745C848.05 532.962 859.359 595.502 845.272 657.115C757.197 646.761 644.772 581.446 615.729 494.063C656.941 546.955 737.235 603.055 807.18 611.936C814.025 584.549 801.903 557.767 778.044 542.854C742.952 520.918 678.629 499.273 645.972 461.282ZM560.187 264.85C576.091 264.85 588.983 277.744 588.983 293.65C588.983 309.521 576.149 322.391 560.294 322.449C562.211 322.475 564.074 323.204 565.905 324.637C579.587 335.112 590.16 382.419 591.286 440.731V441.063C591.197 522.913 563.952 577.345 563.092 579.038L563.062 579.072C563.003 579.106 564.011 516.98 564.011 516.98C564.722 477.034 564.367 438.745 560.19 400.688C556.014 438.745 555.658 477.034 556.369 516.98C556.369 516.98 557.377 579.106 557.317 579.072L557.288 579.038C556.426 577.342 529.184 522.909 529.095 441.063V440.731C530.221 382.419 540.794 335.113 554.476 324.637C556.306 323.203 558.167 322.475 560.083 322.449C544.227 322.393 531.39 309.522 531.39 293.65C531.39 277.744 544.283 264.85 560.187 264.85ZM55.4414 132.304C67.8322 191.266 89.3647 246.033 127.777 294.574C164.33 341.451 206.828 381.136 260.087 411.691C231.512 368.908 195.876 316.349 206.15 263.752C214.181 222.637 272.342 237.892 301.554 257.436C322.619 271.528 339.518 289.117 355.679 309.069C357.131 298.633 361.855 289.346 367.263 284.021C389.873 261.756 436.317 285.95 459.498 308.261C478.695 326.739 496.121 347.632 504.907 374.763C482.953 353.864 433.314 297.89 400.09 309.438C394.83 311.267 393.046 318.943 393.688 324.576C397.773 360.488 417.347 390.533 445.344 412.695C371.238 409.166 362.983 367.723 320.123 321.46C308.661 309.089 276.761 280.609 261.596 291.615C239.137 307.914 287.783 385.935 306.268 407.409L367.723 478.803C278.796 473.947 187.418 412.102 131.318 344.396C82.441 285.408 55.9769 211.185 55.4414 132.304ZM1064.94 132.304C1064.4 211.185 1037.94 285.408 989.059 344.396C932.959 412.102 841.582 473.947 752.655 478.803L814.109 407.409C832.594 385.935 881.241 307.913 858.781 291.615C843.615 280.61 811.715 309.089 800.254 321.46C757.394 367.723 749.139 409.166 675.034 412.695C703.031 390.533 722.605 360.488 726.69 324.576C727.332 318.943 725.547 311.267 720.287 309.438C687.063 297.89 637.424 353.864 615.47 374.763C624.256 347.632 641.683 326.739 660.88 308.261C684.061 285.951 730.504 261.756 753.114 284.021C758.522 289.346 760.009 298.275 764.699 309.069C780.86 289.117 797.759 271.528 818.823 257.436C848.035 237.892 906.197 222.637 914.228 263.752C924.502 316.349 888.866 368.908 860.291 411.691C913.55 381.136 956.047 341.452 992.6 294.575C1031.01 246.034 1052.55 191.266 1064.94 132.304ZM3.1084 59.0957C111.089 52.8699 259.944 103.211 349.762 162.053C392.336 189.945 430.162 219.021 462.837 257.808C480.221 283.126 500.733 305.658 511.79 335.342C490.653 304.528 470.539 276.441 441.215 252.973C412.903 230.313 384.83 209.876 351.381 192.018V192.02C262.179 144.397 152.44 107.478 51.7998 110.351C48.1486 144.031 53.9539 175.903 60.1641 209.808C74.0006 268.912 103.589 319.831 140.459 369.086C41.2647 298.512 -14.0935 183.897 3.1084 59.0957ZM770.622 162.053C860.44 103.211 1009.29 52.8698 1117.28 59.0957C1134.48 183.897 1079.12 298.512 979.924 369.086C1016.79 319.831 1046.38 268.913 1060.22 209.809C1066.43 175.904 1072.24 144.031 1068.58 110.351C967.944 107.478 858.205 144.397 769.003 192.02V192.018C735.554 209.876 707.48 230.313 679.168 252.973C649.844 276.441 629.729 304.528 608.593 335.342C619.65 305.658 640.163 283.126 657.547 257.808C690.221 219.021 728.048 189.945 770.622 162.053ZM547.627 237.744L547.624 237.742C547.624 237.737 547.624 237.732 547.624 237.727C547.625 237.732 547.626 237.738 547.627 237.744ZM572.756 237.742L572.754 237.744C572.755 237.741 572.754 237.738 572.755 237.734C572.755 237.737 572.756 237.74 572.756 237.742ZM717.852 0C731.939 0 743.359 11.4214 743.359 25.5107C743.359 39.6001 731.939 51.0225 717.852 51.0225C705.97 51.0223 695.985 42.8965 693.15 31.8984C693.159 31.9351 693.167 31.9722 693.176 32.0088C620.687 56.7058 584.79 173.52 572.755 237.734C571.828 177.369 594.567 123.9 626.154 77.457C644.582 55.1806 665.234 37.4767 692.479 28.2617C692.497 28.398 692.519 28.5338 692.538 28.6699C692.41 27.6348 692.345 26.5804 692.345 25.5107C692.345 11.4216 703.764 0.000213418 717.852 0ZM402.528 0C416.616 0.000151341 428.036 11.4215 428.036 25.5107C428.036 26.5855 427.968 27.6447 427.839 28.6846C427.859 28.5435 427.882 28.4029 427.9 28.2617C455.146 37.4767 475.798 55.1806 494.226 77.457C525.812 123.898 548.549 177.365 547.624 237.727C535.588 173.51 499.69 56.7047 427.204 32.0088C427.214 31.9683 427.223 31.9273 427.232 31.8867C424.401 42.8907 414.414 51.0223 402.528 51.0225C388.441 51.0225 377.021 39.6001 377.021 25.5107C377.021 11.4214 388.441 0 402.528 0Z" fill="#3F3E3E"/>
</svg>
