<svg width="705" height="385" viewBox="0 0 705 385" fill="none" xmlns="http://www.w3.org/2000/svg">
<path d="M312.878 247.376C297.605 263.22 267.521 272.247 251.109 281.396C239.95 287.615 234.281 298.784 237.482 310.206C270.195 306.502 307.749 283.105 327.023 261.047C313.44 297.49 260.858 324.73 219.666 329.048C213.078 303.352 218.367 277.27 249.967 270.924C272.859 266.327 293.474 259.067 312.878 247.376ZM393.118 247.376C412.522 259.067 433.137 266.327 456.028 270.924C487.628 277.27 492.918 303.352 486.33 329.048C445.137 324.73 392.556 297.49 378.973 261.047C398.247 283.105 435.801 306.502 468.513 310.206C471.715 298.785 466.046 287.615 454.887 281.396C438.475 272.247 408.392 263.22 393.118 247.376ZM352.998 165.455C360.436 165.455 366.466 170.833 366.466 177.467C366.466 184.094 360.447 189.467 353.018 189.477C353.926 189.48 354.807 189.784 355.673 190.389C362.072 194.757 367.017 214.487 367.544 238.807V238.944C367.502 273.08 354.76 295.782 354.358 296.487L354.344 296.501C354.317 296.515 354.785 270.727 354.788 270.606C355.12 253.947 354.954 237.978 353.001 222.105C351.047 237.978 350.881 253.947 351.213 270.606C351.216 270.726 351.684 296.515 351.657 296.501L351.643 296.487C351.241 295.782 338.499 273.079 338.458 238.944V238.807C338.984 214.487 343.929 194.758 350.328 190.389C351.193 189.784 352.074 189.481 352.98 189.477C345.55 189.468 339.53 184.095 339.53 177.467C339.53 170.833 345.559 165.455 352.998 165.455ZM116.927 110.179C122.722 134.769 132.793 157.61 150.758 177.854C167.854 197.405 187.73 213.954 212.639 226.697C199.275 208.855 182.609 186.935 187.414 165C191.169 147.853 218.37 154.215 232.033 162.365C241.885 168.242 249.789 175.578 257.347 183.899C258.026 179.547 260.236 175.674 262.765 173.453C273.34 164.167 295.061 174.257 305.903 183.562C314.881 191.268 323.031 199.981 327.14 211.296C316.872 202.58 293.656 179.237 278.118 184.053C275.658 184.816 274.824 188.017 275.124 190.366C277.034 205.343 286.19 217.874 299.284 227.116C264.625 225.644 260.764 208.36 240.718 189.066C235.358 183.907 220.438 172.03 213.345 176.62C202.841 183.417 225.593 215.955 234.238 224.911L262.98 254.687C221.389 252.661 178.652 226.868 152.415 198.632C129.555 174.031 117.178 143.076 116.927 110.179ZM589.064 110.179C588.814 143.076 576.436 174.031 553.577 198.632C527.339 226.868 484.602 252.661 443.011 254.687L471.753 224.911C480.399 215.955 503.15 183.417 492.646 176.62C485.553 172.03 470.634 183.907 465.273 189.066C445.228 208.36 441.367 225.644 406.708 227.116C419.802 217.874 428.957 205.343 430.868 190.366C431.168 188.017 430.333 184.816 427.873 184.053C412.334 179.237 389.118 202.58 378.85 211.296C382.96 199.981 391.11 191.268 400.088 183.562C410.93 174.257 432.652 164.167 443.226 173.453C445.755 175.674 446.45 179.398 448.644 183.899C456.202 175.579 464.106 168.242 473.958 162.365C487.62 154.215 514.822 147.853 518.578 165C523.383 186.935 506.716 208.855 493.352 226.697C518.261 213.954 538.137 197.404 555.232 177.854C573.198 157.61 583.269 134.769 589.064 110.179ZM92.4537 79.6445C142.956 77.0482 212.574 98.0421 254.582 122.582C274.493 134.215 292.185 146.341 307.466 162.517C315.597 173.076 325.19 182.473 330.362 194.853C320.476 182.002 311.069 170.287 297.354 160.5C284.113 151.05 270.983 142.527 255.339 135.079V135.08C213.62 115.219 162.295 99.8225 115.226 101.021C113.519 115.067 116.234 128.359 119.138 142.499C125.61 167.148 139.448 188.384 156.692 208.926C110.299 179.493 84.4084 131.693 92.4537 79.6445ZM451.418 122.582C493.425 98.0421 563.044 77.0481 613.545 79.6445C621.591 131.693 595.7 179.493 549.307 208.926C566.551 188.384 580.39 167.149 586.861 142.499C589.765 128.359 592.481 115.067 590.773 101.021C543.704 99.8225 492.379 115.219 450.66 135.08V135.079C435.016 142.527 421.886 151.05 408.645 160.5C394.93 170.287 385.523 182.002 375.637 194.853C380.809 182.473 390.402 173.076 398.533 162.517C413.814 146.341 431.506 134.215 451.418 122.582ZM279.267 55C285.856 55 291.197 59.7637 291.197 65.6396C291.197 66.0918 291.164 66.5373 291.103 66.9746C291.113 66.912 291.125 66.8498 291.134 66.7871C303.877 70.6302 313.535 78.0135 322.154 87.3037C336.927 106.673 347.562 128.972 347.128 154.146C341.5 127.366 324.711 78.6493 290.808 68.3496C290.813 68.3324 290.817 68.3151 290.822 68.2979C289.498 72.8873 284.826 76.2783 279.267 76.2783C272.679 76.2782 267.338 71.5154 267.337 65.6396C267.337 59.7638 272.679 55.0001 279.267 55ZM426.742 55C433.33 55 438.671 59.7637 438.671 65.6396C438.671 71.5154 433.33 76.2783 426.742 76.2783C421.021 76.2783 416.242 72.6865 415.083 67.8936C415.118 68.0464 415.157 68.1987 415.198 68.3496C381.295 78.6494 364.505 127.366 358.877 154.146C358.443 128.972 369.079 106.673 383.852 87.3037C392.471 78.0135 402.129 70.6302 414.872 66.7871C414.894 66.9384 414.918 67.0895 414.946 67.2402C414.858 66.7182 414.812 66.1837 414.812 65.6396C414.812 59.7637 420.153 55 426.742 55Z" fill="white"/>
</svg>
