<svg width="1121" height="889" viewBox="0 0 1121 889" fill="none" xmlns="http://www.w3.org/2000/svg">
<path d="M923.89 769.093C931.476 769.093 938.071 770.901 943.674 774.52C949.393 778.021 953.77 783.099 956.805 789.752C959.956 796.288 961.532 804.108 961.532 813.212C961.532 822.199 959.956 830.02 956.805 836.673C953.77 843.209 949.451 848.287 943.849 851.905C938.246 855.523 931.593 857.332 923.89 857.332C916.186 857.332 909.591 855.406 904.105 851.555C900.169 848.707 897.135 845.199 895.002 841.029V881.318C895.002 883.652 894.36 885.403 893.076 886.57C891.792 887.854 890.041 888.496 887.823 888.496C885.489 888.496 883.738 887.854 882.571 886.57C881.404 885.403 880.82 883.653 880.82 881.318V776.621C880.82 774.287 881.404 772.535 882.571 771.368C883.738 770.084 885.431 769.442 887.648 769.442C889.983 769.442 891.733 770.084 892.9 771.368C894.184 772.535 894.827 774.287 894.827 776.621V785.686C896.903 781.397 899.937 777.849 903.931 775.045C909.533 771.076 916.186 769.093 923.89 769.093ZM993.243 743.356C995.461 743.356 997.153 743.998 998.32 745.282C999.604 746.449 1000.25 748.2 1000.25 750.534V770.668H1022.31C1024.29 770.668 1025.81 771.136 1026.86 772.069C1027.91 773.003 1028.43 774.345 1028.43 776.096C1028.43 777.846 1027.91 779.247 1026.86 780.298C1025.81 781.231 1024.29 781.698 1022.31 781.698H1000.25V824.943C1000.25 831.596 1001.65 836.673 1004.45 840.175C1007.25 843.56 1011.8 845.252 1018.1 845.252C1020.32 845.252 1022.19 845.019 1023.71 844.552C1025.34 844.085 1026.68 843.852 1027.73 843.852C1028.78 843.735 1029.66 844.085 1030.36 844.902C1031.06 845.719 1031.41 847.12 1031.41 849.104C1031.41 850.504 1031.12 851.789 1030.54 852.956C1030.07 854.123 1029.19 854.94 1027.91 855.407C1026.51 855.874 1024.64 856.283 1022.31 856.633C1020.09 857.1 1018.05 857.333 1016.18 857.333C1009.53 857.333 1003.92 856.165 999.371 853.831C994.936 851.38 991.609 847.878 989.392 843.326C987.174 838.657 986.065 832.997 986.065 826.344V781.698H974.335C972.351 781.698 970.834 781.231 969.783 780.298C968.733 779.247 968.207 777.846 968.207 776.096C968.207 774.345 968.733 773.003 969.783 772.069C970.834 771.136 972.351 770.668 974.335 770.668H986.065V750.534C986.065 748.2 986.707 746.449 987.991 745.282C989.275 743.998 991.026 743.356 993.243 743.356ZM468.248 769.093C472.45 769.093 476.828 769.735 481.38 771.019C485.932 772.302 490.075 774.52 493.81 777.671C494.977 778.488 495.736 779.48 496.086 780.647C496.436 781.815 496.436 782.982 496.086 784.149C495.736 785.2 495.152 786.133 494.335 786.95C493.518 787.65 492.467 788.059 491.184 788.176C490.016 788.292 488.791 787.884 487.507 786.95C484.472 784.616 481.379 782.982 478.228 782.048C475.076 781.114 472.042 780.647 469.124 780.647C464.572 780.647 460.604 781.407 457.219 782.924C453.834 784.324 450.974 786.367 448.64 789.052C446.305 791.736 444.496 795.063 443.212 799.031C442.045 803 441.461 807.61 441.461 812.862C441.461 823.017 443.854 831.071 448.64 837.023C453.425 842.859 460.253 845.777 469.124 845.777C472.042 845.777 475.018 845.31 478.053 844.376C481.204 843.442 484.356 841.809 487.507 839.475C488.791 838.541 490.016 838.132 491.184 838.249C492.351 838.366 493.343 838.832 494.16 839.649C494.977 840.35 495.503 841.283 495.736 842.45C496.086 843.617 496.086 844.785 495.736 845.952C495.386 847.003 494.627 847.937 493.46 848.754C489.725 851.789 485.639 854.006 481.204 855.406C476.769 856.69 472.45 857.332 468.248 857.332C459.728 857.332 452.375 855.464 446.188 851.729C440.002 847.994 435.217 842.8 431.832 836.147C428.564 829.378 426.93 821.558 426.93 812.688C426.93 805.918 427.864 799.848 429.731 794.479C431.599 789.11 434.342 784.557 437.96 780.822C441.578 776.971 445.897 774.053 450.916 772.068C456.051 770.084 461.829 769.093 468.248 769.093ZM546.88 769.093C555.167 769.093 562.346 770.901 568.415 774.52C574.484 778.138 579.153 783.274 582.421 789.927C585.806 796.463 587.499 804.225 587.499 813.212C587.499 819.982 586.565 826.052 584.697 831.421C582.83 836.79 580.087 841.458 576.469 845.427C572.85 849.279 568.532 852.255 563.513 854.356C558.611 856.341 553.066 857.332 546.88 857.332C538.593 857.332 531.415 855.523 525.346 851.905C519.276 848.287 514.549 843.209 511.164 836.673C507.896 830.02 506.262 822.199 506.262 813.212C506.262 806.442 507.196 800.373 509.063 795.004C510.931 789.518 513.674 784.85 517.292 780.998C520.91 777.146 525.17 774.228 530.072 772.244C535.091 770.143 540.694 769.093 546.88 769.093ZM744.373 769.093C748.575 769.093 752.953 769.735 757.505 771.019C762.057 772.302 766.201 774.52 769.936 777.671C771.103 778.488 771.861 779.48 772.211 780.647C772.561 781.815 772.561 782.982 772.211 784.149C771.861 785.2 771.277 786.133 770.46 786.95C769.643 787.65 768.592 788.059 767.309 788.176C766.141 788.292 764.916 787.884 763.632 786.95C760.597 784.616 757.504 782.982 754.353 782.048C751.201 781.114 748.167 780.647 745.249 780.647C740.697 780.647 736.729 781.407 733.344 782.924C729.959 784.324 727.099 786.367 724.765 789.052C722.43 791.736 720.621 795.063 719.337 799.031C718.17 803 717.586 807.61 717.586 812.862C717.586 823.017 719.979 831.071 724.765 837.023C729.55 842.859 736.378 845.777 745.249 845.777C748.167 845.777 751.143 845.31 754.178 844.376C757.329 843.442 760.481 841.809 763.632 839.475C764.916 838.541 766.141 838.132 767.309 838.249C768.476 838.366 769.468 838.832 770.285 839.649C771.102 840.35 771.628 841.283 771.861 842.45C772.211 843.617 772.211 844.785 771.861 845.952C771.511 847.003 770.752 847.937 769.585 848.754C765.85 851.789 761.764 854.006 757.329 855.406C752.894 856.69 748.575 857.332 744.373 857.332C735.853 857.332 728.5 855.464 722.313 851.729C716.127 847.994 711.342 842.8 707.957 836.147C704.689 829.378 703.055 821.558 703.055 812.688C703.055 805.918 703.989 799.848 705.856 794.479C707.724 789.11 710.467 784.557 714.085 780.822C717.703 776.971 722.022 774.053 727.041 772.068C732.176 770.084 737.954 769.093 744.373 769.093ZM823.355 769.093C829.075 769.093 834.211 770.084 838.763 772.068C843.315 773.936 847.166 776.68 850.317 780.298C853.585 783.916 856.037 788.293 857.671 793.429C859.422 798.564 860.297 804.341 860.297 810.761C860.297 812.628 859.772 814.029 858.722 814.963C857.671 815.78 856.153 816.188 854.169 816.188H796.121C796.584 825.387 799.125 832.508 803.746 837.549C808.998 843.151 816.411 845.952 825.981 845.952C829.95 845.952 833.86 845.426 837.712 844.376C841.68 843.325 845.533 841.575 849.268 839.124C850.902 838.074 852.361 837.607 853.645 837.724C855.045 837.724 856.154 838.132 856.971 838.949C857.788 839.649 858.312 840.583 858.546 841.75C858.896 842.8 858.78 843.968 858.196 845.252C857.729 846.536 856.737 847.644 855.22 848.578C851.368 851.379 846.816 853.539 841.563 855.057C836.311 856.574 831.117 857.332 825.981 857.332C816.994 857.332 809.233 855.582 802.696 852.08C796.277 848.462 791.257 843.384 787.639 836.848C784.137 830.312 782.387 822.491 782.387 813.388C782.387 804.517 784.137 796.814 787.639 790.277C791.14 783.624 795.927 778.43 801.996 774.695C808.182 770.96 815.302 769.093 823.355 769.093ZM180.115 768.393C186.651 768.393 192.021 769.676 196.223 772.244C200.541 774.812 203.752 778.722 205.853 783.975C207.953 789.11 209.004 795.646 209.004 803.583V845.952C209.004 849.57 208.012 852.372 206.027 854.356C204.16 856.224 201.475 857.157 197.974 857.157C194.472 857.157 191.787 856.224 189.92 854.356C188.052 852.372 187.119 849.57 187.119 845.952V804.458C187.119 797.922 186.01 793.136 183.792 790.102C181.691 787.067 178.073 785.55 172.938 785.55C167.218 785.55 162.724 787.593 159.456 791.678C156.188 795.646 154.554 801.191 154.554 808.311V845.952C154.554 849.57 153.62 852.372 151.753 854.356C149.885 856.224 147.201 857.157 143.699 857.157C140.198 857.157 137.455 856.224 135.471 854.356C133.603 852.372 132.669 849.57 132.669 845.952V804.458C132.669 797.922 131.56 793.136 129.343 790.102C127.242 787.067 123.682 785.55 118.663 785.55C112.944 785.55 108.45 787.593 105.182 791.678C101.914 795.646 100.279 801.191 100.279 808.311V845.952C100.279 853.422 96.6024 857.157 89.249 857.157C85.7479 857.157 83.0637 856.224 81.1963 854.356C79.3288 852.372 78.3945 849.57 78.3945 845.952V779.772C78.3945 776.154 79.3288 773.411 81.1963 771.544C83.0638 769.676 85.6894 768.742 89.0742 768.742C92.4591 768.742 95.0856 769.676 96.9531 771.544C98.8204 773.411 99.7539 776.154 99.7539 779.772V783.271C101.994 779.301 104.97 776.034 108.684 773.47C113.586 770.085 119.422 768.393 126.191 768.393C133.078 768.393 138.739 770.026 143.174 773.294C146.859 776.009 149.616 779.934 151.448 785.066C153.809 780.425 157.178 776.675 161.558 773.819C166.927 770.201 173.112 768.393 180.115 768.393ZM333.65 768.393C340.187 768.393 345.556 769.676 349.758 772.244C354.076 774.812 357.287 778.722 359.388 783.975C361.489 789.11 362.539 795.646 362.539 803.583V845.952C362.539 849.57 361.547 852.372 359.562 854.356C357.695 856.224 355.01 857.157 351.509 857.157C348.007 857.157 345.323 856.224 343.455 854.356C341.588 852.372 340.654 849.57 340.654 845.952V804.458C340.654 797.922 339.545 793.136 337.327 790.102C335.226 787.067 331.608 785.55 326.473 785.55C320.753 785.55 316.259 787.593 312.991 791.678C309.723 795.646 308.089 801.191 308.089 808.311V845.952C308.089 849.57 307.156 852.372 305.288 854.356C303.421 856.224 300.736 857.157 297.234 857.157C293.733 857.157 290.99 856.224 289.006 854.356C287.138 852.372 286.204 849.57 286.204 845.952V804.458C286.204 797.922 285.096 793.136 282.878 790.102C280.777 787.067 277.217 785.55 272.198 785.55C266.479 785.55 261.985 787.593 258.717 791.678C255.449 795.646 253.814 801.191 253.814 808.311V845.952C253.814 853.422 250.138 857.157 242.784 857.157C239.283 857.157 236.599 856.224 234.731 854.356C232.864 852.372 231.93 849.57 231.93 845.952V779.772C231.93 776.154 232.864 773.411 234.731 771.544C236.599 769.676 239.225 768.742 242.609 768.742C245.994 768.742 248.621 769.676 250.488 771.544C252.356 773.411 253.289 776.154 253.289 779.772V783.271C255.529 779.301 258.505 776.034 262.219 773.47C267.121 770.085 272.957 768.393 279.727 768.393C286.613 768.393 292.274 770.026 296.709 773.294C300.394 776.009 303.151 779.934 304.983 785.066C307.344 780.425 310.714 776.675 315.093 773.819C320.462 770.201 326.648 768.393 333.65 768.393ZM651.87 769.093C658.64 769.093 664.242 770.318 668.678 772.769C673.23 775.22 676.615 778.955 678.833 783.974C681.051 788.876 682.159 795.121 682.159 802.708V849.629C682.159 851.963 681.517 853.773 680.233 855.057C679.066 856.34 677.374 856.982 675.156 856.982C672.822 856.982 671.012 856.34 669.729 855.057C668.561 853.773 667.978 851.963 667.978 849.629V803.583C667.978 795.646 666.402 789.868 663.251 786.25C660.216 782.515 655.314 780.647 648.544 780.647C640.724 780.647 634.479 783.099 629.811 788.001C625.258 792.786 622.982 799.206 622.982 807.26V849.629C622.982 854.531 620.589 856.982 615.804 856.982C613.47 856.982 611.719 856.34 610.552 855.057C609.385 853.773 608.801 851.963 608.801 849.629V776.621C608.801 774.287 609.385 772.535 610.552 771.368C611.719 770.084 613.411 769.442 615.629 769.442C617.846 769.442 619.539 770.084 620.706 771.368C621.99 772.535 622.632 774.287 622.632 776.621V785.188C625.057 780.569 628.383 776.954 632.611 774.345C638.214 770.843 644.634 769.093 651.87 769.093ZM546.88 780.473C541.511 780.473 536.842 781.756 532.874 784.324C529.022 786.775 525.987 790.452 523.77 795.354C521.669 800.14 520.618 806.092 520.618 813.212C520.618 823.717 523.011 831.83 527.797 837.549C532.582 843.151 538.943 845.952 546.88 845.952C552.132 845.952 556.743 844.668 560.712 842.101C564.68 839.533 567.715 835.798 569.815 830.896C572.033 825.993 573.142 820.098 573.142 813.212C573.142 802.591 570.749 794.478 565.964 788.876C561.295 783.274 554.933 780.473 546.88 780.473ZM920.913 780.473C915.661 780.473 911.05 781.756 907.082 784.324C903.114 786.775 900.02 790.452 897.803 795.354C895.702 800.14 894.651 806.092 894.651 813.212C894.651 823.717 897.045 831.83 901.83 837.549C906.615 843.151 912.977 845.952 920.913 845.952C926.282 845.952 930.893 844.668 934.745 842.101C938.713 839.533 941.748 835.798 943.849 830.896C946.066 825.993 947.176 820.098 947.176 813.212C947.176 802.591 944.783 794.478 939.997 788.876C935.328 783.274 928.967 780.473 920.913 780.473ZM823.705 779.597C817.753 779.597 812.675 780.998 808.474 783.799C804.389 786.483 801.295 790.277 799.194 795.179C797.667 798.657 796.698 802.568 796.281 806.909H847.999C847.798 801.594 846.878 797.041 845.24 793.253C843.373 788.818 840.63 785.433 837.012 783.099C833.51 780.764 829.074 779.597 823.705 779.597ZM474.405 461.279C441.748 499.269 377.426 520.915 342.334 542.851C318.475 557.764 306.353 584.546 313.198 611.933C383.143 603.052 463.437 546.951 504.648 494.06C475.606 581.442 363.18 646.758 275.104 657.112C261.018 595.499 272.328 532.959 339.894 517.742C388.839 506.719 432.915 489.311 474.405 461.279ZM645.969 461.279C687.459 489.312 731.536 506.719 780.481 517.742C848.047 532.959 859.357 595.499 845.271 657.112C757.195 646.758 644.769 581.442 615.727 494.06C656.938 546.951 737.232 603.052 807.177 611.933C814.022 584.546 801.9 557.764 778.041 542.851C742.949 520.915 678.626 499.27 645.969 461.279ZM560.188 264.847C576.092 264.847 588.984 277.741 588.984 293.647C588.984 309.527 576.134 322.404 560.267 322.446C562.193 322.465 564.064 323.195 565.904 324.634C579.586 335.108 590.159 382.416 591.285 440.729V441.061C591.196 522.912 563.95 577.345 563.091 579.036L563.062 579.069C563.006 578.887 564.007 517.14 564.01 516.979C564.721 477.032 564.366 438.743 560.189 400.685C556.013 438.743 555.658 477.032 556.369 516.979C556.372 517.141 557.373 578.876 557.317 579.069L557.287 579.036C556.428 577.345 529.183 522.909 529.094 441.061V440.729C530.22 382.416 540.793 335.11 554.475 324.634C556.314 323.193 558.184 322.466 560.109 322.446C544.241 322.404 531.391 309.528 531.391 293.647C531.391 277.741 544.283 264.847 560.188 264.847ZM55.4414 132.301C67.8322 191.263 89.3647 246.03 127.777 294.571C164.33 341.449 206.828 381.133 260.087 411.688C231.512 368.905 195.876 316.346 206.15 263.749C214.181 222.634 272.342 237.889 301.554 257.433C322.619 271.525 339.518 289.114 355.679 309.066C357.131 298.63 361.855 289.343 367.263 284.019C389.873 261.753 436.317 285.948 459.498 308.258C478.695 326.736 496.121 347.629 504.907 374.76C482.953 353.861 433.314 297.887 400.09 309.435C394.83 311.264 393.046 318.94 393.688 324.573C397.773 360.485 417.347 390.53 445.344 412.692C371.238 409.163 362.983 367.72 320.123 321.457C308.661 309.086 276.761 280.606 261.596 291.612C239.137 307.911 287.783 385.932 306.268 407.406L367.723 478.8C278.796 473.944 187.418 412.099 131.318 344.394C82.441 285.405 55.9769 211.182 55.4414 132.301ZM1064.94 132.301C1064.4 211.182 1037.94 285.405 989.059 344.394C932.959 412.099 841.581 473.944 752.654 478.8L814.109 407.406C832.594 385.932 881.241 307.911 858.781 291.612C843.616 280.606 811.716 309.086 800.254 321.457C757.394 367.72 749.139 409.163 675.033 412.692C703.03 390.53 722.604 360.485 726.689 324.573C727.331 318.94 725.547 311.264 720.287 309.435C687.062 297.887 637.423 353.861 615.469 374.76C624.255 347.629 641.682 326.736 660.879 308.258C684.06 285.948 730.504 261.753 753.114 284.019C758.522 289.343 760.008 298.272 764.698 309.066C780.859 289.114 797.758 271.525 818.823 257.433C848.035 237.889 906.196 222.634 914.227 263.749C924.501 316.346 888.865 368.905 860.29 411.688C913.549 381.133 956.047 341.449 992.6 294.571C1031.01 246.03 1052.54 191.263 1064.94 132.301ZM3.1084 59.0938C111.089 52.8679 259.944 103.209 349.762 162.051C392.336 189.943 430.162 219.019 462.837 257.806C480.221 283.124 500.733 305.656 511.79 335.34C490.653 304.526 470.539 276.439 441.215 252.971C412.903 230.311 384.83 209.874 351.381 192.016V192.018C262.179 144.395 152.44 107.476 51.7998 110.349C48.1486 144.029 53.9539 175.901 60.1641 209.806C74.0006 268.91 103.589 319.829 140.459 369.084C41.2647 298.51 -14.0935 183.895 3.1084 59.0938ZM770.623 162.051C860.441 103.209 1009.29 52.868 1117.28 59.0938C1134.48 183.895 1079.12 298.51 979.925 369.084C1016.79 319.829 1046.38 268.91 1060.22 209.806C1066.43 175.901 1072.24 144.029 1068.58 110.349C967.945 107.476 858.206 144.395 769.004 192.018V192.016C735.555 209.874 707.481 230.311 679.169 252.971C649.845 276.439 629.73 304.526 608.594 335.34C619.651 305.656 640.164 283.124 657.548 257.806C690.222 219.019 728.049 189.943 770.623 162.051ZM547.627 237.744L547.625 237.742C547.625 237.74 547.625 237.737 547.625 237.734C547.626 237.738 547.626 237.741 547.627 237.744ZM572.756 237.742L572.754 237.744C572.755 237.741 572.754 237.738 572.755 237.734C572.755 237.737 572.756 237.74 572.756 237.742ZM402.528 0C416.616 0 428.036 11.4214 428.036 25.5107C428.036 26.5906 427.968 27.6547 427.838 28.6992C427.859 28.5533 427.882 28.4078 427.901 28.2617C455.147 37.4767 475.799 55.1806 494.227 77.457C525.814 123.9 548.552 177.369 547.625 237.734C535.59 173.52 499.694 56.7059 427.205 32.0088C427.214 31.9723 427.221 31.935 427.229 31.8984C424.394 42.8964 414.41 51.0215 402.528 51.0215C388.441 51.0214 377.021 39.6 377.021 25.5107C377.021 11.4214 388.441 0.000117706 402.528 0ZM717.852 0C731.939 0 743.359 11.4214 743.359 25.5107C743.359 39.6001 731.939 51.0215 717.852 51.0215C705.97 51.0213 695.985 42.8964 693.15 31.8984C693.159 31.935 693.167 31.9722 693.176 32.0088C620.687 56.7059 584.79 173.52 572.755 237.734C571.828 177.369 594.567 123.9 626.154 77.457C644.582 55.1806 665.234 37.4767 692.479 28.2617C692.497 28.3973 692.519 28.5325 692.538 28.668C692.41 27.6335 692.345 26.5798 692.345 25.5107C692.345 11.4215 703.764 0.000209297 717.852 0Z" fill="#3F3E3E"/>
</svg>
