<svg width="620" height="433" viewBox="0 0 620 433" fill="none" xmlns="http://www.w3.org/2000/svg">
<path d="M548.112 367.399C552.644 367.399 556.846 368.06 560.697 369.408H560.696C564.724 370.805 567.992 373.221 570.441 376.634H570.44C572.978 380.133 574.123 384.847 574.123 390.537C574.123 398.919 571.954 405.352 567.07 409.184L567.069 409.183C562.434 412.847 556.024 414.542 548.112 414.542C542.129 414.542 536.98 413.897 532.715 412.553C530.037 411.708 527.666 410.836 525.614 409.936V426.472C525.614 427.538 525.512 428.556 525.294 429.516C525.102 430.358 524.631 431.131 523.834 431.646C523.092 432.127 522.252 432.266 521.501 432.266C520.722 432.266 519.854 432.106 519.101 431.574C518.313 431.018 517.881 430.218 517.705 429.389L517.703 429.39C517.486 428.391 517.387 427.305 517.387 426.146V373.14C517.387 372.459 517.448 371.774 517.634 371.155C517.818 370.543 518.183 369.803 518.928 369.307L518.929 369.309C519.662 368.784 520.514 368.483 521.446 368.483C522.385 368.483 523.358 368.731 524.159 369.409L524.281 369.513C524.869 370.042 525.129 370.733 525.257 371.245C525.402 371.827 525.452 372.477 525.452 373.14V373.624C525.666 373.444 525.886 373.268 526.114 373.1C528.227 371.509 530.64 370.31 533.33 369.491C535.936 368.698 538.566 368.149 541.219 367.846H541.222C543.836 367.551 546.137 367.399 548.112 367.399ZM521.774 430.255C521.687 430.261 521.595 430.265 521.5 430.265L521.501 430.266C521.596 430.266 521.687 430.262 521.774 430.255ZM523.343 429.073C523.332 429.122 523.319 429.17 523.305 429.216L523.344 429.073C523.352 429.037 523.357 429.001 523.365 428.965C523.357 429.001 523.351 429.038 523.343 429.073ZM523.609 426.82C523.609 426.851 523.607 426.881 523.606 426.911C523.607 426.881 523.61 426.851 523.61 426.82L523.614 426.472L523.609 426.82ZM482.044 367.399C489.747 367.4 495.882 368.869 500.108 372.143C504.435 375.429 506.536 380.161 506.536 386.039C506.536 387.2 506.366 388.505 506.058 389.93L506.055 389.941C505.902 390.63 505.723 391.273 505.496 391.783C505.386 392.03 505.215 392.364 504.947 392.665C504.688 392.956 504.116 393.459 503.235 393.459H503.223L503.21 393.458L462.516 392.942C462.941 398.581 464.625 402.039 467.123 403.879L467.417 404.087C470.513 406.207 475.158 407.398 481.61 407.398C485.552 407.398 488.744 407.045 491.229 406.382C493.882 405.648 495.92 404.868 497.396 404.067C499.079 403.136 500.257 402.433 500.971 401.946L500.979 401.94L500.987 401.935C501.529 401.574 502.103 401.491 502.531 401.491L502.746 401.498C503.765 401.566 504.553 402.11 505.1 402.749C505.725 403.404 506.157 404.261 506.157 405.279C506.157 406.352 505.644 407.222 504.884 407.803C504.251 408.381 503.079 409.176 501.592 410.114L501.582 410.121C499.731 411.273 497.163 412.291 493.983 413.216L493.977 413.218L493.969 413.22C490.657 414.155 486.536 414.597 481.664 414.597C472.431 414.597 465.288 412.689 460.73 408.419L460.724 408.412C456.227 404.158 454.082 398.308 454.082 391.134C454.082 385.291 455.266 380.45 457.877 376.844L457.881 376.838L457.886 376.832C460.46 373.333 463.94 370.873 468.246 369.451C472.417 368.074 477.024 367.399 482.044 367.399ZM591.038 353.146C591.993 353.146 592.947 353.4 593.755 354.033C594.439 354.528 594.783 355.23 594.959 355.817C595.145 356.436 595.206 357.121 595.206 357.802V369.297H611.2C611.956 369.297 612.893 369.44 613.669 370.061C614.53 370.75 614.826 371.723 614.826 372.598C614.826 373.473 614.53 374.446 613.669 375.135C612.893 375.756 611.956 375.898 611.2 375.898H595.206V396.879C595.206 400.248 595.646 402.528 596.336 403.925C597.097 405.352 598.013 406.159 599.036 406.563C600.328 407.074 601.792 407.345 603.45 407.345C604.942 407.345 606.407 407.081 607.852 406.547C609.403 405.973 611.233 405.131 613.349 404.003L613.372 403.99L613.396 403.979C614.047 403.653 614.768 403.442 615.536 403.442C616.315 403.442 617.272 403.62 618.035 404.329C618.826 405.064 619.054 406.034 619.054 406.852C619.054 408.5 618.065 409.662 616.819 410.342L616.818 410.341C613.743 412.025 611.165 413.196 609.138 413.764L609.12 413.769L609.102 413.773C607.11 414.291 604.969 414.543 602.691 414.543C598.371 414.543 594.607 413.269 591.53 410.65L591.52 410.642L591.508 410.632C588.22 407.749 586.87 402.937 586.87 396.879V375.898H584.101C583.356 375.898 582.424 375.745 581.661 375.092C580.84 374.388 580.583 373.427 580.583 372.598C580.583 371.768 580.84 370.808 581.661 370.104C582.424 369.45 583.355 369.297 584.101 369.297H586.87V357.802C586.87 357.111 586.938 356.41 587.145 355.773C587.353 355.131 587.757 354.403 588.526 353.93V353.932C589.265 353.442 590.111 353.146 591.038 353.146ZM229.041 367.399C232.35 367.399 235.756 367.738 239.257 368.407C242.663 369.017 245.934 370.096 249.064 371.644L249.688 371.959L249.697 371.964C250.968 372.629 251.908 373.796 251.908 375.416C251.908 376.234 251.681 377.204 250.89 377.938C250.126 378.647 249.169 378.825 248.391 378.825C247.712 378.825 247.06 378.64 246.482 378.399L246.419 378.373L246.357 378.343C245.339 377.834 243.884 377.275 241.946 376.676C240.057 376.092 237.959 375.606 235.649 375.221L235.633 375.218L235.615 375.214C233.381 374.801 231.19 374.598 229.041 374.598C220.903 374.598 215.531 376.038 212.459 378.495L212.457 378.496C209.539 380.825 207.844 384.848 207.844 391.134C207.844 397.416 209.64 401.363 212.747 403.595L213.069 403.816C216.456 406.075 221.667 407.345 228.987 407.345C231.179 407.345 233.391 407.156 235.627 406.778C237.943 406.357 240.048 405.852 241.946 405.266C243.884 404.667 245.339 404.108 246.357 403.599L246.419 403.568L246.482 403.542C247.06 403.301 247.712 403.117 248.391 403.117C249.169 403.117 250.126 403.294 250.89 404.003C251.681 404.738 251.908 405.709 251.908 406.526C251.908 408.146 250.967 409.312 249.697 409.978L249.688 409.982C246.375 411.696 242.903 412.899 239.277 413.586L239.27 413.587L239.261 413.589C235.757 414.223 232.35 414.542 229.041 414.542C223.44 414.542 218.436 413.912 214.057 412.617L214.053 412.616C209.575 411.281 205.979 408.905 203.379 405.452L203.372 405.443C200.71 401.866 199.508 397.012 199.508 391.134C199.508 385.313 200.611 380.492 203.051 376.895L203.055 376.888L203.06 376.882C205.513 373.325 209.049 370.86 213.534 369.443C217.902 368.064 223.085 367.399 229.041 367.399ZM289.962 367.399C299.375 367.4 306.708 369.131 311.566 372.969C316.595 376.876 318.898 383.108 318.898 391.134C318.898 395.805 317.978 399.957 316.058 403.519L316.057 403.518C314.108 407.161 310.911 409.893 306.647 411.771C302.355 413.661 296.752 414.542 289.962 414.542C283.172 414.542 277.568 413.661 273.275 411.771C269.012 409.893 265.8 407.164 263.816 403.527L263.81 403.516L263.804 403.503C261.925 399.944 261.024 395.799 261.024 391.134C261.024 383.113 263.305 376.882 268.295 372.974C273.186 369.135 280.538 367.399 289.962 367.399ZM422.207 367.399C425.516 367.399 428.922 367.738 432.423 368.407C435.829 369.017 439.1 370.096 442.23 371.644L442.854 371.959L442.863 371.964C444.134 372.629 445.074 373.796 445.074 375.416C445.074 376.234 444.847 377.204 444.056 377.938C443.292 378.647 442.335 378.825 441.557 378.825C440.878 378.825 440.226 378.64 439.648 378.399L439.585 378.373L439.523 378.343C438.506 377.834 437.05 377.275 435.112 376.676C433.223 376.092 431.125 375.606 428.815 375.221L428.799 375.218L428.781 375.214C426.547 374.801 424.356 374.598 422.207 374.598C414.069 374.598 408.697 376.038 405.625 378.495L405.623 378.496C402.705 380.825 401.01 384.848 401.01 391.134C401.01 397.416 402.806 401.363 405.913 403.595L406.235 403.816C409.622 406.075 414.833 407.345 422.153 407.345C424.345 407.345 426.557 407.156 428.793 406.778C431.109 406.357 433.214 405.852 435.112 405.266C437.05 404.667 438.506 404.108 439.523 403.599L439.585 403.568L439.648 403.542C440.226 403.301 440.878 403.117 441.557 403.117C442.335 403.117 443.292 403.294 444.056 404.003C444.847 404.738 445.074 405.709 445.074 406.526C445.074 408.146 444.133 409.312 442.863 409.978L442.854 409.982C439.541 411.696 436.069 412.899 432.443 413.586L432.436 413.587L432.427 413.589C428.923 414.223 425.516 414.542 422.207 414.542C416.606 414.542 411.602 413.912 407.223 412.617L407.219 412.616C402.741 411.281 399.145 408.905 396.545 405.452L396.538 405.443C393.876 401.866 392.674 397.012 392.674 391.134C392.674 385.313 393.777 380.492 396.217 376.895L396.221 376.888L396.226 376.882C398.679 373.325 402.215 370.86 406.7 369.443C411.068 368.064 416.251 367.399 422.207 367.399ZM59.127 367.399C64.3977 367.399 68.6969 368.768 71.5947 371.886H71.5938C74.5146 374.989 75.7607 379.68 75.7607 385.497V409.182C75.7607 409.925 75.6888 410.666 75.4766 411.333C75.2764 411.962 74.9053 412.659 74.2236 413.152L74.0674 413.26L74.0498 413.27C73.3499 413.7 72.539 414 71.6475 414C70.7803 414 69.9474 413.794 69.1816 413.382C68.2594 412.885 67.8616 412.006 67.6797 411.376C67.4881 410.713 67.4248 409.955 67.4248 409.182V385.497C67.4248 380.53 66.5488 377.854 65.4336 376.691L65.4199 376.677L65.4053 376.661C64.2533 375.409 62.3374 374.598 59.2354 374.598C54.8757 374.598 51.4137 375.483 48.7344 377.122C46.1323 378.735 43.9211 380.93 42.1035 383.745V409.182C42.1035 409.916 42.0371 410.642 41.8447 411.293C41.6546 411.936 41.2835 412.694 40.5371 413.211L40.4922 413.241L40.4463 413.27C39.7464 413.7 38.9355 414 38.0439 414C37.1928 414 36.3821 413.784 35.6318 413.409C34.6924 412.939 34.2539 412.08 34.0469 411.415C33.8354 410.735 33.7676 409.962 33.7676 409.182V383.166C33.7676 380.181 33.0632 378.103 31.8955 376.69L31.8877 376.682L31.8809 376.672C30.8797 375.432 29.1149 374.598 26.0654 374.598C21.2518 374.598 17.265 375.603 14.0195 377.518C10.8416 379.413 9.06982 381.501 8.33691 383.699V409.182C8.33691 409.908 8.27655 410.618 8.10352 411.253C7.93591 411.867 7.60163 412.63 6.88672 413.166L6.86328 413.184C6.17179 413.686 5.35156 414 4.44043 414C3.59967 414 2.78274 413.79 2.0127 413.453L1.99023 413.443L1.96777 413.433C1.01679 412.989 0.539568 412.153 0.306641 411.454C0.0748125 410.759 0 409.97 0 409.182V373.14C0 372.439 0.0742678 371.722 0.302734 371.069C0.537522 370.399 0.979725 369.685 1.76758 369.234L1.76855 369.235C2.48711 368.791 3.31414 368.483 4.22363 368.483C5.16485 368.484 6.13967 368.733 6.94238 369.415C7.60063 369.931 7.90906 370.641 8.0625 371.199C8.22771 371.8 8.2832 372.468 8.2832 373.14V373.265C9.49199 372.151 10.9145 371.189 12.5352 370.378C16.503 368.374 20.9936 367.399 25.957 367.399C29.7967 367.399 33.0242 368.027 35.3203 369.588H35.3193C37.3871 370.969 38.9503 372.651 39.8252 374.677C39.9037 374.859 39.9793 375.039 40.0527 375.217C40.5806 374.629 41.1539 374.045 41.7725 373.467L41.7803 373.459L41.7881 373.452C43.7014 371.702 46.0913 370.284 48.9033 369.167V369.168C51.8367 367.967 55.2629 367.399 59.127 367.399ZM147.472 367.399C152.742 367.399 157.042 368.768 159.939 371.886H159.938C162.859 374.989 164.105 379.68 164.105 385.497V409.182C164.105 409.925 164.033 410.666 163.821 411.333C163.621 411.962 163.25 412.659 162.568 413.152L162.412 413.26L162.395 413.27C161.695 413.7 160.884 414 159.992 414C159.125 414 158.292 413.794 157.526 413.382C156.604 412.885 156.206 412.006 156.024 411.376C155.833 410.713 155.77 409.955 155.77 409.182V385.497C155.77 380.53 154.894 377.854 153.778 376.691L153.765 376.677L153.75 376.661C152.598 375.409 150.682 374.598 147.58 374.598C143.22 374.598 139.758 375.483 137.079 377.122C134.477 378.735 132.266 380.93 130.448 383.745V409.182C130.448 409.916 130.382 410.642 130.189 411.293C129.999 411.936 129.628 412.694 128.882 413.211L128.837 413.241L128.791 413.27C128.091 413.7 127.28 414 126.389 414C125.538 414 124.727 413.784 123.977 413.409C123.037 412.939 122.599 412.08 122.392 411.415C122.18 410.735 122.112 409.962 122.112 409.182V383.166C122.112 380.181 121.408 378.103 120.24 376.69L120.232 376.682L120.226 376.672C119.224 375.432 117.46 374.598 114.41 374.598C109.597 374.598 105.61 375.603 102.364 377.518C99.1863 379.413 97.4145 381.501 96.6816 383.699V409.182C96.6816 409.908 96.6213 410.618 96.4482 411.253C96.2806 411.867 95.9464 412.63 95.2314 413.166L95.208 413.184C94.5165 413.686 93.6963 414 92.7852 414C91.9444 414 91.1275 413.79 90.3574 413.453L90.335 413.443L90.3125 413.433C89.3615 412.989 88.8843 412.153 88.6514 411.454C88.4195 410.759 88.3457 409.97 88.3457 409.182V373.14C88.3457 372.439 88.419 371.722 88.6475 371.069C88.8822 370.399 89.3245 369.685 90.1123 369.234L90.1133 369.235C90.8318 368.791 91.6589 368.483 92.5684 368.483C93.5096 368.484 94.4844 368.733 95.2871 369.415C95.9454 369.931 96.2538 370.641 96.4072 371.199C96.5724 371.8 96.6279 372.468 96.6279 373.14V373.265C97.8367 372.151 99.2592 371.189 100.88 370.378C104.848 368.374 109.338 367.399 114.302 367.399C118.141 367.399 121.369 368.027 123.665 369.588H123.664C125.732 370.969 127.295 372.651 128.17 374.677C128.248 374.859 128.324 375.039 128.397 375.217C128.925 374.629 129.499 374.045 130.117 373.467L130.125 373.459L130.133 373.452C132.046 371.702 134.436 370.284 137.248 369.167V369.168C140.181 367.967 143.608 367.399 147.472 367.399ZM359.499 367.399C364.794 367.399 369.179 368.042 372.525 369.453H372.524C376.006 370.869 378.56 373.285 380.076 376.654C381.541 379.91 382.203 384.187 382.203 389.345V408.098C382.203 409.247 382.005 410.355 381.604 411.409L381.604 411.41C381.604 411.412 381.602 411.415 381.602 411.417C381.593 411.439 381.587 411.461 381.578 411.482L381.576 411.481C381.325 412.167 380.904 412.83 380.232 413.312C379.535 413.814 378.741 414 377.981 414C377.217 414 376.362 413.851 375.613 413.345C374.818 412.806 374.366 412.017 374.184 411.179C373.97 410.194 373.867 409.165 373.867 408.098V389.345C373.867 385.716 373.463 382.844 372.726 380.663L372.724 380.655C372.062 378.669 370.812 377.213 368.881 376.218L368.87 376.212C366.948 375.206 363.846 374.598 359.337 374.598C356.671 374.598 353.787 374.905 350.682 375.533L350.681 375.532C347.717 376.139 345.069 377.177 342.721 378.633C340.644 379.92 339.265 381.662 338.519 383.917V408.098C338.519 409.191 338.392 410.247 338.129 411.258C337.933 412.009 337.527 412.757 336.803 413.295C336.089 413.825 335.267 414 334.514 414C333.743 414 332.922 413.842 332.189 413.374C331.434 412.891 330.943 412.187 330.673 411.41L330.66 411.373L330.648 411.336C330.334 410.301 330.183 409.218 330.183 408.098V372.977C330.183 372.097 330.365 371.244 330.752 370.45H330.75C331.52 368.801 333.246 368.483 334.459 368.483C335.585 368.483 337.235 368.799 337.954 370.404C338.36 371.208 338.519 372.092 338.519 372.977V373.717C339.779 372.602 341.134 371.67 342.587 370.932L343.118 370.662C345.771 369.347 348.511 368.48 351.332 368.074C354.202 367.627 356.925 367.399 359.499 367.399ZM601.967 412.529C602.206 412.538 602.448 412.543 602.691 412.543L602.69 412.542C602.204 412.542 601.727 412.524 601.26 412.488C601.493 412.506 601.729 412.52 601.967 412.529ZM292.392 412.501C291.997 412.515 291.597 412.525 291.191 412.532C290.787 412.539 290.377 412.542 289.962 412.542C290.377 412.542 290.788 412.539 291.192 412.532C291.597 412.525 291.997 412.515 292.392 412.501ZM38.2061 411.993C38.1517 411.998 38.0977 412 38.0439 412C38.1522 412 38.2616 411.991 38.3721 411.973H38.3711C38.3158 411.982 38.2608 411.989 38.2061 411.993ZM71.8096 411.993C71.7553 411.998 71.7012 412 71.6475 412C71.7557 412 71.8651 411.991 71.9756 411.973H71.9746C71.9193 411.982 71.8643 411.989 71.8096 411.993ZM126.551 411.993C126.496 411.998 126.442 412 126.389 412C126.497 412 126.606 411.991 126.717 411.973H126.716C126.661 411.982 126.606 411.989 126.551 411.993ZM160.154 411.993C160.1 411.998 160.046 412 159.992 412C160.1 412 160.21 411.991 160.32 411.973H160.319C160.264 411.982 160.209 411.989 160.154 411.993ZM496.728 410.212C495.74 410.582 494.639 410.943 493.425 411.296C493.043 411.404 492.648 411.504 492.24 411.599C492.443 411.552 492.643 411.503 492.84 411.453L493.426 411.296C494.639 410.943 495.74 410.582 496.728 410.212ZM2.25781 410.968C2.29588 411.06 2.33826 411.144 2.38477 411.22L2.31836 411.1C2.29716 411.058 2.27689 411.013 2.25781 410.967V410.968ZM90.6025 410.968C90.6406 411.06 90.683 411.144 90.7295 411.22L90.6631 411.1C90.6419 411.058 90.6216 411.013 90.6025 410.967V410.968ZM379.829 410.439C379.793 410.545 379.756 410.65 379.715 410.754C379.688 410.832 379.659 410.906 379.627 410.977C379.659 410.906 379.689 410.832 379.716 410.754C379.756 410.65 379.794 410.545 379.829 410.439ZM560.929 410.418L561.427 410.211C561.465 410.194 561.503 410.176 561.542 410.159C561.34 410.248 561.136 410.335 560.929 410.418ZM40.1025 383.166V409.182C40.1025 409.485 40.0875 409.761 40.0605 410.01C40.0734 409.891 40.0851 409.765 40.0918 409.634C40.0991 409.49 40.1035 409.34 40.1035 409.182V383.166C40.1406 383.106 40.1784 383.046 40.2158 382.986C40.1783 383.046 40.1397 383.106 40.1025 383.166ZM128.447 383.166V409.182C128.447 409.485 128.432 409.761 128.405 410.01C128.418 409.891 128.43 409.765 128.437 409.634C128.444 409.49 128.448 409.34 128.448 409.182V383.166C128.485 383.106 128.523 383.046 128.561 382.986C128.523 383.046 128.484 383.106 128.447 383.166ZM562.279 409.82C562.316 409.803 562.354 409.787 562.391 409.769C562.548 409.692 562.703 409.612 562.856 409.532C562.869 409.526 562.88 409.518 562.893 409.512C562.691 409.617 562.487 409.72 562.279 409.82ZM529.132 409.208C529.207 409.236 529.283 409.262 529.358 409.29C529.233 409.243 529.107 409.197 528.983 409.15C529.033 409.169 529.082 409.189 529.132 409.208ZM564.709 408.431C564.352 408.671 563.983 408.9 563.604 409.119C563.655 409.089 563.708 409.062 563.76 409.031C563.907 408.945 564.052 408.856 564.195 408.767C564.369 408.658 564.54 408.544 564.709 408.431ZM565.835 407.61C565.673 407.738 565.509 407.863 565.342 407.986C565.509 407.863 565.674 407.738 565.836 407.61C565.964 407.51 566.089 407.406 566.213 407.301C566.089 407.406 565.963 407.51 565.835 407.61ZM525.603 407.739C525.682 407.776 525.763 407.811 525.844 407.848C525.703 407.784 525.564 407.721 525.427 407.656C525.485 407.684 525.543 407.712 525.603 407.739ZM208.2 407.504C208.309 407.588 208.419 407.671 208.53 407.752C208.419 407.671 208.309 407.588 208.2 407.504ZM401.366 407.504C401.475 407.588 401.585 407.671 401.696 407.752C401.585 407.671 401.475 407.588 401.366 407.504ZM596.682 407.488C596.732 407.528 596.784 407.565 596.835 407.604C596.767 407.553 596.7 407.501 596.634 407.448L596.682 407.488ZM207.959 407.316C208.009 407.356 208.06 407.395 208.11 407.435C208.021 407.365 207.932 407.295 207.845 407.224C207.883 407.255 207.921 407.286 207.959 407.316ZM401.125 407.316C401.175 407.356 401.226 407.395 401.276 407.435C401.187 407.365 401.098 407.295 401.011 407.224C401.049 407.255 401.087 407.286 401.125 407.316ZM289.962 374.598C282.201 374.598 277.01 375.996 273.964 378.396C271.063 380.681 269.36 384.724 269.36 391.134C269.36 393.169 269.61 395.19 270.111 397.198C270.572 399.01 271.448 400.686 272.773 402.234C274.034 403.667 275.975 404.915 278.752 405.885C281.456 406.829 285.164 407.345 289.962 407.345C294.76 407.345 298.467 406.829 301.171 405.885C303.953 404.913 305.868 403.666 307.088 402.243L307.095 402.234L307.103 402.226C308.463 400.675 309.353 399.003 309.812 397.198C310.313 395.19 310.562 393.169 310.562 391.134C310.562 384.725 308.859 380.681 305.959 378.396C302.913 375.996 297.723 374.598 289.962 374.598ZM548.112 374.597C546.039 374.633 543.756 374.807 541.264 375.123L541.252 375.125L541.239 375.126C538.846 375.399 536.525 375.912 534.273 376.662C532.084 377.392 530.194 378.392 528.584 379.648C527.228 380.732 526.276 382.127 525.723 383.895V403.009C528.443 403.971 531.518 404.915 534.95 405.835H534.951C538.844 406.834 543.227 407.345 548.112 407.345C554.839 407.345 559.212 405.895 561.736 403.461L561.973 403.225C564.381 400.735 565.787 396.653 565.787 390.537C565.787 386.215 564.942 383.083 563.478 380.931L563.471 380.92C561.934 378.631 559.906 377.039 557.344 376.102C554.633 375.11 551.563 374.598 548.112 374.598V374.597ZM207.682 407.091C207.715 407.119 207.75 407.146 207.784 407.174C207.693 407.099 207.602 407.024 207.513 406.947C207.569 406.995 207.625 407.044 207.682 407.091ZM400.848 407.091C400.881 407.119 400.916 407.146 400.95 407.174C400.859 407.099 400.768 407.024 400.679 406.947C400.735 406.995 400.791 407.044 400.848 407.091ZM595.97 406.838C596.045 406.917 596.122 406.994 596.2 407.068L595.971 406.838C595.895 406.759 595.82 406.677 595.747 406.594L595.97 406.838ZM504.142 405.46C504.143 405.448 504.147 405.437 504.148 405.425C504.15 405.415 504.148 405.404 504.149 405.394C504.147 405.416 504.145 405.438 504.142 405.46ZM503.363 403.826C503.449 403.901 503.533 403.987 503.614 404.087C503.976 404.448 504.156 404.846 504.156 405.279C504.156 405.3 504.154 405.321 504.153 405.342C504.154 405.321 504.157 405.3 504.157 405.279C504.157 405.171 504.146 405.065 504.123 404.961C504.1 404.857 504.067 404.756 504.021 404.656C503.999 404.607 503.974 404.557 503.945 404.509C503.889 404.412 503.821 404.316 503.742 404.224C503.703 404.177 503.66 404.132 503.615 404.087C503.575 404.037 503.533 403.991 503.491 403.947C503.408 403.86 503.322 403.786 503.233 403.724L503.363 403.826ZM594.561 404.846C594.639 404.994 594.722 405.138 594.806 405.278C594.723 405.138 594.64 404.995 594.562 404.847L594.561 404.846ZM205.421 404.815C205.497 404.908 205.573 404.999 205.65 405.09V405.089C205.548 404.969 205.446 404.847 205.347 404.724C205.371 404.754 205.396 404.785 205.421 404.815ZM398.587 404.815C398.663 404.908 398.739 404.999 398.816 405.09V405.089C398.714 404.969 398.612 404.847 398.513 404.724C398.537 404.754 398.562 404.785 398.587 404.815ZM205.866 392.357C205.872 392.512 205.88 392.666 205.888 392.818C205.878 392.643 205.871 392.467 205.864 392.289L205.866 392.357ZM399.032 392.357C399.038 392.512 399.046 392.666 399.054 392.818C399.045 392.643 399.037 392.467 399.03 392.289L399.032 392.357ZM316.888 391.953C316.881 392.22 316.871 392.484 316.857 392.746C316.871 392.484 316.882 392.22 316.889 391.953L316.898 391.134L316.888 391.953ZM201.52 390.107L201.521 390.098C201.522 390.049 201.525 390.001 201.526 389.953C201.525 390.004 201.521 390.056 201.52 390.107ZM394.686 390.107L394.687 390.098C394.688 390.049 394.691 390.001 394.692 389.953C394.691 390.004 394.687 390.056 394.686 390.107ZM460.813 385.173C460.77 385.415 460.731 385.661 460.695 385.911C460.731 385.662 460.77 385.416 460.813 385.174V385.173ZM312.038 385.405C312.108 385.749 312.171 386.1 312.227 386.459L312.138 385.926C312.106 385.75 312.073 385.576 312.038 385.404V385.405ZM482.044 374.598C475.551 374.598 470.769 375.727 467.489 377.765C464.942 379.366 463.253 382.074 462.666 386.261H499.339V385.714C499.339 383.65 498.82 381.836 497.803 380.221L497.799 380.214L497.794 380.207C496.842 378.667 495.2 377.308 492.646 376.228C490.174 375.181 486.679 374.598 482.044 374.598ZM462.509 380.221C462.056 381.032 461.677 381.919 461.372 382.883L461.514 382.456C461.709 381.893 461.931 381.358 462.18 380.85C462.242 380.723 462.306 380.597 462.371 380.474C462.416 380.388 462.462 380.304 462.509 380.221ZM41.1768 381.553C41.4903 381.117 41.8143 380.697 42.1484 380.29H42.1475C41.8135 380.697 41.4901 381.118 41.1768 381.553ZM130.492 380.29C130.158 380.697 129.835 381.118 129.521 381.553C129.835 381.117 130.159 380.697 130.493 380.29H130.492ZM458.802 379.072C458.522 379.541 458.265 380.033 458.028 380.549C458.342 379.865 458.694 379.223 459.083 378.621L458.802 379.072ZM523.316 371.738C523.406 372.099 523.451 372.566 523.451 373.14V380.294C523.451 380.293 523.452 380.291 523.452 380.29V373.14C523.452 372.566 523.406 372.099 523.316 371.738ZM462.782 379.752C462.758 379.791 462.736 379.83 462.713 379.869C462.747 379.812 462.781 379.755 462.816 379.698L462.782 379.752ZM6.28223 373.14V379.806C6.28257 379.805 6.28286 379.804 6.2832 379.803V373.14C6.2832 372.995 6.27872 372.857 6.27246 372.726C6.27868 372.857 6.28223 372.995 6.28223 373.14ZM94.627 373.14V379.806C94.6273 379.805 94.6276 379.804 94.6279 379.803V373.14C94.6279 372.995 94.6234 372.857 94.6172 372.726C94.6234 372.857 94.627 372.995 94.627 373.14ZM39.1367 378.65C39.2203 378.96 39.2895 379.255 39.3438 379.535V379.533C39.3168 379.394 39.2862 379.251 39.252 379.104C39.2175 378.957 39.1795 378.806 39.1377 378.651L39.1367 378.65ZM127.481 378.65C127.565 378.96 127.634 379.255 127.688 379.535V379.533C127.661 379.394 127.631 379.251 127.597 379.104C127.562 378.957 127.524 378.806 127.482 378.651L127.481 378.65ZM309.059 378.665C309.226 378.872 309.388 379.085 309.544 379.305L309.287 378.954C309.213 378.856 309.136 378.76 309.059 378.665ZM466.434 376.066C466.045 376.31 465.676 376.574 465.325 376.856C465.676 376.574 466.046 376.31 466.435 376.066C466.526 376.01 466.618 375.954 466.711 375.898C466.618 375.954 466.525 376.01 466.434 376.066ZM68.4297 377.985L68.3271 377.709C68.3071 377.657 68.2852 377.606 68.2646 377.556C68.3212 377.695 68.3774 377.838 68.4297 377.985ZM156.774 377.985L156.672 377.709C156.652 377.657 156.63 377.606 156.609 377.556C156.666 377.695 156.722 377.838 156.774 377.985ZM45.25 377.169H45.251H45.25ZM133.595 377.169H133.596H133.595ZM156.549 377.41C156.488 377.267 156.427 377.127 156.361 376.992C156.427 377.127 156.488 377.267 156.549 377.41ZM68.2041 377.41C68.1433 377.267 68.0819 377.127 68.0166 376.992C68.0819 377.127 68.1432 377.267 68.2041 377.41ZM342.385 376.507C342.143 376.645 341.903 376.787 341.667 376.934C341.591 376.981 341.517 377.031 341.442 377.079L341.668 376.934C341.904 376.787 342.143 376.645 342.385 376.507ZM272.726 376.825C272.666 376.872 272.608 376.921 272.55 376.969L272.727 376.825C272.76 376.799 272.795 376.773 272.829 376.746C272.795 376.773 272.76 376.798 272.726 376.825ZM47.6904 375.416C47.1215 375.768 46.5703 376.145 46.0371 376.547L46.4414 376.251C46.8482 375.959 47.2646 375.68 47.6914 375.416C47.7455 375.383 47.8009 375.352 47.8555 375.319C47.8006 375.352 47.7448 375.383 47.6904 375.416ZM136.035 375.416C135.466 375.768 134.915 376.145 134.382 376.547L134.786 376.251C135.193 375.959 135.609 375.68 136.036 375.416C136.09 375.383 136.146 375.352 136.2 375.319C136.145 375.352 136.089 375.383 136.035 375.416ZM274.967 375.388C274.692 375.531 274.426 375.68 274.169 375.834L274.562 375.607C274.828 375.459 275.102 375.315 275.385 375.178L274.967 375.388ZM344.162 375.58C344.113 375.603 344.065 375.628 344.016 375.651C344.236 375.546 344.458 375.442 344.683 375.343L344.162 375.58ZM467.993 375.208C467.794 375.305 467.598 375.403 467.406 375.506C467.598 375.403 467.794 375.305 467.993 375.208ZM33.4365 375.416L33.291 375.242C33.2593 375.206 33.2259 375.171 33.1934 375.135C33.2766 375.226 33.3585 375.319 33.4365 375.416ZM121.781 375.416L121.636 375.242C121.604 375.206 121.571 375.171 121.538 375.135C121.621 375.226 121.703 375.319 121.781 375.416ZM310.34 374.549C310.612 374.76 310.876 374.98 311.131 375.208C311.004 375.095 310.875 374.982 310.744 374.873L310.341 374.549C310.21 374.445 310.075 374.343 309.939 374.242L310.34 374.549ZM121.482 375.074C121.4 374.986 121.316 374.898 121.229 374.814C121.316 374.898 121.4 374.986 121.482 375.074ZM33.1377 375.074C33.055 374.986 32.971 374.898 32.8838 374.814C32.971 374.898 33.055 374.986 33.1377 375.074ZM104.161 374.411C103.693 374.6 103.235 374.804 102.787 375.022C103.235 374.804 103.693 374.6 104.161 374.411ZM15.8164 374.411C15.3481 374.6 14.8902 374.804 14.4424 375.022C14.8902 374.804 15.3481 374.6 15.8164 374.411ZM137.224 374.755C137.186 374.774 137.149 374.795 137.111 374.814C137.173 374.783 137.235 374.751 137.297 374.72L137.224 374.755ZM48.8789 374.755C48.841 374.774 48.8043 374.795 48.7666 374.814C48.8283 374.783 48.8899 374.751 48.9521 374.72L48.8789 374.755ZM533.641 374.766C533.606 374.777 533.571 374.789 533.536 374.801L533.642 374.766C533.717 374.741 533.792 374.717 533.867 374.692C533.792 374.717 533.716 374.741 533.641 374.766ZM472.858 373.527C471.795 373.774 470.795 374.069 469.858 374.414C470.795 374.069 471.795 373.774 472.858 373.527ZM50.7969 373.93C50.5748 374.01 50.3557 374.095 50.1396 374.183L50.7979 373.93C51.0201 373.849 51.2453 373.772 51.4736 373.698L50.7969 373.93ZM139.142 373.93C138.92 374.01 138.7 374.095 138.484 374.183L139.143 373.93C139.365 373.849 139.59 373.772 139.818 373.698L139.142 373.93ZM279.185 373.79C278.803 373.892 278.431 374.001 278.069 374.116C278.265 374.054 278.464 373.994 278.666 373.936C278.837 373.886 279.01 373.838 279.186 373.791L279.185 373.79ZM219.715 373.39C219.549 373.422 219.386 373.456 219.224 373.49C219.322 373.469 219.42 373.448 219.52 373.428C219.584 373.415 219.65 373.402 219.715 373.39ZM412.881 373.39C412.715 373.422 412.552 373.456 412.39 373.49C412.488 373.469 412.586 373.448 412.686 373.428C412.75 373.415 412.816 373.402 412.881 373.39ZM70.1289 373.248C70.193 373.316 70.256 373.385 70.3184 373.455L70.1299 373.248C70.0555 373.168 69.9793 373.089 69.9023 373.012C69.9791 373.089 70.0547 373.168 70.1289 373.248ZM158.474 373.248C158.538 373.316 158.601 373.385 158.663 373.455L158.475 373.248C158.4 373.168 158.324 373.089 158.247 373.012C158.324 373.089 158.399 373.168 158.474 373.248ZM541.012 373.14C540.74 373.171 540.469 373.205 540.199 373.242L541.013 373.14C541.333 373.099 541.651 373.061 541.965 373.024L541.012 373.14ZM282.365 373.13C282.219 373.153 282.074 373.176 281.931 373.2C282.074 373.176 282.219 373.153 282.365 373.13ZM221.561 373.078C221.401 373.101 221.242 373.125 221.085 373.149C221.168 373.137 221.251 373.123 221.334 373.11C221.409 373.099 221.485 373.089 221.561 373.078ZM414.727 373.078C414.567 373.101 414.408 373.125 414.251 373.149C414.334 373.137 414.417 373.123 414.5 373.11C414.575 373.099 414.651 373.089 414.727 373.078ZM55.127 372.872C54.8827 372.907 54.6412 372.945 54.4023 372.986C54.6412 372.945 54.8827 372.908 55.127 372.873V372.872ZM143.472 372.872C143.227 372.907 142.986 372.945 142.747 372.986C142.986 372.945 143.227 372.908 143.472 372.873V372.872ZM284.312 372.876C284.157 372.892 284.003 372.91 283.851 372.928C284.003 372.91 284.157 372.892 284.312 372.876ZM110.728 372.797V372.798V372.797ZM22.3828 372.797V372.798V372.797ZM480.807 372.61C479.375 372.642 478.016 372.732 476.729 372.876C477.651 372.773 478.61 372.698 479.606 372.652C480.001 372.634 480.401 372.62 480.808 372.611L480.807 372.61ZM226.047 372.665C225.807 372.676 225.569 372.689 225.333 372.703L226.048 372.665C226.288 372.654 226.531 372.644 226.775 372.636L226.047 372.665ZM419.213 372.665C418.973 372.676 418.735 372.689 418.499 372.703L419.214 372.665C419.454 372.654 419.697 372.644 419.941 372.636L419.213 372.665ZM288.503 372.613C288.436 372.615 288.369 372.617 288.302 372.619C288.606 372.611 288.914 372.605 289.226 372.602L288.503 372.613ZM94.4883 371.776L94.4785 371.73C94.469 371.696 94.4577 371.663 94.4473 371.63C94.4622 371.677 94.4751 371.726 94.4883 371.776ZM6.14355 371.776L6.13379 371.73C6.12425 371.696 6.113 371.663 6.10254 371.63C6.11746 371.677 6.13037 371.726 6.14355 371.776ZM335.98 370.984C336.045 371.061 336.098 371.147 336.139 371.242H336.14C336.099 371.148 336.046 371.061 335.981 370.984H335.98ZM522.909 370.972C522.922 370.982 522.935 370.994 522.947 371.006C522.935 370.994 522.923 370.982 522.91 370.972C522.887 370.951 522.863 370.933 522.839 370.914C522.862 370.933 522.887 370.951 522.909 370.972ZM4.63672 370.511C4.57513 370.502 4.51197 370.496 4.44727 370.491L4.44238 370.49C4.50881 370.495 4.57357 370.502 4.63672 370.511ZM291.126 369.409C291.025 369.408 290.923 369.405 290.821 369.404C290.537 369.401 290.251 369.399 289.962 369.399H289.961C290.354 369.399 290.742 369.403 291.126 369.409ZM483.036 369.408C482.938 369.406 482.841 369.405 482.742 369.403C482.511 369.4 482.279 369.399 482.044 369.399H482.043C482.378 369.399 482.709 369.402 483.036 369.408ZM262.641 226.52C244.656 245.175 209.233 255.805 189.908 266.577C176.769 273.901 170.094 287.052 173.863 300.501C212.382 296.14 256.601 268.59 279.296 242.617C263.302 285.528 201.388 317.602 152.885 322.687C145.128 292.43 151.356 261.718 188.564 254.246C215.519 248.833 239.792 240.285 262.641 226.52ZM357.123 226.52C379.972 240.285 404.246 248.833 431.2 254.246C468.409 261.718 474.637 292.43 466.88 322.687C418.376 317.602 356.463 285.528 340.469 242.617C363.164 268.59 407.383 296.14 445.901 300.501C449.671 287.052 442.995 273.901 429.856 266.577C410.531 255.805 375.108 245.175 357.123 226.52ZM309.883 130.059C318.641 130.059 325.741 136.391 325.741 144.202C325.741 152.004 318.658 158.329 309.914 158.344C310.979 158.35 312.014 158.709 313.031 159.419C320.566 164.563 326.389 187.793 327.009 216.429V216.592C326.96 256.786 311.956 283.517 311.482 284.348L311.466 284.364C311.434 284.352 311.986 254.001 311.988 253.873C312.38 234.257 312.184 215.454 309.884 196.765C307.584 215.454 307.389 234.257 307.78 253.873C307.783 254.001 308.335 284.349 308.303 284.364L308.286 284.348C307.813 283.517 292.809 256.785 292.76 216.592V216.429C293.38 187.793 299.203 164.564 306.737 159.419C307.754 158.709 308.787 158.351 309.852 158.344C301.108 158.329 294.025 152.004 294.024 144.202C294.024 136.391 301.124 130.059 309.883 130.059ZM31.9141 64.9727C38.7377 93.9274 50.5959 120.822 71.75 144.659C91.8794 167.679 115.283 187.166 144.613 202.171C128.877 181.162 109.252 155.351 114.91 129.522C119.333 109.333 151.362 116.824 167.449 126.421C179.05 133.341 188.356 141.979 197.256 151.776C198.056 146.651 200.658 142.091 203.636 139.477C216.087 128.543 241.664 140.424 254.43 151.38C265.001 160.454 274.598 170.713 279.437 184.036C267.346 173.773 240.01 146.287 221.714 151.957C218.817 152.855 217.834 156.625 218.188 159.392C220.437 177.026 231.217 191.781 246.635 202.664C205.825 200.931 201.279 180.58 177.676 157.861C171.364 151.786 153.796 137.801 145.444 143.205C133.076 151.209 159.865 189.523 170.045 200.068L203.889 235.127C154.917 232.742 104.594 202.373 73.7002 169.125C46.7831 140.158 32.209 103.709 31.9141 64.9727ZM587.849 64.9727C587.554 103.709 572.98 140.158 546.062 169.125C515.168 202.373 464.846 232.742 415.874 235.127L449.718 200.068C459.897 189.523 486.687 151.209 474.318 143.205C465.966 137.801 448.399 151.786 442.087 157.861C418.484 180.58 413.938 200.931 373.128 202.664C388.546 191.781 399.325 177.026 401.575 159.392C401.928 156.625 400.945 152.855 398.049 151.957C379.752 146.287 352.415 173.773 340.325 184.036C345.164 170.713 354.761 160.454 365.333 151.38C378.099 140.424 403.676 128.543 416.127 139.477C419.105 142.091 419.924 146.476 422.507 151.776C431.406 141.979 440.713 133.341 452.313 126.421C468.4 116.824 500.43 109.333 504.853 129.522C510.511 155.351 490.886 181.162 475.149 202.171C504.479 187.166 527.883 167.679 548.013 144.659C569.167 120.822 581.025 93.9274 587.849 64.9727ZM3.09473 29.0186C62.5601 25.9613 144.535 50.6817 193.998 79.5771C217.444 93.2743 238.275 107.553 256.269 126.6C265.842 139.033 277.138 150.097 283.228 164.674C271.588 149.542 260.511 135.749 244.362 124.225C228.771 113.097 213.31 103.062 194.89 94.292V94.293C145.766 70.9072 85.332 52.7769 29.9092 54.1875C27.8984 70.7268 31.0956 86.3788 34.5156 103.028C42.1354 132.053 58.4301 157.057 78.7344 181.244C24.1078 146.587 -6.3783 90.3043 3.09473 29.0186ZM425.768 79.5771C475.231 50.6817 557.206 25.9612 616.671 29.0186C626.144 90.3043 595.657 146.588 541.03 181.244C561.335 157.057 577.629 132.053 585.249 103.028C588.669 86.3788 591.867 70.7268 589.856 54.1875C534.434 52.7768 473.999 70.9071 424.875 94.293V94.292C406.455 103.062 390.995 113.097 375.403 124.225C359.255 135.749 348.177 149.542 336.537 164.674C342.626 150.097 353.923 139.033 363.496 126.6C381.49 107.553 402.322 93.2743 425.768 79.5771ZM302.97 116.749L302.968 116.748C302.968 116.745 302.968 116.743 302.968 116.74C302.968 116.743 302.969 116.746 302.97 116.749ZM396.713 0C404.471 0 410.761 5.60865 410.761 12.5273C410.761 19.4462 404.471 25.0557 396.713 25.0557C390.129 25.0555 384.603 21.0148 383.082 15.5625C383.096 15.6146 383.108 15.6669 383.122 15.7188C343.202 27.8465 323.434 85.2091 316.806 116.743C316.295 87.1002 328.818 60.8437 346.213 38.0371C356.361 27.0979 367.734 18.4041 382.738 13.8789C382.761 14.0337 382.786 14.1884 382.813 14.3428C382.717 13.7501 382.666 13.1438 382.666 12.5273C382.666 5.60874 388.955 0.000144335 396.713 0ZM223.066 0C230.824 0 237.114 5.60865 237.114 12.5273C237.114 13.0238 237.08 13.5137 237.017 13.9951C237.023 13.9563 237.03 13.9177 237.036 13.8789C252.04 18.4041 263.413 27.0979 273.562 38.0371C290.956 60.8429 303.477 87.0985 302.968 116.74C296.339 85.2057 276.571 27.8467 236.653 15.7188C235.071 21.0919 229.588 25.0557 223.066 25.0557C215.309 25.0555 209.02 19.4461 209.02 12.5273C209.02 5.60874 215.309 0.000144335 223.066 0Z" fill="white"/>
</svg>
