<svg width="705" height="385" viewBox="0 0 705 385" fill="none" xmlns="http://www.w3.org/2000/svg">
<path d="M299.448 197.901C298.417 198.953 297.305 201.533 297.545 202.968C297.627 203.447 298.019 204.113 298.493 204.304C298.575 204.402 298.733 204.402 298.891 204.402C300.396 204.402 301.983 201.915 302.381 200.579C302.855 198.953 302.223 197.808 301.35 197.426C300.952 197.235 300.238 197.044 299.448 197.906V197.901Z" fill="white"/>
<path d="M298.887 205.22C298.701 205.22 298.342 205.22 298.042 205.002C297.333 204.637 296.842 203.775 296.733 203.104C296.45 201.403 297.66 198.566 298.849 197.339C299.688 196.434 300.697 196.205 301.7 196.69C302.823 197.181 303.778 198.692 303.162 200.813C302.72 202.308 300.959 205.226 298.887 205.226V205.22ZM300.692 198.081C300.523 198.081 300.315 198.163 300.043 198.457L300.026 198.474C299.149 199.368 298.156 201.692 298.347 202.831C298.396 203.121 298.663 203.491 298.794 203.546L298.887 203.584C299.754 203.584 301.188 201.702 301.591 200.344C301.935 199.166 301.553 198.403 301.019 198.174C300.931 198.13 300.828 198.081 300.697 198.081H300.692Z" fill="white"/>
<path d="M664.681 115.312C664.103 114.832 663.241 114.908 662.761 115.486C662.68 115.584 654.567 125.287 644.038 134.755C630.276 147.125 618.717 153.462 610.637 153.075C607.507 152.922 605.402 151.537 604.203 148.826C602.295 144.507 602.818 137.515 604.863 129.454C625.969 108.058 645.069 78.9062 642.888 71.3142C642.539 70.098 641.693 69.2744 640.505 69.0017C637.217 68.2382 632.899 71.0524 627.686 77.3572C620.516 86.0291 612.365 100.58 606.924 114.428C605.484 118.088 603.756 122.931 602.431 128.014C589.83 142.042 572.476 151.662 565.437 152.246C560.895 152.622 557.89 151.602 556.516 149.203C552.956 143.001 559.962 128.123 564.324 121.9C564.335 121.889 564.335 121.873 564.346 121.862C564.373 121.818 564.395 121.775 564.417 121.731C564.439 121.693 564.455 121.655 564.471 121.616C564.488 121.573 564.499 121.529 564.515 121.485C564.526 121.442 564.537 121.404 564.548 121.36C564.553 121.316 564.559 121.273 564.564 121.229C564.564 121.185 564.57 121.142 564.57 121.098C564.57 121.055 564.564 121.011 564.559 120.967C564.559 120.924 564.548 120.88 564.542 120.842C564.531 120.798 564.521 120.755 564.504 120.711C564.493 120.673 564.482 120.629 564.466 120.591C564.45 120.547 564.428 120.509 564.406 120.471C564.384 120.433 564.362 120.395 564.341 120.356C564.319 120.318 564.286 120.286 564.259 120.253C564.232 120.215 564.199 120.182 564.166 120.149C564.155 120.138 564.15 120.127 564.139 120.116C564.117 120.095 564.084 120.078 564.063 120.056C564.041 120.04 564.019 120.018 563.997 119.997C563.986 119.991 563.975 119.986 563.959 119.975C563.915 119.947 563.872 119.92 563.823 119.898C563.784 119.882 563.752 119.86 563.714 119.849C563.67 119.833 563.621 119.817 563.577 119.806C563.539 119.795 563.501 119.784 563.463 119.778C563.414 119.767 563.37 119.767 563.321 119.762C563.283 119.762 563.239 119.757 563.201 119.757C563.152 119.757 563.108 119.762 563.059 119.767C563.021 119.767 562.983 119.773 562.945 119.784C562.896 119.795 562.852 119.806 562.803 119.822C562.765 119.833 562.727 119.844 562.694 119.86C562.65 119.877 562.607 119.898 562.569 119.926C562.53 119.947 562.492 119.964 562.46 119.986C562.421 120.013 562.389 120.04 562.35 120.067C562.318 120.095 562.28 120.127 562.247 120.16C562.236 120.171 562.225 120.176 562.214 120.193C559.733 122.865 557.084 127.01 554.276 131.401C548.234 140.847 540.715 152.6 532.39 152.857C530.683 152.9 529.489 152.311 528.742 151.024C526.708 147.545 528.191 140.127 532.264 133.392C537.929 124.032 546.713 118.688 555.742 119.113C555.759 119.113 555.775 119.113 555.791 119.113C555.84 119.113 555.884 119.113 555.928 119.108C555.982 119.108 556.031 119.097 556.08 119.086C556.108 119.086 556.129 119.075 556.151 119.069C556.222 119.053 556.287 119.031 556.347 119.004C556.353 119.004 556.358 118.998 556.364 118.993C556.516 118.922 556.658 118.824 556.773 118.704C556.773 118.704 556.778 118.698 556.784 118.693C556.838 118.633 556.887 118.573 556.931 118.508C556.942 118.491 556.947 118.475 556.958 118.464C556.991 118.409 557.024 118.349 557.051 118.284C557.062 118.257 557.073 118.224 557.084 118.197C557.1 118.142 557.116 118.093 557.127 118.039C557.127 118.022 557.138 118.011 557.138 117.995C557.138 117.968 557.138 117.94 557.143 117.913C557.143 117.886 557.154 117.859 557.154 117.826C557.154 117.809 557.154 117.793 557.154 117.777C557.154 117.728 557.154 117.679 557.149 117.629C557.149 117.586 557.138 117.548 557.133 117.504C557.122 117.46 557.111 117.411 557.1 117.368C557.089 117.324 557.073 117.286 557.062 117.248C557.045 117.204 557.024 117.166 557.002 117.128C556.98 117.09 556.964 117.051 556.936 117.013C556.914 116.975 556.882 116.942 556.854 116.904C556.827 116.871 556.8 116.839 556.773 116.806C556.74 116.773 556.707 116.746 556.675 116.713C556.642 116.686 556.609 116.659 556.576 116.637C556.538 116.61 556.5 116.588 556.462 116.566C556.424 116.544 556.386 116.522 556.342 116.506C556.304 116.49 556.26 116.473 556.222 116.462C556.178 116.446 556.135 116.435 556.086 116.424C556.069 116.424 556.053 116.413 556.037 116.408C542.597 114.063 525.656 131.733 514.451 143.427C510.34 147.719 505.684 152.579 504.397 152.77C503.219 152.835 502.816 152.431 502.603 152.071C501.955 150.997 501.148 146.977 507.729 132.862C511.458 124.856 515.749 117.559 515.793 117.488C516.158 116.871 515.978 116.075 515.389 115.671C514.8 115.268 513.993 115.388 513.552 115.95C505.482 126.16 482.784 152.671 474.818 152.759C474.78 152.759 474.742 152.759 474.704 152.759C471.934 152.759 471.339 151.591 471.143 151.199C470.314 149.563 470.025 144.921 477.424 132.213C480.679 126.623 484.251 121.524 485.87 119.277C486.442 118.502 486.759 118.06 486.775 118.033C487.206 117.422 487.064 116.582 486.459 116.146C485.854 115.71 485.014 115.835 484.567 116.43C484.338 116.735 483.924 117.297 483.367 118.066C480.15 122.364 470.702 134.4 459.47 143.383C449.677 151.221 441.041 154.438 435.147 152.448C432.131 151.428 430.201 149.492 429.253 146.525C427.388 140.722 429.334 131.139 434.885 118.388C435.038 118.18 435.125 118.066 435.13 118.055C435.31 117.809 435.386 117.526 435.386 117.248C437.589 112.301 440.315 106.901 443.565 101.066C447.033 94.8318 450.637 88.936 453.788 84.0056C470.429 86.8363 477.217 80.286 477.506 79.9969C478.035 79.4679 478.035 78.6117 477.506 78.0772C476.983 77.5427 476.121 77.5372 475.581 78.0608C475.521 78.1208 469.682 83.5857 455.397 81.4968C459.753 74.7884 462.905 70.3979 462.959 70.3161C463.401 69.7053 463.259 68.8544 462.648 68.4127C462.038 67.9709 461.187 68.1127 460.745 68.7236C460.282 69.3726 456.918 74.0739 452.447 80.9896C435.277 77.7335 425.185 82.6203 424.765 82.833C424.095 83.1712 423.822 83.9838 424.155 84.6601C424.394 85.14 424.874 85.4182 425.376 85.4182C425.578 85.4182 425.785 85.3746 425.976 85.2764C425.997 85.2655 428.462 84.0656 432.922 83.2857C436.799 82.6094 442.971 82.1185 450.86 83.4711C444.977 92.732 437.682 105.123 432.491 117.03C430.834 119.249 424.525 127.523 416.718 135.579C404.919 147.757 395.17 153.877 388.523 153.288C387.133 153.162 386.626 152.491 386.37 152.001C383.916 147.305 390.922 131.668 395.917 122.92C396.26 122.32 396.097 121.556 395.54 121.147C393.97 119.991 392.155 118.458 390.552 116.871C395.546 112.115 394.87 108.227 394.455 107.289C394.063 106.405 393.081 105.396 390.601 105.62C386.669 105.974 384.374 107.256 383.769 109.427C383.125 111.734 384.739 114.499 386.877 116.975C362.712 145.379 348.53 155.698 333.002 156.255C329.965 156.364 327.991 155.562 326.993 153.806C322.871 146.503 335.063 124.834 340.106 117.1C340.493 116.506 340.324 115.715 339.735 115.328C339.141 114.941 338.351 115.11 337.963 115.699C337.914 115.77 333.231 122.98 329.272 131.27C323.82 142.701 322.304 150.702 324.763 155.066C326.175 157.564 328.765 158.829 332.478 158.829C332.68 158.829 332.887 158.829 333.094 158.818C349.408 158.234 364.048 147.73 388.649 118.846L388.867 119.069C390.388 120.547 391.92 121.802 392.962 122.614C390.17 127.665 380.35 146.361 383.954 153.266C384.799 154.88 386.293 155.829 388.283 156.009C395.9 156.685 406.113 150.457 418.68 137.482C422.655 133.381 426.254 129.214 429.062 125.8C426.172 134.226 424.902 141.9 426.657 147.365C427.879 151.161 430.441 153.746 434.28 155.038C435.774 155.546 437.327 155.769 438.914 155.769C446.58 155.769 454.999 150.462 461.176 145.521C465.44 142.107 469.447 138.273 472.975 134.57C469.344 141.474 466.754 148.581 468.711 152.437C469.42 153.833 471.034 155.486 474.709 155.486C474.753 155.486 474.802 155.486 474.851 155.486C482.162 155.404 497.113 139.582 506.829 128.33C502.249 137.58 497.614 149.088 500.275 153.489C500.875 154.477 502.102 155.622 504.544 155.496C506.698 155.387 509.741 152.295 516.425 145.319C520.378 141.196 525.067 136.298 530.018 131.853C529.991 131.897 529.963 131.941 529.936 131.99C525.302 139.647 523.846 148.046 526.392 152.41C527.613 154.498 529.614 155.595 532.193 155.595C532.286 155.595 532.384 155.595 532.482 155.595C541.152 155.327 548.125 145.908 554.286 136.446C552.362 142.609 552.318 147.359 554.166 150.577C555.879 153.56 559.074 155.066 563.686 155.066C564.324 155.066 564.989 155.038 565.682 154.978C570.006 154.618 577.056 151.521 584.536 146.694C590.588 142.789 596.346 138.142 601.27 133.217C600.075 139.467 599.814 145.603 601.733 149.939C603.341 153.582 606.384 155.611 610.528 155.813C610.806 155.824 611.084 155.835 611.367 155.835C632.484 155.835 663.552 118.846 664.882 117.248C665.362 116.67 665.286 115.808 664.708 115.328L664.681 115.312ZM386.386 110.147C386.642 109.219 388.267 108.559 390.835 108.325C391.01 108.309 391.157 108.303 391.288 108.303C391.784 108.303 391.953 108.396 391.953 108.385C392.04 108.587 392.623 110.703 388.665 114.842C387.089 112.988 386.086 111.243 386.391 110.147H386.386ZM629.775 79.0861C633.706 74.3303 637.239 71.5924 639.387 71.5924C639.562 71.5924 639.725 71.6087 639.878 71.6469C640.047 71.6851 640.161 71.7342 640.254 72.0559C641.704 77.1009 627.059 101.917 606.455 123.847C611.542 107.818 621.362 89.2524 629.769 79.0861H629.775Z" fill="white"/>
<path d="M332.47 159.641C328.446 159.641 325.605 158.234 324.04 155.464C321.439 150.855 322.95 142.598 328.522 130.915C332.481 122.62 337.219 115.322 337.268 115.251C337.9 114.286 339.203 114.008 340.174 114.641C341.144 115.273 341.417 116.577 340.784 117.548C333.876 128.134 324.215 147.234 327.699 153.402C328.528 154.869 330.24 155.535 332.966 155.436C348.183 154.891 362.043 144.812 385.799 116.969C383.329 113.953 382.381 111.341 382.975 109.203C383.678 106.672 386.214 105.189 390.521 104.802C393.64 104.518 394.785 106.029 395.194 106.951C395.276 107.136 397.058 111.357 391.715 116.86C393.067 118.148 394.605 119.446 396.017 120.482C396.911 121.136 397.173 122.358 396.622 123.323C391.35 132.557 384.911 147.446 387.092 151.619C387.217 151.864 387.484 152.371 388.596 152.469C393.067 152.868 401.453 150.157 416.131 135.006C423.781 127.114 429.974 119.026 431.779 116.615C436.921 104.84 444.129 92.612 449.505 84.0819C442.27 82.9911 436.61 83.4711 433.066 84.0928C428.748 84.8509 426.37 86.0017 426.343 86.0127C426.038 86.1599 425.705 86.2363 425.378 86.2363C424.544 86.2363 423.791 85.7727 423.421 85.0255C422.886 83.951 423.328 82.6366 424.402 82.1021C424.827 81.8894 434.958 76.9863 452.062 80.0842C456.457 73.3103 459.723 68.7508 460.088 68.2435C460.426 67.7691 460.933 67.4582 461.511 67.3655C462.089 67.2673 462.661 67.4091 463.136 67.7473C463.61 68.0854 463.921 68.5926 464.014 69.1653C464.106 69.7379 463.97 70.3161 463.632 70.7906C463.507 70.9651 460.704 74.8865 456.8 80.8532C469.602 82.3694 474.978 77.5153 475.033 77.4608C475.883 76.6373 477.263 76.6482 478.097 77.499C478.937 78.3498 478.931 79.7242 478.086 80.5696C477.797 80.8586 470.884 87.5616 454.188 84.8946C450.546 90.6158 447.215 96.1898 444.282 101.453C441.108 107.152 438.393 112.524 436.201 117.428C436.168 117.826 436.032 118.202 435.798 118.524C435.798 118.524 435.727 118.622 435.601 118.791C430.187 131.248 428.262 140.749 430.034 146.268C430.901 148.973 432.662 150.741 435.416 151.668C441.037 153.566 449.401 150.397 458.965 142.74C470 133.91 479.253 122.194 482.715 117.569C483.266 116.8 483.686 116.239 483.915 115.933C484.624 114.984 485.981 114.777 486.941 115.475C487.901 116.173 488.124 117.526 487.443 118.497C487.344 118.633 487.034 119.064 486.527 119.756C485.109 121.725 481.434 126.945 478.13 132.617C470.655 145.456 471.26 149.622 471.871 150.822C472.007 151.095 472.432 151.93 474.7 151.93H474.815C481.598 151.853 501.782 129.503 512.905 115.431C513.614 114.537 514.906 114.341 515.849 114.984C516.793 115.628 517.076 116.904 516.493 117.891C516.449 117.962 512.153 125.287 508.467 133.195C501.706 147.703 502.976 151.101 503.298 151.635C503.363 151.75 503.505 151.973 504.296 151.94C505.457 151.619 510.713 146.132 513.859 142.849C525.178 131.03 542.293 113.168 556.175 115.59L556.284 115.617C556.344 115.633 556.41 115.65 556.475 115.671C556.535 115.693 556.606 115.715 556.671 115.742C556.737 115.77 556.802 115.802 556.862 115.841C556.911 115.868 556.977 115.906 557.042 115.95C557.086 115.977 557.135 116.02 557.184 116.059C557.255 116.119 557.309 116.168 557.358 116.217C557.402 116.26 557.446 116.31 557.484 116.359C557.533 116.419 557.576 116.479 557.62 116.539C557.653 116.588 557.685 116.653 557.718 116.713C557.756 116.784 557.789 116.849 557.816 116.915C557.838 116.969 557.86 117.04 557.882 117.106C557.904 117.171 557.92 117.242 557.936 117.313C557.947 117.389 557.958 117.449 557.964 117.515C557.969 117.58 557.974 117.651 557.974 117.717V117.82C557.974 117.891 557.964 117.94 557.958 117.989C557.958 117.989 557.958 118.044 557.947 118.098L557.92 118.213C557.904 118.289 557.882 118.36 557.86 118.431C557.838 118.491 557.822 118.535 557.805 118.578C557.767 118.671 557.718 118.764 557.664 118.857L557.62 118.927C557.549 119.037 557.467 119.14 557.38 119.233C557.178 119.446 556.955 119.604 556.704 119.718C556.568 119.778 556.464 119.811 556.355 119.838L556.246 119.866C556.148 119.887 556.061 119.898 555.973 119.904C555.919 119.904 555.848 119.915 555.766 119.915H555.706H555.674C546.961 119.5 538.466 124.692 532.954 133.8C529.088 140.187 527.577 147.408 529.437 150.593C530.036 151.619 530.931 152.044 532.359 152.017C540.249 151.771 547.637 140.22 553.574 130.943C556.404 126.525 559.07 122.347 561.606 119.62L561.688 119.544C561.731 119.5 561.775 119.462 561.824 119.424C561.889 119.369 561.944 119.331 561.998 119.293C562.047 119.26 562.107 119.227 562.162 119.195C562.233 119.157 562.298 119.124 562.369 119.091C562.424 119.069 562.478 119.053 562.533 119.037C562.631 119.004 562.702 118.987 562.773 118.971C562.833 118.96 562.887 118.955 562.942 118.949C563.029 118.938 563.105 118.933 563.181 118.933C563.247 118.933 563.301 118.933 563.356 118.944C563.449 118.949 563.525 118.96 563.596 118.971C563.667 118.982 563.727 118.998 563.787 119.02C563.858 119.042 563.939 119.064 564.016 119.097C564.059 119.113 564.114 119.14 564.168 119.167C564.239 119.206 564.299 119.233 564.359 119.271L564.425 119.309C564.506 119.364 564.545 119.396 564.583 119.435C564.605 119.446 564.643 119.478 564.686 119.516L564.774 119.609C564.817 119.658 564.855 119.702 564.888 119.746C564.943 119.811 564.981 119.866 565.019 119.92C565.052 119.969 565.09 120.035 565.123 120.095C565.161 120.166 565.193 120.231 565.221 120.291C565.248 120.351 565.264 120.416 565.286 120.482C565.313 120.564 565.33 120.629 565.341 120.695C565.352 120.76 565.362 120.825 565.368 120.891C565.379 120.973 565.384 121.038 565.384 121.104C565.384 121.169 565.384 121.229 565.373 121.295C565.362 121.393 565.357 121.453 565.346 121.513C565.335 121.584 565.319 121.638 565.302 121.698C565.275 121.802 565.253 121.867 565.226 121.933C565.204 121.993 565.172 122.053 565.144 122.107C565.117 122.167 565.084 122.222 565.052 122.276L564.997 122.369C560.466 128.837 554 143.187 557.222 148.799C558.427 150.893 561.17 151.782 565.368 151.433C572.08 150.871 589.113 141.551 601.692 127.616C602.804 123.383 604.314 118.851 606.168 114.133C611.637 100.209 619.837 85.5709 627.062 76.839C632.568 70.1797 637.028 67.3545 640.698 68.2054C642.165 68.5435 643.25 69.5962 643.68 71.0905C645.943 78.9607 627.105 108.03 605.612 129.874C603.507 138.262 603.284 144.698 604.963 148.499C606.037 150.931 607.858 152.126 610.688 152.262C618.55 152.617 629.902 146.377 643.506 134.15C653.914 124.791 662.071 115.061 662.148 114.968C662.922 114.046 664.296 113.921 665.217 114.684C666.139 115.459 666.264 116.833 665.495 117.76C664.17 119.347 632.857 156.636 611.353 156.642C611.059 156.642 610.77 156.636 610.475 156.62C605.999 156.407 602.711 154.204 600.966 150.261C599.407 146.732 599.091 141.785 600.023 135.546C595.449 139.882 590.285 143.939 584.958 147.375C577.369 152.273 570.177 155.415 565.728 155.786C559.692 156.287 555.554 154.662 553.438 150.975C551.977 148.428 551.612 145.008 552.353 140.782C546.852 148.761 540.401 156.156 532.49 156.402C532.386 156.402 532.283 156.402 532.179 156.402C529.295 156.402 527.043 155.158 525.675 152.813C523.45 149.001 524.061 142.374 527.038 135.726C523.368 139.238 519.917 142.843 517.005 145.881C509.988 153.206 507.044 156.184 504.574 156.309C501.564 156.462 500.147 154.869 499.563 153.909C497.568 150.621 498.925 143.672 503.592 133.228C493.446 144.556 481.412 156.227 474.842 156.298H474.689C470.6 156.298 468.779 154.395 467.967 152.802C466.489 149.895 467.192 145.156 470.049 138.682C467.209 141.463 464.406 143.967 461.675 146.148C455.731 150.904 446.953 156.576 438.9 156.576C437.172 156.576 435.525 156.315 434.004 155.802C429.909 154.417 427.172 151.662 425.869 147.605C424.451 143.187 424.844 137.1 427.03 129.47C424.408 132.541 421.801 135.409 419.255 138.038C406.513 151.193 396.05 157.504 388.198 156.811C385.919 156.609 384.196 155.507 383.22 153.631C382.01 151.319 380.467 143.705 391.901 122.816C391.001 122.102 389.856 121.136 388.689 120.035C364.224 148.652 349.634 159.031 333.113 159.62C332.895 159.625 332.682 159.631 332.47 159.631V159.641ZM339.029 115.933C338.876 115.933 338.729 116.01 338.636 116.146C338.593 116.217 333.914 123.422 330 131.624C324.667 142.8 323.141 150.55 325.463 154.667C326.788 157.013 329.356 158.131 333.053 158.005C349.17 157.427 363.548 147.043 388.013 118.322L388.602 117.629L389.441 118.513C390.925 119.953 392.44 121.191 393.449 121.976L394 122.407L393.662 123.018C387.544 134.084 381.972 147.741 384.665 152.895C385.385 154.269 386.623 155.049 388.34 155.202C395.69 155.862 405.695 149.704 418.077 136.92C421.447 133.441 424.926 129.525 428.415 125.287L431.283 121.802L429.816 126.072C426.681 135.229 425.869 142.309 427.417 147.125C428.551 150.659 430.945 153.064 434.522 154.275C435.874 154.733 437.346 154.962 438.895 154.962C446.468 154.962 454.903 149.486 460.644 144.888C464.439 141.856 468.381 138.191 472.361 134.008L476.412 129.748L473.675 134.951C469.362 143.149 467.89 149.066 469.417 152.071C470.278 153.773 472.1 154.673 474.679 154.673H474.82C480.131 154.613 491.27 145.068 506.182 127.801L510.397 122.92L507.535 128.696C501.341 141.196 499.002 149.852 500.948 153.064C501.646 154.22 502.84 154.766 504.476 154.678C506.308 154.586 509.623 151.21 515.811 144.752C519.661 140.733 524.448 135.737 529.448 131.243L533.542 127.561L530.614 132.404C526.122 139.827 524.666 147.877 527.07 151.99C528.188 153.904 529.987 154.831 532.425 154.766C540.827 154.504 547.746 144.938 553.569 135.988L556.797 131.024L555.036 136.675C553.182 142.614 553.116 147.152 554.845 150.157C556.617 153.249 560.243 154.597 565.581 154.149C569.773 153.8 576.682 150.751 584.059 145.996C590.002 142.161 595.743 137.542 600.656 132.628L602.537 130.752L602.041 133.364C600.688 140.46 600.825 145.925 602.449 149.601C603.927 152.939 606.719 154.804 610.535 154.989C610.797 155 611.064 155.006 611.337 155.006C632.083 155.006 662.922 118.278 664.225 116.713C664.416 116.484 664.383 116.135 664.154 115.944C663.925 115.753 663.576 115.786 663.385 116.015C663.309 116.108 655.125 125.887 644.58 135.366C630.655 147.888 618.91 154.307 610.59 153.893C607.166 153.729 604.767 152.137 603.447 149.153C601.577 144.921 601.784 138.224 604.063 129.246L604.118 129.034L604.276 128.876C626.92 105.914 644.002 78.1589 642.094 71.5377C641.827 70.6051 641.21 69.9997 640.311 69.7925C637.394 69.1107 633.239 71.9086 628.305 77.8753C621.184 86.4871 613.087 100.951 607.673 114.728C605.814 119.456 604.314 124 603.207 128.221L603.158 128.412L603.027 128.559C597.275 134.962 589.904 141.109 582.265 145.865C575.537 150.059 569.266 152.748 565.488 153.064C560.597 153.473 557.337 152.311 555.788 149.617C552.01 143.034 559.005 128.068 563.607 121.48L563.721 121.218V121.153L563.699 120.956L563.52 120.705C563.52 120.705 563.503 120.689 563.492 120.684L563.329 120.607L563.171 120.585L562.92 120.662L562.762 120.787C560.341 123.405 557.718 127.507 554.943 131.848C548.798 141.458 541.154 153.408 532.397 153.68C530.385 153.74 528.913 152.982 528.019 151.444C525.811 147.659 527.261 140.067 531.547 132.977C537.364 123.362 546.405 117.88 555.723 118.3H555.728H555.799C555.799 118.3 555.821 118.3 555.837 118.3C555.875 118.3 555.892 118.3 555.908 118.295C555.957 118.278 555.984 118.273 556.012 118.262C556.077 118.229 556.132 118.197 556.175 118.148C556.202 118.12 556.219 118.098 556.235 118.071C556.262 118.028 556.273 118.006 556.284 117.984C556.306 117.924 556.311 117.902 556.317 117.875V117.82C556.317 117.82 556.328 117.793 556.328 117.782V117.755C556.328 117.755 556.328 117.733 556.328 117.711V117.651C556.328 117.651 556.311 117.624 556.306 117.608L556.993 117.133L556.268 117.515L556.175 117.384L556.666 116.73L556.126 117.346L555.837 117.226C542.806 115.006 526.094 132.459 515.032 144.01C508.712 150.604 505.855 153.397 504.508 153.593H504.432C503.205 153.664 502.377 153.309 501.891 152.508C500.801 150.708 500.801 145.783 506.978 132.53C510.697 124.551 514.901 117.389 515.075 117.084C515.222 116.839 515.152 116.517 514.917 116.359C514.683 116.195 514.355 116.244 514.181 116.468C513.887 116.839 484.798 153.473 474.815 153.588H474.695C471.423 153.588 470.655 152.077 470.404 151.58C469.297 149.399 469.493 144.201 476.712 131.81C480.049 126.078 483.762 120.809 485.202 118.807C485.709 118.12 486.009 117.7 486.085 117.597C486.27 117.335 486.216 116.991 485.976 116.822C485.736 116.648 485.398 116.697 485.218 116.937C484.989 117.237 484.58 117.798 484.024 118.562C480.513 123.247 471.162 135.093 459.979 144.038C449.963 152.055 441.048 155.322 434.882 153.239C431.605 152.131 429.506 150.021 428.47 146.792C426.545 140.793 428.448 131.133 434.129 118.077L434.222 117.913C434.358 117.728 434.445 117.613 434.456 117.591C434.544 117.471 434.56 117.346 434.56 117.264V117.089L434.631 116.931C436.855 111.946 439.614 106.476 442.842 100.684C445.868 95.2462 449.314 89.4923 453.093 83.5856L453.387 83.1275L453.921 83.2202C470.18 85.9854 476.658 79.7078 476.925 79.4406C477.132 79.2334 477.138 78.8897 476.925 78.677C476.718 78.4643 476.369 78.4643 476.151 78.677C475.889 78.9225 469.804 84.4528 455.279 82.3367L454.014 82.1512L454.712 81.0822C459.003 74.4774 462.165 70.0597 462.296 69.8743C462.383 69.7543 462.416 69.607 462.394 69.4652C462.372 69.3234 462.291 69.198 462.176 69.1107C462.056 69.0235 461.914 68.9907 461.773 69.0125C461.631 69.0344 461.5 69.1162 461.418 69.2307C461.048 69.7488 457.667 74.4665 453.142 81.464L452.842 81.9276L452.302 81.824C435.405 78.6225 425.547 83.3947 425.133 83.5965C424.866 83.7274 424.757 84.0601 424.887 84.3274C425.018 84.5891 425.345 84.7091 425.618 84.5728C425.618 84.5728 428.153 83.3238 432.782 82.5112C436.648 81.8349 442.951 81.3168 450.999 82.6966L452.209 82.9039L451.55 83.9401C446.135 92.4647 438.557 105.189 433.24 117.384L433.148 117.548C431.403 119.882 425.105 128.128 417.309 136.173C409.261 144.479 398.029 154.166 389.414 154.166C389.087 154.166 388.771 154.149 388.449 154.122C387.102 154.002 386.186 153.44 385.641 152.399C382.708 146.781 391.546 128.936 395.199 122.533C395.336 122.293 395.27 121.987 395.047 121.824C393.356 120.585 391.508 118.998 389.965 117.466L389.365 116.871L389.976 116.293C394.338 112.137 394.136 108.63 393.694 107.632C393.28 106.7 392.26 106.301 390.663 106.449C387.108 106.771 385.047 107.85 384.545 109.661C384.076 111.341 385.096 113.692 387.484 116.457L387.942 116.986L387.49 117.52C363.117 146.165 348.865 156.522 333.02 157.089C329.689 157.22 327.415 156.249 326.27 154.226C321.058 144.992 339.225 116.953 339.41 116.67C339.552 116.457 339.487 116.168 339.274 116.026C339.198 115.977 339.111 115.95 339.023 115.95L339.029 115.933ZM562.745 120.798L562.723 120.815C562.723 120.815 562.74 120.804 562.745 120.798ZM555.864 117.215C555.864 117.215 555.881 117.215 555.892 117.215C555.881 117.215 555.875 117.215 555.864 117.215ZM555.788 117.193C555.788 117.193 555.794 117.193 555.799 117.193H555.788ZM604.587 127.032L605.677 123.602C610.65 107.938 620.513 88.996 629.144 78.5679C631.549 75.661 636.08 70.7797 639.389 70.7797C639.624 70.7797 639.847 70.8069 640.065 70.8506C640.578 70.9706 640.889 71.2814 641.047 71.8323C642.672 77.4826 627.307 102.855 607.057 124.409L604.592 127.032H604.587ZM639.384 72.4159C637.917 72.4159 634.788 74.3084 630.398 79.6097C622.541 89.1105 613.632 105.789 608.442 120.487C627.29 99.6967 640.474 77.1335 639.493 72.4213C639.455 72.4213 639.417 72.4213 639.378 72.4213L639.384 72.4159ZM388.618 116.064L388.029 115.371C386.028 113.01 385.227 111.226 385.587 109.928C386.045 108.276 388.651 107.703 390.75 107.512C391.23 107.469 391.546 107.485 391.775 107.512L392.309 107.163L392.691 108.063C392.806 108.33 393.667 110.785 389.24 115.404L388.613 116.059L388.618 116.064ZM387.168 110.365C387.037 110.834 387.391 111.908 388.695 113.593C390.739 111.281 391.143 109.808 391.197 109.121C391.11 109.121 391.012 109.127 390.903 109.138C388.046 109.394 387.239 110.108 387.168 110.365Z" fill="white"/>
<path d="M610.905 223.426C610.3 222.973 609.449 223.098 608.997 223.698C608.778 223.987 587.154 252.697 568.436 258.217C558.099 261.271 550.487 259.558 547.559 253.532C546.458 251.263 546.136 248.776 546.414 246.256C552.761 243.163 558.78 240.18 564.314 237.104C569.647 234.143 572.787 230.434 572.727 227.183C572.695 225.542 571.817 224.173 570.323 223.42C566.948 221.718 561.272 223.295 555.149 227.641C549.064 231.956 545.062 238.271 543.939 244.429C543.132 244.821 542.319 245.214 541.502 245.612C531.486 250.472 520.952 255.588 510.598 261.593C515.385 249.757 519.529 238.953 522.555 231.067L523.781 227.865C523.781 227.865 523.787 227.832 523.792 227.816C523.809 227.761 523.825 227.707 523.836 227.652C523.841 227.625 523.847 227.598 523.852 227.571C523.863 227.494 523.869 227.418 523.869 227.341C523.869 227.331 523.869 227.314 523.869 227.303C523.869 227.232 523.858 227.161 523.841 227.091C523.841 227.063 523.83 227.041 523.82 227.014C523.803 226.96 523.787 226.911 523.765 226.856C523.754 226.829 523.743 226.802 523.727 226.774C523.716 226.752 523.71 226.731 523.7 226.714C523.612 226.556 521.508 222.842 515.139 222.64C506.116 222.357 497.419 227.036 491.263 235.337C478.707 249.299 464.858 258.582 455.141 259.356C450.267 259.744 447.006 258.56 445.447 255.833C441.434 248.808 448.599 233.183 452.126 228.154C452.137 228.143 452.137 228.127 452.148 228.116C452.175 228.072 452.197 228.029 452.219 227.985C452.235 227.947 452.257 227.909 452.273 227.871C452.29 227.827 452.301 227.783 452.317 227.74C452.328 227.696 452.344 227.658 452.35 227.614C452.355 227.571 452.361 227.527 452.366 227.483C452.366 227.44 452.377 227.396 452.372 227.352C452.372 227.309 452.366 227.265 452.361 227.221C452.361 227.178 452.35 227.134 452.344 227.096C452.333 227.052 452.323 227.009 452.306 226.965C452.295 226.927 452.284 226.883 452.268 226.845C452.252 226.802 452.23 226.763 452.208 226.725C452.186 226.687 452.164 226.649 452.143 226.611C452.121 226.572 452.088 226.54 452.061 226.507C452.034 226.469 452.001 226.436 451.968 226.403C451.957 226.392 451.952 226.382 451.941 226.371C451.919 226.349 451.886 226.332 451.865 226.311C451.843 226.294 451.821 226.273 451.799 226.251C451.788 226.245 451.777 226.24 451.761 226.229C451.717 226.202 451.674 226.18 451.63 226.153C451.592 226.136 451.559 226.114 451.521 226.098C451.477 226.082 451.434 226.065 451.385 226.054C451.347 226.043 451.303 226.033 451.265 226.022C451.221 226.016 451.178 226.011 451.134 226.005C451.09 226.005 451.047 226 451.003 226C450.959 226 450.916 226.005 450.872 226.011C450.829 226.011 450.79 226.022 450.747 226.027C450.703 226.038 450.66 226.049 450.616 226.065C450.578 226.076 450.534 226.087 450.496 226.103C450.452 226.12 450.414 226.142 450.376 226.163C450.338 226.185 450.3 226.202 450.262 226.229C450.223 226.256 450.191 226.283 450.158 226.311C450.12 226.338 450.087 226.371 450.054 226.403C450.043 226.414 450.033 226.42 450.022 226.436C447.541 229.109 444.891 233.254 442.083 237.644C436.042 247.085 428.523 258.838 420.203 259.095C418.501 259.149 417.302 258.549 416.555 257.262C414.521 253.782 416.004 246.365 420.077 239.629C421.037 238.048 422.084 236.586 423.201 235.239C424.706 233.701 425.568 232.746 425.59 232.725C425.639 232.67 425.677 232.61 425.715 232.55C430.851 227.663 437.138 225.051 443.55 225.351C444.308 225.394 444.94 224.805 444.973 224.053C445.005 223.3 444.427 222.662 443.675 222.629C435.344 222.242 427.253 226.185 421.206 233.379C414.499 240.207 394.745 258.806 378.606 258.806C378.279 258.806 377.952 258.8 377.63 258.784C374.473 258.631 372.358 257.251 371.169 254.551C369.545 250.87 369.692 244.827 371.486 237.175C392.739 215.746 412.079 186.295 409.881 178.654C409.532 177.437 408.687 176.614 407.499 176.341C404.118 175.561 399.669 178.479 394.26 185.019C384.375 196.974 373.274 218.533 369.076 235.659C359.589 244.674 341.857 259.438 327.965 258.784C324.808 258.631 322.692 257.246 321.504 254.551C319.857 250.821 320.026 244.658 321.891 236.853C325.413 233.314 328.395 230.052 330.582 227.576C346.41 209.638 359.485 189.191 360.352 181.032C360.739 177.416 358.716 176.548 357.827 176.341C354.452 175.561 349.998 178.479 344.589 185.019C334.737 196.935 323.674 218.397 319.443 235.495C305.337 249.643 292.453 258.162 282.803 259.624C279.357 260.038 277.083 259.389 276.042 257.687C273.975 254.317 275.905 246.414 281.478 235.446C285.883 226.769 291.068 219.117 291.118 219.04C291.543 218.419 291.379 217.568 290.758 217.148C290.136 216.723 289.286 216.886 288.866 217.508C286.679 220.726 267.667 249.234 273.719 259.111C274.897 261.036 276.86 262.132 279.564 262.405C279.76 262.514 279.978 262.58 280.218 262.58H280.24C281.178 262.563 282.132 262.476 283.097 262.334C283.152 262.329 283.201 262.323 283.261 262.318C283.299 262.318 283.332 262.302 283.364 262.296C294.951 260.464 308.276 249.959 318.429 240.251C317.322 246.512 317.36 251.917 319.006 255.653C320.609 259.28 323.663 261.309 327.834 261.505C328.172 261.522 328.51 261.527 328.848 261.527C342.179 261.527 358.1 249.343 368.094 240.284C366.993 246.529 367.031 251.923 368.678 255.648C370.281 259.275 373.334 261.303 377.505 261.5C377.876 261.516 378.247 261.527 378.623 261.527C387.319 261.527 397.761 256.788 409.679 247.418C411.757 245.781 413.709 244.14 415.481 242.569C412.706 248.879 412.133 255.086 414.205 258.631C415.426 260.72 417.427 261.816 420.006 261.816C420.099 261.816 420.197 261.816 420.295 261.816C429.493 261.533 436.789 250.941 443.223 240.933C441.434 246.752 440.693 252.953 443.103 257.175C444.989 260.474 448.451 262.143 453.413 262.143C454.045 262.143 454.7 262.116 455.376 262.062C463.909 261.385 475.266 254.737 486.285 244.347C484.083 250.063 483.788 255.424 485.702 258.669C486.923 260.736 488.919 261.822 491.492 261.822C491.591 261.822 491.683 261.822 491.781 261.822C501.547 261.522 509.158 249.616 515.875 239.111C516.437 238.233 516.993 237.366 517.538 236.521C514.545 244.287 510.848 253.771 506.732 263.872C491.509 273.095 476.864 284.45 465.037 300.016C455.959 311.966 448.13 329.658 451.494 338.914C452.552 341.832 454.7 343.735 457.704 344.417C458.32 344.559 458.947 344.629 459.585 344.629C470.724 344.629 484.835 323.021 504.889 275.44C506.263 272.179 507.61 268.934 508.913 265.748C520.172 258.986 531.747 253.368 542.701 248.05C543.012 247.903 543.317 247.75 543.628 247.603C543.584 250.112 544.064 252.533 545.122 254.71C546.812 258.189 552.537 265.748 569.221 260.823C588.801 255.048 610.283 226.529 611.188 225.318C611.641 224.713 611.516 223.862 610.916 223.409L610.905 223.426ZM556.73 229.867C561.141 226.742 564.832 225.487 567.22 225.487C567.989 225.487 568.627 225.618 569.102 225.858C569.696 226.158 569.99 226.611 570.007 227.243C570.039 228.88 568.224 231.819 563 234.726C558.082 237.459 552.755 240.131 547.145 242.874C548.721 237.786 552.428 232.926 556.736 229.867H556.73ZM326.651 222.231C331.869 209.103 339.736 195.19 346.694 186.78C350.794 181.817 354.474 178.965 356.71 178.965C356.89 178.965 357.059 178.981 357.217 179.019C357.615 179.112 357.756 179.695 357.642 180.764C356.84 188.313 343.782 208.509 328.537 225.793C326.809 227.756 325.086 229.643 323.379 231.454C324.273 228.541 325.364 225.454 326.651 222.231ZM376.322 222.231C381.54 209.103 389.408 195.19 396.365 186.78C400.465 181.817 404.145 178.965 406.381 178.965C406.561 178.965 406.73 178.981 406.888 179.019C407.057 179.057 407.171 179.106 407.264 179.428C408.725 184.511 393.835 209.692 372.958 231.754C373.868 228.754 374.991 225.569 376.322 222.231ZM513.575 237.66C507.533 247.107 500.014 258.86 491.694 259.116C489.993 259.166 488.793 258.576 488.041 257.306C486.062 253.951 487.452 246.736 491.351 240.147C491.994 239.062 492.676 238.037 493.395 237.06C494.513 235.817 495.62 234.541 496.716 233.226C496.743 233.194 496.759 233.161 496.781 233.128C501.803 228.154 507.98 225.362 514.36 225.362C514.594 225.362 514.829 225.362 515.063 225.373C518.215 225.476 519.921 226.589 520.728 227.341C518.476 229.998 516.088 233.728 513.58 237.655L513.575 237.66ZM502.37 274.399C495.004 291.868 472.605 345.028 458.298 341.777C456.188 341.297 454.798 340.065 454.051 338.003C451.434 330.798 457.208 314.845 467.202 301.69C477.943 287.553 491.122 276.924 504.96 268.197C504.109 270.248 503.248 272.321 502.37 274.399Z" fill="white"/>
<path d="M459.573 345.458C458.88 345.458 458.188 345.382 457.506 345.229C454.218 344.482 451.868 342.398 450.713 339.208C447.25 329.68 455.167 311.66 464.376 299.535C474.845 285.753 488.094 274.245 506.065 263.326C508.949 256.252 511.632 249.451 513.857 243.752C507.684 253.176 500.673 262.383 491.796 262.655C491.687 262.655 491.584 262.655 491.48 262.655C488.601 262.655 486.355 261.428 484.981 259.099C483.296 256.247 483.143 251.977 484.495 247.095C473.918 256.536 463.433 262.252 455.423 262.89C454.726 262.945 454.039 262.972 453.395 262.972C448.123 262.972 444.415 261.161 442.376 257.589C440.402 254.136 440.484 249.577 441.253 245.415C434.999 254.731 428.5 262.388 420.305 262.639C420.196 262.639 420.092 262.639 419.994 262.639C417.11 262.639 414.858 261.396 413.489 259.05C411.663 255.92 411.717 250.842 413.538 245.328C412.41 246.283 411.281 247.199 410.174 248.066C397.59 257.96 386.56 262.759 377.46 262.323C372.956 262.11 369.663 259.918 367.924 255.985C366.484 252.718 366.152 248.164 366.926 242.427C355.928 252.124 340.645 262.939 327.789 262.328C323.285 262.115 319.992 259.923 318.253 255.991C316.813 252.735 316.481 248.202 317.244 242.492C307.833 251.246 294.889 261.292 283.515 263.103C283.455 263.119 283.406 263.13 283.357 263.135L283.232 263.146C282.152 263.304 281.182 263.386 280.244 263.403C279.911 263.403 279.606 263.337 279.323 263.212C276.427 262.89 274.306 261.657 273.014 259.547C270.321 255.151 271.82 247.046 277.463 235.462C281.771 226.615 287.152 218.576 288.183 217.055C288.51 216.575 289.006 216.247 289.578 216.138C290.151 216.029 290.729 216.149 291.214 216.477C292.207 217.153 292.468 218.511 291.792 219.509C291.574 219.831 286.492 227.379 282.201 235.827C276.842 246.381 274.852 254.196 276.733 257.272C277.589 258.674 279.595 259.198 282.698 258.821C292.027 257.403 304.812 248.977 318.694 235.086C322.8 218.685 333.628 196.984 343.95 184.505C349.653 177.611 354.249 174.677 358.006 175.55C358.862 175.746 361.626 176.733 361.157 181.124C360.274 189.43 347.107 210.074 331.186 228.121C328.421 231.251 325.542 234.333 322.62 237.273C320.826 244.875 320.695 250.733 322.238 254.224C323.307 256.64 325.133 257.834 327.99 257.97C341.501 258.592 358.993 244.079 368.327 235.233C372.411 218.8 383.25 197.033 393.615 184.5C399.318 177.606 403.915 174.672 407.672 175.544C409.138 175.882 410.229 176.935 410.654 178.43C412.944 186.387 393.921 215.648 372.215 237.583C370.492 245.028 370.383 250.777 371.904 254.218C372.973 256.634 374.799 257.823 377.656 257.965C393.833 258.745 414.64 238.876 420.588 232.828C426.82 225.432 435.244 221.412 443.701 221.811C444.284 221.838 444.819 222.089 445.211 222.52C445.604 222.95 445.805 223.507 445.778 224.09C445.751 224.679 445.495 225.219 445.058 225.612C444.628 225.999 444.066 226.196 443.488 226.163C437.441 225.874 431.34 228.334 426.33 233.073C426.286 233.138 426.237 233.204 426.182 233.264C426.182 233.264 425.332 234.213 423.794 235.784C422.693 237.103 421.673 238.538 420.757 240.049C416.891 246.435 415.381 253.656 417.24 256.841C417.835 257.861 418.751 258.32 420.157 258.265C428.053 258.02 435.44 246.473 441.378 237.191C444.208 232.768 446.874 228.595 449.409 225.868L449.491 225.786C449.535 225.743 449.584 225.705 449.633 225.666C449.682 225.623 449.742 225.579 449.797 225.541C449.857 225.503 449.917 225.465 449.982 225.432C450.036 225.399 450.102 225.367 450.167 225.339C450.233 225.312 450.293 225.29 450.358 225.274C450.434 225.252 450.5 225.23 450.571 225.219C450.631 225.208 450.691 225.197 450.751 225.192C450.843 225.181 450.914 225.176 450.985 225.176C451.051 225.176 451.116 225.176 451.181 225.187C451.274 225.192 451.34 225.203 451.405 225.214C451.465 225.225 451.52 225.241 451.574 225.257C451.678 225.285 451.749 225.307 451.819 225.334C451.874 225.356 451.923 225.377 451.972 225.405C452.054 225.443 452.114 225.476 452.174 225.514L452.256 225.563C452.316 225.606 452.354 225.639 452.392 225.672C452.408 225.683 452.452 225.716 452.496 225.754L452.577 225.841C452.621 225.885 452.659 225.928 452.697 225.977C452.757 226.048 452.79 226.092 452.823 226.141C452.866 226.206 452.899 226.266 452.932 226.321C452.975 226.408 453.008 226.463 453.03 226.528C453.057 226.594 453.073 226.654 453.095 226.714C453.123 226.795 453.139 226.861 453.155 226.926C453.166 226.986 453.177 227.046 453.183 227.106C453.193 227.199 453.199 227.27 453.199 227.335C453.199 227.401 453.199 227.466 453.188 227.537C453.182 227.63 453.172 227.695 453.161 227.761C453.15 227.826 453.128 227.897 453.112 227.963C453.095 228.028 453.073 228.099 453.046 228.17C453.019 228.23 452.992 228.284 452.964 228.344C452.932 228.41 452.899 228.47 452.866 228.524L452.801 228.633C449.48 233.378 442.392 248.819 446.171 255.429C447.556 257.856 450.554 258.903 455.091 258.543C464.529 257.79 478.149 248.704 490.646 234.818C496.998 226.266 505.934 221.527 515.181 221.821C522.008 222.04 524.336 226.146 524.434 226.321L524.489 226.435C524.51 226.485 524.527 226.517 524.543 226.555C524.57 226.626 524.603 226.714 524.625 226.801C524.636 226.845 524.647 226.883 524.658 226.921C524.679 227.03 524.696 227.145 524.701 227.254V227.335C524.707 227.439 524.701 227.559 524.679 227.684C524.674 227.734 524.663 227.772 524.658 227.81C524.641 227.892 524.62 227.968 524.598 228.044L524.565 228.154L523.338 231.355C520.498 238.767 516.675 248.731 512.264 259.699C521.975 254.185 531.724 249.451 541.167 244.87L543.234 243.866C544.532 237.447 548.795 231.159 554.7 226.97C561.08 222.443 567.066 220.845 570.719 222.689C572.491 223.583 573.533 225.214 573.571 227.166C573.642 230.722 570.343 234.704 564.738 237.818C559.046 240.981 552.737 244.096 547.214 246.79C547.023 249.124 547.4 251.268 548.321 253.176C551.053 258.81 558.31 260.365 568.228 257.436C586.684 251.987 608.15 223.496 608.363 223.212C608.711 222.749 609.219 222.443 609.796 222.361C610.374 222.274 610.947 222.427 611.416 222.776C611.885 223.125 612.185 223.632 612.266 224.21C612.348 224.788 612.201 225.361 611.852 225.83C610.942 227.052 589.296 255.773 569.46 261.63C552.176 266.735 546.173 258.756 544.395 255.091C543.485 253.209 542.961 251.142 542.847 248.922C531.931 254.218 520.656 259.699 509.582 266.337C508.257 269.577 506.937 272.751 505.662 275.783C485.346 323.98 471.137 345.469 459.6 345.469L459.573 345.458ZM521.135 229.457L518.295 236.825C515.732 243.474 511.828 253.536 507.483 264.193L507.379 264.444L507.15 264.586C489.245 275.434 476.066 286.855 465.685 300.522C461.039 306.636 456.912 314.016 454.36 320.773C451.492 328.365 450.767 334.539 452.256 338.64C453.215 341.286 455.162 343.009 457.877 343.625C458.433 343.751 459.006 343.816 459.578 343.816C470.216 343.816 484.376 321.989 504.13 275.129C505.438 272.025 506.79 268.764 508.148 265.448L508.252 265.197L508.486 265.055C519.772 258.276 531.244 252.707 542.334 247.324L544.461 246.293L544.439 247.624C544.395 250.079 544.875 252.347 545.851 254.36C547.449 257.654 552.901 264.793 568.985 260.043C588.309 254.338 609.633 226.037 610.533 224.832C610.62 224.717 610.658 224.57 610.636 224.428C610.614 224.287 610.538 224.156 610.424 224.068C610.309 223.981 610.162 223.943 610.02 223.965C609.878 223.987 609.747 224.063 609.66 224.178C609.442 224.472 587.649 253.395 568.68 258.996C557.917 262.175 549.957 260.31 546.838 253.88C545.72 251.573 545.306 248.971 545.617 246.157L545.666 245.71L546.069 245.514C551.669 242.787 558.13 239.607 563.926 236.384C568.915 233.613 571.973 230.09 571.913 227.194C571.886 225.846 571.194 224.767 569.961 224.145C566.908 222.601 561.412 224.194 555.627 228.301C549.935 232.337 545.867 238.418 544.744 244.57L544.668 244.979L541.86 246.343C531.778 251.235 521.348 256.296 511.01 262.295L508.949 263.49L509.844 261.281C514.625 249.462 518.764 238.669 521.784 230.788L523.022 227.543C523.022 227.543 523.033 227.51 523.038 227.483C523.049 227.423 523.055 227.39 523.055 227.363C523.055 227.319 523.049 227.292 523.044 227.265C523.027 227.21 523.022 227.194 523.017 227.172L522.984 227.09C522.798 226.768 520.846 223.643 515.127 223.458C506.425 223.174 497.968 227.69 491.933 235.827L491.883 235.887C479.114 250.084 465.063 259.394 455.216 260.174C450.004 260.588 446.476 259.269 444.748 256.242C440.506 248.819 447.692 233.1 451.438 227.728L451.558 227.406L451.503 227.134L451.35 226.948C451.35 226.948 451.329 226.932 451.318 226.921L451.285 226.899C451.285 226.899 451.274 226.899 451.258 226.888L451.045 226.828L450.838 226.855L450.582 227.025C448.155 229.653 445.533 233.749 442.763 238.085C436.618 247.69 428.974 259.645 420.217 259.918C418.233 259.983 416.739 259.23 415.839 257.681C413.631 253.896 415.081 246.304 419.367 239.214C420.326 237.627 421.406 236.116 422.567 234.726L422.611 234.676C424.121 233.138 424.966 232.2 424.972 232.189C424.994 232.162 425.01 232.135 425.026 232.113L425.146 231.966C430.495 226.877 437.027 224.232 443.581 224.543C443.777 224.554 443.897 224.478 443.968 224.407C444.077 224.308 444.142 224.172 444.148 224.019C444.153 223.872 444.104 223.736 444.006 223.627C443.908 223.518 443.772 223.458 443.63 223.447C435.669 223.076 427.725 226.888 421.82 233.907L421.777 233.951C418.489 237.3 411.788 243.752 403.904 249.32C394.221 256.16 385.704 259.623 378.594 259.623C378.256 259.623 377.912 259.618 377.58 259.601C374.128 259.438 371.719 257.85 370.41 254.884C368.731 251.082 368.823 244.892 370.677 236.989L370.732 236.765L370.895 236.602C391.538 215.789 411.166 186.12 409.089 178.888C408.822 177.955 408.206 177.35 407.306 177.142C404.291 176.444 400 179.351 394.88 185.547C384.602 197.977 373.845 219.607 369.859 235.86L369.799 236.095L369.625 236.258C360.35 245.072 342.897 259.628 328.841 259.628C328.53 259.628 328.219 259.623 327.909 259.607C324.457 259.443 322.047 257.856 320.739 254.889C319.038 251.033 319.152 244.734 321.082 236.673L321.137 236.449L321.3 236.285C324.256 233.318 327.167 230.21 329.959 227.041C345.689 209.212 358.676 188.967 359.532 180.949C359.838 178.091 358.475 177.339 357.635 177.142C354.625 176.444 350.329 179.351 345.209 185.547C334.98 197.917 324.239 219.476 320.226 235.696L320.172 235.915L320.014 236.073C305.619 250.509 292.795 258.936 282.921 260.436C279.104 260.894 276.564 260.114 275.342 258.118C272.496 253.471 276.711 243.027 280.746 235.08C285.08 226.545 290.216 218.914 290.435 218.593C290.609 218.336 290.544 217.998 290.293 217.829C290.173 217.747 290.031 217.72 289.884 217.742C289.742 217.769 289.617 217.851 289.535 217.971C281.711 229.484 269.715 251.022 274.41 258.69C275.457 260.403 277.169 261.352 279.639 261.597L279.808 261.614L279.955 261.696C280.042 261.745 280.13 261.766 280.211 261.766C281.084 261.756 281.983 261.674 282.97 261.532L283.188 261.499C294.911 259.645 308.509 248.6 317.86 239.661L319.665 237.938L319.229 240.398C318.078 246.91 318.253 251.933 319.752 255.325C321.219 258.652 324.027 260.507 327.871 260.692C328.192 260.708 328.519 260.714 328.847 260.714C335.918 260.714 348.371 257.065 367.542 239.683L369.309 238.08L368.894 240.43C367.749 246.932 367.924 251.938 369.418 255.325C370.884 258.652 373.692 260.507 377.536 260.692C386.249 261.106 396.898 256.422 409.16 246.784C411.052 245.295 412.993 243.676 414.929 241.968L417.715 239.509L416.221 242.912C413.5 249.097 412.993 254.971 414.901 258.232C416.019 260.147 417.824 261.063 420.261 261.008C428.816 260.747 435.675 251.158 442.523 240.501L445.745 235.489L443.995 241.183C442.545 245.912 441.329 252.451 443.804 256.781C445.756 260.196 449.6 261.706 455.303 261.259C463.537 260.605 474.621 254.229 485.711 243.763L488.329 241.292L487.036 244.652C484.894 250.22 484.654 255.309 486.398 258.265C487.516 260.157 489.321 261.074 491.753 261.014C501.082 260.725 508.573 249.015 515.181 238.68C515.743 237.802 516.299 236.934 516.844 236.084L521.135 229.452V229.457ZM522.967 227.074C522.967 227.074 522.967 227.074 522.967 227.079V227.074ZM451.345 226.932C451.345 226.932 451.35 226.937 451.356 226.943L451.345 226.932ZM459.584 342.731C459.087 342.731 458.597 342.676 458.117 342.567C455.745 342.027 454.12 340.582 453.281 338.275C450.576 330.836 456.405 314.545 466.552 301.188C476.115 288.6 488.536 277.578 504.522 267.499L506.698 266.13L505.716 268.502C504.866 270.558 504.004 272.631 503.126 274.709L502.374 274.392L503.104 274.758C490.678 304.226 472.866 342.725 459.584 342.731ZM503.203 270.286C488.432 279.879 476.851 290.329 467.849 302.175C458.008 315.134 452.277 330.743 454.813 337.713C455.467 339.519 456.634 340.549 458.477 340.969C462.397 341.864 469.692 338.166 482.195 315.499C490.477 300.49 497.985 282.683 501.594 274.125L502.368 274.392L501.616 274.076C502.15 272.811 502.679 271.545 503.203 270.286ZM491.502 259.934C489.604 259.934 488.203 259.192 487.336 257.72C485.177 254.065 486.54 246.67 490.646 239.732C491.284 238.652 491.987 237.589 492.734 236.574L492.783 236.514C493.939 235.227 495.051 233.946 496.082 232.708L496.202 232.549C501.6 227.199 508.322 224.33 515.083 224.559C518.393 224.663 520.279 225.808 521.283 226.752L521.85 227.286L521.348 227.881C519.129 230.499 516.768 234.197 514.265 238.107C508.121 247.712 500.476 259.667 491.72 259.939C491.649 259.939 491.578 259.939 491.507 259.939L491.502 259.934ZM494.032 237.578C493.328 238.538 492.663 239.541 492.058 240.567C488.361 246.812 486.938 253.825 488.748 256.891C489.337 257.889 490.275 258.336 491.671 258.298C499.566 258.052 506.954 246.501 512.886 237.223C515.22 233.569 517.439 230.106 519.565 227.472C518.731 226.905 517.302 226.272 515.034 226.201C508.764 226.005 502.488 228.661 497.418 233.657C497.396 233.695 497.369 233.727 497.341 233.76C496.305 235.009 495.188 236.296 494.026 237.589L494.032 237.578ZM545.797 244.439L546.358 242.628C547.95 237.485 551.652 232.462 556.26 229.195C560.322 226.315 564.313 224.663 567.224 224.663C568.113 224.663 568.871 224.816 569.471 225.121C570.338 225.557 570.807 226.283 570.823 227.221C570.861 229.173 568.931 232.359 563.391 235.435C558.173 238.336 552.427 241.194 547.498 243.605L545.797 244.439ZM567.219 226.305C565.998 226.305 562.584 226.719 557.203 230.537C553.446 233.204 550.327 237.109 548.599 241.249C553.07 239.051 558.043 236.547 562.595 234.011C567.857 231.088 569.204 228.317 569.182 227.259C569.182 226.986 569.1 226.779 568.729 226.588C568.364 226.403 567.84 226.305 567.219 226.305ZM371.168 234.84L372.177 231.519C373.098 228.481 374.238 225.257 375.562 221.93C380.813 208.732 388.73 194.731 395.731 186.261C398.239 183.229 402.95 178.146 406.379 178.146C406.619 178.146 406.854 178.173 407.072 178.222C407.584 178.342 407.895 178.653 408.053 179.204C409.705 184.952 394.111 210.592 373.556 232.32L371.168 234.846V234.84ZM377.084 222.53C376.277 224.565 375.535 226.561 374.875 228.497C395.207 206.294 407.383 184.123 406.516 179.782C406.472 179.782 406.428 179.782 406.385 179.782C404.853 179.782 401.587 181.756 397.001 187.303C390.098 195.653 382.28 209.479 377.089 222.536L377.084 222.53ZM321.573 234.567L322.604 231.208C323.514 228.257 324.621 225.132 325.897 221.925C331.147 208.726 339.064 194.726 346.065 186.256C348.568 183.229 353.284 178.146 356.708 178.146C356.948 178.146 357.182 178.173 357.401 178.222C358.268 178.424 358.622 179.308 358.458 180.851C357.64 188.541 344.495 208.945 329.157 226.332C327.44 228.279 325.7 230.188 323.983 232.015L321.573 234.573V234.567ZM356.714 179.777C355.181 179.777 351.916 181.751 347.33 187.298C340.427 195.648 332.609 209.474 327.418 222.53C326.655 224.445 325.957 226.326 325.324 228.159C326.197 227.205 327.069 226.228 327.931 225.252C343.083 208.077 356.048 188.083 356.834 180.677C356.883 180.191 356.866 179.924 356.844 179.788C356.801 179.788 356.757 179.788 356.708 179.788L356.714 179.777Z" fill="white"/>
<path d="M311.104 80.5155C315.084 79.4575 319.25 78.3012 323.481 77.1341C333.846 74.2653 344.565 71.2983 352.907 69.6676C365.055 67.2951 367.492 69.3512 367.492 69.3512L368.005 69.3403C369.035 69.324 369.881 68.5113 369.946 67.486C368.168 64.8135 362.978 64.6172 354.756 66.0461C346.801 67.4314 336.005 70.3439 322.723 74.0199C319.037 75.0398 315.319 76.0705 311.704 77.0359C315.133 55.7763 312.554 42.8285 304.185 39.4961C299.267 37.5381 293.52 39.8615 288.008 46.0409C280.004 55.0181 273.613 71.4456 277.037 79.9974C278.046 82.5117 280.347 85.506 285.598 85.506C290.848 85.506 298.585 83.7716 307.871 81.3664C301.6 113.894 283.782 158.508 262.267 195.464C237.993 237.165 213.735 260.944 195.541 260.944C195.279 260.944 195.017 260.944 194.756 260.928C189.69 260.732 185.885 258.725 183.126 254.781C169.915 235.932 183.513 178.867 195.508 128.516C206.506 82.3644 212.732 53.6819 206.544 44.5574C205.29 42.7085 203.567 41.6886 201.429 41.5359C191.342 40.8105 174.396 68.0859 162.521 88.6583C148.072 113.698 130.15 148.756 109.251 192.862C73.6802 267.925 41.3803 344.227 41.0586 344.99L43.8066 346.316C44.1283 345.552 76.4009 269.322 111.939 194.324C174.124 63.0846 194.554 44.2956 201.233 44.7537C202.471 44.841 203.381 45.3809 204.106 46.4499C209.913 55.0072 201.5 90.3273 192.591 127.725C180.427 178.775 166.643 236.631 180.721 256.712C184.02 261.419 188.709 263.917 194.657 264.146C205.082 264.555 216.958 258.108 229.902 245.019C241.15 233.647 253.227 217.1 264.835 197.165C286.781 159.462 304.926 113.796 311.055 80.8264C311.071 80.7228 311.093 80.6192 311.109 80.5155H311.104ZM308.503 77.8813C298.983 80.3737 290.488 82.2826 285.598 82.2826C282.659 82.2826 280.767 81.121 279.807 78.7267C277.13 72.051 282.174 57.2434 290.189 48.2606C292.424 45.7518 296.448 42.0322 300.635 42.0322C301.464 42.0322 302.304 42.1795 303.133 42.5067C310.057 45.261 311.944 57.7888 308.503 77.8758V77.8813Z" fill="white" stroke="white" stroke-width="1.3934"/>
<path d="M44.2201 347.422L40 345.383L40.3053 344.668C40.627 343.91 72.856 267.761 108.509 192.518C129.419 148.395 147.352 113.315 161.812 88.2544C174.625 66.0512 190.6 40.7065 201.036 40.7065C201.189 40.7065 201.336 40.7065 201.483 40.7228C203.882 40.8919 205.812 42.0318 207.213 44.0989C213.593 53.5015 207.344 82.3368 196.298 128.707C184.341 178.889 170.792 235.763 183.79 254.312C186.396 258.032 189.995 259.924 194.782 260.11C195.027 260.12 195.284 260.126 195.534 260.126C213.418 260.126 237.48 236.407 261.557 195.054C282.674 158.774 300.351 114.772 306.812 82.484C296.42 85.1401 289.844 86.3237 285.591 86.3237C279.883 86.3237 277.369 83.0458 276.268 80.3024C274.599 76.141 275.019 69.9671 277.451 62.9151C279.659 56.5121 283.372 50.0001 287.385 45.5005C293.143 39.043 299.211 36.6433 304.478 38.7376C313.055 42.1518 315.89 54.9959 312.701 75.9174C315.95 75.0394 319.276 74.1231 322.499 73.2286C335.279 69.689 346.522 66.6457 354.608 65.2385C363.795 63.6405 368.729 64.1914 370.621 67.0275L370.774 67.2565L370.758 67.5292C370.665 68.9745 369.46 70.1253 368.015 70.1526L367.192 70.169L366.957 69.9726C366.957 69.9726 364.318 68.271 353.059 70.4689C344.744 72.0942 334.041 75.0557 323.698 77.9191L323.491 77.979C319.423 79.1026 315.574 80.1716 311.812 81.1751C305.629 114.221 287.478 159.876 265.532 197.58C253.897 217.568 241.771 234.176 230.479 245.596C217.349 258.871 205.3 265.394 194.618 264.969C188.403 264.729 183.496 262.111 180.044 257.186C165.759 236.805 179.592 178.752 191.789 127.539C200.267 91.9576 209.029 55.1759 203.424 46.9131C202.841 46.0569 202.148 45.6423 201.167 45.5714C195.965 45.2333 176.953 59.021 112.675 194.673C77.4687 268.967 45.8831 343.496 44.5582 346.632L44.2256 347.422H44.2201ZM42.1155 344.586L43.3859 345.197C47.0935 336.46 77.4851 265.111 111.197 193.969C170.454 68.9145 192.885 43.3571 201.281 43.9353C202.77 44.0389 203.909 44.7152 204.776 45.9914C210.785 54.8487 202.334 90.3323 193.381 127.899C181.255 178.791 167.515 236.461 181.38 256.243C184.521 260.726 188.997 263.109 194.678 263.327C204.842 263.731 216.521 257.377 229.312 244.44C240.511 233.118 252.55 216.625 264.114 196.751C286.017 159.123 304.124 113.561 310.236 80.6733L310.383 79.8552L310.885 79.7243C314.794 78.6826 318.802 77.5755 323.049 76.4029L323.256 76.3428C333.632 73.4686 344.363 70.5016 352.743 68.86C363.146 66.8256 366.712 67.9928 367.71 68.5218H367.988C368.5 68.5055 368.936 68.1619 369.078 67.6874C367.453 65.7457 362.803 65.4676 354.891 66.8475C346.876 68.2437 335.677 71.2761 322.94 74.7994C319.309 75.8029 315.552 76.8446 311.91 77.8209L310.689 78.1481L310.89 76.8992C314.249 56.0867 311.823 43.4171 303.873 40.2483C299.293 38.4267 293.874 40.6738 288.607 46.5805C280.761 55.3777 274.469 71.407 277.789 79.6861C279.119 83.0022 281.742 84.682 285.591 84.682C289.866 84.682 296.671 83.4112 307.657 80.5697L308.911 80.2479L308.666 81.5187C302.385 114.084 284.446 158.971 262.964 195.872C238.592 237.743 214.013 261.757 195.529 261.757C195.256 261.757 194.984 261.757 194.717 261.74C189.379 261.533 185.36 259.411 182.443 255.245C169.02 236.096 182.661 178.84 194.7 128.319C205.643 82.3859 211.853 53.8561 205.856 45.0097C204.749 43.3735 203.233 42.4791 201.358 42.3482C190.611 41.5791 169.996 77.3191 163.218 89.0615C148.78 114.079 130.869 149.121 109.976 193.205C76.1874 264.516 45.4742 336.634 42.1046 344.575L42.1155 344.586ZM285.602 83.1003C282.336 83.1003 280.134 81.7314 279.049 79.0317C276.279 72.116 281.393 56.8994 289.577 47.7203C292.221 44.7534 296.289 41.2192 300.635 41.2192C301.6 41.2192 302.543 41.3991 303.432 41.7537C310.83 44.6988 312.864 57.243 309.309 78.0227L309.222 78.5408L308.709 78.6772C297.003 81.7423 289.877 83.1058 285.597 83.1058L285.602 83.1003ZM300.64 42.8499C296.698 42.8499 292.783 46.5804 290.804 48.8057C282.969 57.5975 277.996 71.9851 280.575 78.4208C281.409 80.4988 283.007 81.4641 285.608 81.4641C290.788 81.4641 300.106 79.228 307.793 77.221C312.166 51.1563 306.578 44.7588 302.837 43.2699C302.139 42.9917 301.403 42.8499 300.64 42.8499Z" fill="white" stroke="white" stroke-width="1.3934"/>
<path d="M351.965 91.6615C351 92.7141 349.964 95.2938 350.182 96.7282C350.258 97.2082 350.629 97.8736 351.07 98.0645C351.147 98.1626 351.294 98.1626 351.441 98.1626C352.848 98.1626 354.336 95.6756 354.707 94.3394C355.154 92.7141 354.56 91.5688 353.742 91.187C353.371 90.9961 352.706 90.8052 351.959 91.6669L351.965 91.6615Z" fill="white"/>
<path d="M351.446 98.9819C351.261 98.9819 350.901 98.9819 350.601 98.7474C349.936 98.3766 349.478 97.5203 349.374 96.8549C349.112 95.1642 350.241 92.339 351.353 91.1173C352.149 90.201 353.158 89.961 354.123 90.4574C355.214 90.97 356.081 92.4426 355.503 94.5533C355.088 96.0477 353.425 98.9819 351.452 98.9819H351.446ZM351.637 97.4766L351.719 97.5639C351.691 97.5312 351.664 97.5039 351.637 97.4766ZM353.131 91.8427C352.995 91.8427 352.82 91.9245 352.58 92.1972L352.564 92.219C351.74 93.1189 350.808 95.4532 350.988 96.604C351.032 96.8876 351.272 97.2585 351.392 97.3185L351.446 97.3457C352.215 97.3294 353.545 95.4478 353.911 94.1225C354.238 92.9389 353.867 92.1536 353.387 91.9299C353.311 91.8918 353.224 91.8482 353.12 91.8482L353.131 91.8427Z" fill="white"/>
</svg>
