<svg width="1140" height="385" viewBox="0 0 1140 385" fill="none" xmlns="http://www.w3.org/2000/svg">
<path d="M945.549 179.316C959.705 179.316 972.352 182.525 983.488 188.942C994.813 195.171 1003.68 204.043 1010.1 215.557C1016.52 226.882 1019.73 240.001 1019.73 254.912C1019.73 270.012 1016.52 283.226 1010.1 294.551C1003.68 305.876 994.813 314.747 983.488 321.165C972.352 327.583 959.705 330.791 945.549 330.791C932.714 330.791 921.105 327.865 910.724 322.014C901.985 316.93 894.719 310.04 888.923 301.345V384.303H868.82V180.732H888.073V209.906C893.847 200.515 901.303 193.244 910.44 188.094C920.822 182.242 932.525 179.316 945.549 179.316ZM76.7285 179.316C89.3749 179.316 100.795 181.77 110.987 186.678C121.18 191.585 129.201 198.947 135.053 208.762L120.047 218.955C114.951 211.405 108.627 205.836 101.077 202.25C93.5271 198.664 85.3166 196.87 76.4453 196.87C65.8751 196.87 56.3425 199.324 47.8486 204.231C39.3548 208.95 32.6546 215.651 27.7471 224.334C22.8395 233.017 20.3857 243.209 20.3857 254.912C20.3857 266.615 22.8395 276.808 27.7471 285.49C32.6546 294.173 39.3548 300.968 47.8486 305.876C56.3425 310.595 65.8751 312.954 76.4453 312.954C85.3166 312.954 93.5271 311.16 101.077 307.574C108.627 303.988 114.951 298.514 120.047 291.152L135.053 301.346C129.201 310.972 121.18 318.333 110.987 323.43C100.795 328.337 89.3749 330.791 76.7285 330.791C62.0058 330.791 48.7925 327.583 37.0898 321.165C25.5759 314.559 16.5155 305.593 9.90918 294.268C3.30281 282.754 0 269.635 0 254.912C2.25342e-06 240.001 3.30282 226.882 9.90918 215.557C16.5155 204.232 25.5759 195.36 37.0898 188.942C48.7925 182.525 62.0058 179.316 76.7285 179.316ZM232.645 179.316C247.367 179.316 260.392 182.525 271.717 188.942C283.231 195.36 292.197 204.232 298.614 215.557C305.221 226.882 308.523 240.001 308.523 254.912C308.523 269.635 305.221 282.754 298.614 294.268C292.197 305.593 283.231 314.559 271.717 321.165C260.203 327.583 247.179 330.791 232.645 330.791C218.299 330.791 205.369 327.583 193.855 321.165C182.53 314.559 173.564 305.593 166.958 294.268C160.352 282.754 157.049 269.635 157.049 254.912C157.049 240.001 160.352 226.882 166.958 215.557C173.564 204.232 182.53 195.36 193.855 188.942C205.181 182.525 218.111 179.316 232.645 179.316ZM602.621 179.316C615.267 179.316 626.687 181.77 636.88 186.678C647.072 191.585 655.094 198.947 660.945 208.762L645.939 218.955C640.843 211.405 634.52 205.836 626.97 202.25C619.42 198.664 611.209 196.87 602.338 196.87C591.768 196.87 582.235 199.324 573.741 204.231C565.247 208.95 558.547 215.651 553.64 224.334C548.732 233.017 546.278 243.209 546.278 254.912C546.278 266.615 548.732 276.808 553.64 285.49C558.547 294.173 565.247 300.968 573.741 305.876C582.235 310.595 591.768 312.954 602.338 312.954C611.209 312.954 619.42 311.16 626.97 307.574C634.52 303.988 640.843 298.514 645.939 291.152L660.945 301.346C655.094 310.972 647.072 318.333 636.88 323.43C626.687 328.337 615.267 330.791 602.621 330.791C587.898 330.791 574.685 327.583 562.982 321.165C551.469 314.559 542.408 305.593 535.802 294.268C529.195 282.754 525.893 269.635 525.893 254.912C525.893 240.001 529.195 226.882 535.802 215.557C542.408 204.232 551.469 195.36 562.982 188.942C574.685 182.525 587.898 179.316 602.621 179.316ZM755.706 179.316C769.674 179.316 782.037 182.525 792.796 188.942C803.743 195.171 812.332 204.043 818.561 215.557C824.789 226.882 827.904 240.001 827.904 254.912C827.904 255.856 827.81 256.894 827.621 258.026V261.141H702.67C703.334 270.281 705.723 278.492 709.839 285.773C714.935 294.267 721.919 300.968 730.79 305.876C739.85 310.595 750.137 312.954 761.651 312.954C770.712 312.954 779.112 311.349 786.851 308.141C794.778 304.932 801.573 300.024 807.235 293.418L818.561 306.441C811.954 314.369 803.649 320.41 793.646 324.562C783.83 328.715 772.976 330.791 761.085 330.791C745.607 330.791 732.017 327.583 720.314 321.165C708.612 314.559 699.457 305.593 692.851 294.268C686.244 282.754 682.941 269.635 682.941 254.912C682.941 240.189 686.056 227.165 692.285 215.84C698.703 204.515 707.385 195.643 718.333 189.226C729.469 182.619 741.927 179.316 755.706 179.316ZM1024.8 0C1036.88 1.58946e-05 1047.36 2.3593 1056.23 7.07812C1065.29 11.6082 1072.28 18.5927 1077.18 28.0303C1082.28 37.4679 1084.83 49.3591 1084.83 63.7041V150.059H1084.21V180.731H1129.51V197.437H1084.21V286.339C1084.21 295.022 1086.38 301.723 1090.72 306.441C1095.25 311.16 1101.67 313.52 1109.97 313.52C1118.84 313.519 1126.2 310.971 1132.06 305.875L1139.13 320.314C1135.17 323.901 1130.36 326.543 1124.69 328.242C1119.22 329.941 1113.56 330.791 1107.71 330.791C1093.74 330.791 1082.98 327.016 1075.43 319.466C1067.88 311.916 1064.1 301.251 1064.1 287.472V197.437H1037.49V180.731H1064.1V147.889H1064.72V65.6865C1064.72 50.02 1060.95 38.2226 1053.4 30.2949C1046.04 22.1787 1035.56 18.1202 1021.97 18.1201C1011.78 18.1201 1002.91 20.2907 995.358 24.6318C987.997 28.7844 982.239 34.9197 978.087 43.0361C974.123 50.9637 972.142 60.59 972.142 71.915V150.059H952.039V65.6865C952.039 50.02 948.264 38.2226 940.714 30.2949C933.164 22.1787 922.594 18.1202 909.004 18.1201C899 18.1201 890.222 20.2905 882.672 24.6318C875.122 28.7844 869.271 34.9198 865.118 43.0361C861.154 50.9637 859.173 60.59 859.173 71.915V150.059H839.07V1.41602H858.323V28.2568C862.818 20.4574 869.046 14.1524 877.01 9.34375C887.202 3.11495 899.188 6.43817e-05 912.967 0C927.501 0 939.865 3.68061 950.058 11.042C957.146 16.0303 962.498 22.7999 966.117 31.3486C970.593 23.4036 976.847 16.7282 984.882 11.3252C996.018 3.77506 1009.33 0 1024.8 0ZM425.443 179.316C437.524 179.316 448.094 181.676 457.154 186.395C466.403 190.925 473.576 197.909 478.672 207.347C483.957 216.784 486.6 228.676 486.6 243.021V329.375H466.497V245.003C466.497 229.336 462.533 217.539 454.605 209.611C446.867 201.495 435.919 197.437 421.763 197.437C411.193 197.437 401.943 199.607 394.016 203.948C386.277 208.101 380.237 214.236 375.896 222.353C371.743 230.28 369.667 239.906 369.667 251.231V329.375H349.564V180.732H368.817V207.786C373.503 199.888 380.014 193.512 388.354 188.66C398.735 182.431 411.098 179.316 425.443 179.316ZM232.928 196.87C222.358 196.87 212.919 199.324 204.614 204.231C196.309 208.95 189.703 215.651 184.796 224.334C179.888 233.017 177.435 243.209 177.435 254.912C177.435 266.426 179.888 276.619 184.796 285.49C189.703 294.173 196.309 300.968 204.614 305.876C212.919 310.595 222.263 312.954 232.645 312.954C243.403 312.954 252.935 310.595 261.24 305.876C269.545 300.968 276.058 294.173 280.776 285.49C285.684 276.619 288.138 266.426 288.138 254.912C288.138 243.209 285.684 233.017 280.776 224.334C276.058 215.651 269.545 208.95 261.24 204.231C252.935 199.324 243.498 196.87 232.928 196.87ZM944.133 196.87C933.563 196.87 924.031 199.324 915.537 204.231C907.232 209.139 900.625 215.935 895.718 224.617C890.999 233.3 888.64 243.398 888.64 254.912C888.64 266.426 890.999 276.619 895.718 285.49C900.625 294.173 907.232 300.968 915.537 305.876C924.031 310.595 933.563 312.954 944.133 312.954C954.703 312.954 964.141 310.595 972.446 305.876C980.751 300.968 987.357 294.173 992.265 285.49C997.172 276.619 999.626 266.426 999.626 254.912C999.626 243.398 997.172 233.3 992.265 224.617C987.357 215.935 980.751 209.139 972.446 204.231C964.141 199.324 954.703 196.87 944.133 196.87ZM755.706 196.587C745.513 196.587 736.359 198.947 728.242 203.666C720.126 208.385 713.802 214.991 709.272 223.484C705.662 230.255 703.491 237.805 702.759 246.135H808.684C807.962 237.776 805.687 230.226 801.856 223.484C797.326 214.991 791.097 208.385 783.17 203.666C775.242 198.947 766.087 196.587 755.706 196.587ZM724.53 0C736.61 1.58946e-05 747.087 2.3593 755.958 7.07812C765.018 11.6082 772.002 18.5927 776.909 28.0303C782.005 37.4679 784.554 49.3591 784.554 63.7041V150.059H764.451V65.6865C764.451 50.02 760.676 38.2226 753.126 30.2949C745.765 22.1787 735.289 18.1202 721.699 18.1201C711.507 18.1201 702.635 20.2907 695.085 24.6318C687.724 28.7844 681.966 34.9197 677.813 43.0361C673.85 50.9637 671.868 60.59 671.868 71.915V150.059H651.766V65.6865C651.766 50.02 647.991 38.2226 640.44 30.2949C632.89 22.1787 622.32 18.1202 608.73 18.1201C598.727 18.1201 589.949 20.2905 582.398 24.6318C574.848 28.7844 568.997 34.9198 564.845 43.0361C560.881 50.9637 558.899 60.59 558.899 71.915V150.059H538.797V1.41602H558.05V28.2568C562.545 20.4574 568.772 14.1524 576.736 9.34375C586.929 3.11495 598.915 6.66811e-05 612.693 0C627.227 0 639.591 3.68061 649.784 11.042C656.873 16.0303 662.224 22.7999 665.844 31.3486C670.32 23.4036 676.573 16.7282 684.608 11.3252C695.745 3.77506 709.052 0 724.53 0Z" fill="#0D0400"/>
</svg>
