<svg width="530" height="311" viewBox="0 0 530 311" fill="none" xmlns="http://www.w3.org/2000/svg">
<path d="M224.134 217.9C208.705 235.846 178.315 246.072 161.736 256.434C150.464 263.479 144.738 276.129 147.972 289.066C181.017 284.871 218.952 258.371 238.422 233.386C224.701 274.664 171.586 305.518 129.975 310.409C123.32 281.304 128.662 251.76 160.583 244.572C183.707 239.365 204.532 231.142 224.134 217.9ZM305.189 217.9C324.791 231.142 345.615 239.365 368.739 244.572C400.66 251.76 406.004 281.304 399.349 310.409C357.738 305.518 304.622 274.664 290.901 233.386C310.371 258.371 348.307 284.871 381.352 289.066C384.585 276.13 378.859 263.479 367.587 256.434C351.008 246.072 320.618 235.846 305.189 217.9ZM264.659 125.109C272.173 125.109 278.264 131.2 278.264 138.714C278.264 146.219 272.187 152.304 264.686 152.318C265.599 152.325 266.487 152.669 267.359 153.352C273.823 158.3 278.819 180.647 279.351 208.193V208.35C279.309 247.015 266.436 272.728 266.03 273.527L266.016 273.543C265.989 273.469 266.464 244.212 266.464 244.212C266.8 225.342 266.632 207.255 264.659 189.277C262.686 207.255 262.518 225.342 262.854 244.212C262.854 244.212 263.33 273.559 263.302 273.543L263.288 273.527C262.882 272.728 250.01 247.014 249.968 208.35V208.193C250.5 180.647 255.495 158.301 261.959 153.352C262.831 152.668 263.719 152.325 264.632 152.318C257.131 152.304 251.054 146.219 251.054 138.714C251.054 131.2 257.145 125.109 264.659 125.109ZM26.1953 62.4971C32.0493 90.3498 42.2224 116.221 60.3701 139.15C77.6391 161.294 97.7179 180.041 122.88 194.475C109.38 174.265 92.5436 149.437 97.3975 124.591C101.191 105.169 128.67 112.374 142.471 121.606C152.423 128.263 160.406 136.573 168.041 145.998C168.727 141.068 170.96 136.681 173.515 134.166C184.197 123.648 206.139 135.076 217.091 145.615C226.16 154.344 234.393 164.213 238.544 177.029C228.171 167.157 204.72 140.717 189.023 146.172C186.539 147.036 185.695 150.661 185.998 153.322C187.928 170.286 197.176 184.479 210.403 194.948C175.392 193.281 171.492 173.705 151.243 151.851C145.828 146.007 130.758 132.554 123.593 137.753C112.982 145.452 135.964 182.308 144.697 192.452L173.731 226.177C131.718 223.883 88.547 194.669 62.043 162.686C38.9512 134.821 26.4484 99.7588 26.1953 62.4971ZM503.128 62.4971C502.875 99.7589 490.371 134.821 467.279 162.686C440.775 194.668 397.605 223.883 355.592 226.177L384.625 192.452C393.358 182.308 416.341 145.452 405.73 137.753C398.565 132.554 383.494 146.007 378.079 151.851C357.83 173.704 353.93 193.281 318.92 194.948C332.147 184.479 341.394 170.286 343.324 153.322C343.627 150.661 342.784 147.036 340.3 146.172C324.603 140.717 301.151 167.157 290.778 177.029C294.93 164.213 303.163 154.344 312.232 145.615C323.184 135.076 345.127 123.648 355.809 134.166C358.363 136.681 359.065 140.899 361.281 145.998C368.916 136.573 376.901 128.263 386.853 121.606C400.654 112.375 428.132 105.169 431.926 124.591C436.78 149.437 419.943 174.265 406.443 194.475C431.605 180.041 451.683 161.294 468.952 139.15C487.1 116.22 497.274 90.3499 503.128 62.4971ZM1.46875 27.915C52.4837 24.9741 122.809 48.7539 165.243 76.5498C185.357 89.7257 203.228 103.46 218.665 121.782C226.878 133.742 236.569 144.386 241.793 158.408C231.807 143.852 222.304 130.585 208.45 119.499C195.074 108.795 181.812 99.141 166.009 90.7051V90.7061C123.866 68.2101 72.0196 50.77 24.4727 52.127C22.7477 68.0368 25.4908 83.0926 28.4248 99.1084C34.9618 127.028 48.9404 151.082 66.3594 174.349C19.4955 141.011 -6.65811 86.8689 1.46875 27.915ZM364.079 76.5498C406.513 48.7538 476.839 24.974 527.854 27.915C535.981 86.8688 509.828 141.011 462.964 174.349C480.383 151.082 494.361 127.028 500.898 99.1084C503.832 83.0926 506.576 68.0368 504.851 52.127C457.304 50.77 405.457 68.2101 363.314 90.7061V90.7051C347.512 99.1411 334.248 108.795 320.872 119.499C307.018 130.585 297.515 143.852 287.529 158.408C292.753 144.386 302.444 133.742 310.657 121.782C326.094 103.46 343.965 89.7257 364.079 76.5498ZM190.172 0C196.827 0 202.223 5.3953 202.223 12.0508C202.223 12.5708 202.19 13.0833 202.126 13.5859C202.137 13.5076 202.15 13.429 202.16 13.3506C215.032 17.7036 224.789 26.0669 233.495 36.5898C248.418 58.5285 259.16 83.7859 258.723 112.301C253.036 81.9664 236.078 26.7873 201.831 15.1211L201.844 15.0625C200.506 20.2608 195.788 24.1016 190.172 24.1016C183.516 24.1014 178.121 18.7063 178.121 12.0508C178.121 5.39537 183.516 0.000115451 190.172 0ZM339.146 0C345.802 0.000214401 351.197 5.39543 351.197 12.0508C351.197 18.7062 345.802 24.1013 339.146 24.1016C333.531 24.1016 328.812 20.2608 327.475 15.0625L327.387 14.6836C327.418 14.8302 327.452 14.9761 327.487 15.1211C293.241 26.7873 276.28 81.9665 270.594 112.301C270.156 83.7859 280.9 58.5285 295.823 36.5898C304.529 26.0669 314.286 17.7036 327.158 13.3506C327.168 13.429 327.181 13.5076 327.192 13.5859C327.128 13.0833 327.095 12.5708 327.095 12.0508C327.095 5.3953 332.491 0 339.146 0Z" fill="black"/>
</svg>
